<svg width="76" height="76" viewBox="0 0 76 76" fill="none" xmlns="http://www.w3.org/2000/svg">
<g clip-path="url(#clip0_12_105)">
<path d="M28.4718 7.99371C21.5996 8.71498 8.56263 18.0201 8.72725 19.5891C8.89187 21.1594 23.5804 27.5525 30.4502 26.8301C37.32 26.1088 42.4481 21.3066 41.9006 16.1055C41.3533 10.9033 35.3416 7.27243 28.4718 7.99371Z" fill="#8CC153"/>
<path d="M48.2743 1.58297C48.2743 0.708507 47.5646 0 46.6901 0C46.4674 0 46.2564 0.0452744 46.0662 0.127511C45.8134 0.236466 43.9696 1.09475 42.1975 3.7701C39.9178 7.2108 38.765 12.0188 38.7742 18.0618L41.94 18.0572C41.9354 14.4495 42.4062 9.38873 44.679 5.76469C45.9918 3.66812 47.3162 3.03725 47.33 3.03146L47.3161 3.03725C47.88 2.7938 48.2743 2.23477 48.2743 1.58297Z" fill="#A0D468"/>
<path d="M48.2742 68.0819C48.2742 63.7121 44.7302 60.1661 40.3585 60.1661C35.9842 60.1661 32.4402 63.7122 32.4402 68.0819C32.4402 72.4563 35.9842 76 40.3585 76C44.7302 76 48.2742 72.4563 48.2742 68.0819Z" fill="#AC92EB"/>
<path opacity="0.2" d="M38.7743 64.9159C38.7743 65.7904 38.0646 66.5001 37.1903 66.5001C36.316 66.5001 35.6086 65.7904 35.6086 64.9159C35.6086 64.0415 36.316 63.3318 37.1903 63.3318C38.0646 63.3318 38.7743 64.0416 38.7743 64.9159Z" fill="white"/>
<path d="M54.6084 57.0002C54.6084 52.6258 51.0621 49.0818 46.6901 49.0818C42.3182 49.0818 38.7744 52.6258 38.7744 57.0002C38.7744 61.3719 42.3182 64.916 46.6901 64.916C51.0621 64.916 54.6084 61.3719 54.6084 57.0002Z" fill="#9782D8"/>
<path opacity="0.2" d="M45.1083 53.8318C45.1083 54.7085 44.3986 55.416 43.5243 55.416C42.6498 55.416 41.9401 54.7085 41.9401 53.8318C41.9401 52.9598 42.6498 52.2501 43.5243 52.2501C44.3985 52.2501 45.1083 52.9598 45.1083 53.8318Z" fill="white"/>
<path d="M41.9401 57.0002C41.9401 52.6258 38.3963 49.0818 34.0242 49.0818C29.6524 49.0818 26.1083 52.6258 26.1083 57.0002C26.1083 61.3719 29.6524 64.916 34.0242 64.916C38.3963 64.916 41.9401 61.3719 41.9401 57.0002Z" fill="#9782D8"/>
<path opacity="0.2" d="M32.4402 53.8318C32.4402 54.7085 31.7328 55.416 30.8585 55.416C29.9841 55.416 29.2744 54.7085 29.2744 53.8318C29.2744 52.9598 29.9841 52.2501 30.8585 52.2501C31.7328 52.2501 32.4402 52.9598 32.4402 53.8318Z" fill="white"/>
<path d="M29.2743 34.8331C29.2743 30.4612 25.7302 26.916 21.3584 26.916C16.9841 26.916 13.4402 30.4612 13.4402 34.8331C13.4402 39.2051 16.9841 42.7502 21.3584 42.7502C25.7304 42.7502 29.2743 39.205 29.2743 34.8331Z" fill="#9782D8"/>
<path opacity="0.2" d="M19.7744 31.666C19.7744 32.5404 19.0647 33.249 18.1902 33.249C17.3158 33.249 16.6085 32.5404 16.6085 31.666C16.6085 30.7917 17.3158 30.083 18.1902 30.083C19.0647 30.083 19.7744 30.7917 19.7744 31.666Z" fill="white"/>
<path d="M67.2744 34.8331C67.2744 30.4612 63.7303 26.916 59.3583 26.916C54.9841 26.916 51.4402 30.4612 51.4402 34.8331C51.4402 39.2051 54.9841 42.7502 59.3583 42.7502C63.7303 42.7502 67.2744 39.205 67.2744 34.8331Z" fill="#9782D8"/>
<path opacity="0.2" d="M57.7742 31.666C57.7742 32.5404 57.0646 33.249 56.1902 33.249C55.3157 33.249 54.6084 32.5404 54.6084 31.666C54.6084 30.7917 55.3158 30.083 56.1902 30.083C57.0645 30.083 57.7742 30.7917 57.7742 31.666Z" fill="white"/>
<path d="M60.9401 45.9161C60.9401 41.5441 57.3962 37.9989 53.0243 37.9989C48.6523 37.9989 45.1059 41.5441 45.1059 45.9161C45.1059 50.2879 48.6523 53.8319 53.0243 53.8319C57.3962 53.8319 60.9401 50.2879 60.9401 45.9161Z" fill="#AC92EB"/>
<path opacity="0.2" d="M51.4402 42.7502C51.4402 43.6223 50.7327 44.332 49.856 44.332C48.984 44.332 48.2743 43.6223 48.2743 42.7502C48.2743 41.8735 48.984 41.166 49.856 41.166C50.7327 41.166 51.4402 41.8735 51.4402 42.7502Z" fill="white"/>
<path d="M35.6084 45.9161C35.6084 41.5441 32.0621 37.9989 27.6901 37.9989C23.3183 37.9989 19.7742 41.5441 19.7742 45.9161C19.7742 50.2879 23.3183 53.8319 27.6901 53.8319C32.0621 53.8319 35.6084 50.2879 35.6084 45.9161Z" fill="#AC92EB"/>
<path opacity="0.2" d="M26.1085 42.7502C26.1085 43.6223 25.3988 44.332 24.5243 44.332C23.65 44.332 22.9403 43.6223 22.9403 42.7502C22.9403 41.8735 23.65 41.166 24.5243 41.166C25.3986 41.166 26.1085 41.8735 26.1085 42.7502Z" fill="white"/>
<path d="M48.2742 45.9161C48.2742 41.5441 44.7302 37.9989 40.3585 37.9989C35.9842 37.9989 32.4402 41.5441 32.4402 45.9161C32.4402 50.2879 35.9842 53.8319 40.3585 53.8319C44.7302 53.8319 48.2742 50.2879 48.2742 45.9161Z" fill="#9782D8"/>
<path opacity="0.2" d="M38.7743 42.7502C38.7743 43.6223 38.0646 44.332 37.1903 44.332C36.316 44.332 35.6086 43.6223 35.6086 42.7502C35.6086 41.8735 36.316 41.166 37.1903 41.166C38.0646 41.166 38.7743 41.8735 38.7743 42.7502Z" fill="white"/>
<path d="M41.9401 34.8331C41.9401 30.4612 38.3963 26.916 34.0242 26.916C29.6524 26.916 26.1083 30.4612 26.1083 34.8331C26.1083 39.2051 29.6524 42.7502 34.0242 42.7502C38.3963 42.7502 41.9401 39.205 41.9401 34.8331Z" fill="#AC92EB"/>
<path opacity="0.2" d="M32.4402 31.666C32.4402 32.5404 31.7328 33.249 30.8585 33.249C29.9841 33.249 29.2744 32.5404 29.2744 31.666C29.2744 30.7917 29.9841 30.083 30.8585 30.083C31.7328 30.0832 32.4402 30.7917 32.4402 31.666Z" fill="white"/>
<path d="M54.6084 34.8331C54.6084 30.4612 51.0621 26.916 46.6901 26.916C42.3182 26.916 38.7744 30.4612 38.7744 34.8331C38.7744 39.2051 42.3182 42.7502 46.6901 42.7502C51.0621 42.7502 54.6084 39.205 54.6084 34.8331Z" fill="#AC92EB"/>
<path opacity="0.2" d="M45.1083 31.666C45.1083 32.5404 44.3986 33.249 43.5243 33.249C42.6498 33.249 41.9401 32.5404 41.9401 31.666C41.9401 30.7917 42.6498 30.083 43.5243 30.083C44.3985 30.0832 45.1083 30.7917 45.1083 31.666Z" fill="white"/>
<path d="M35.6062 23.749C35.6062 19.377 32.0622 15.8331 27.6903 15.8331C23.3184 15.8331 19.7744 19.377 19.7744 23.749C19.7744 28.1221 23.3184 31.666 27.6903 31.666C32.0622 31.666 35.6062 28.1221 35.6062 23.749Z" fill="#AC92EB"/>
<path opacity="0.2" d="M26.1085 20.5831C26.1085 21.4576 25.3988 22.1661 24.5243 22.1661C23.65 22.1661 22.9403 21.4576 22.9403 20.5831C22.9403 19.7086 23.65 18.9991 24.5243 18.9991C25.3986 18.9989 26.1085 19.7086 26.1085 20.5831Z" fill="white"/>
<path d="M60.9401 23.749C60.9401 19.377 57.3962 15.8331 53.0243 15.8331C48.6523 15.8331 45.1059 19.377 45.1059 23.749C45.1059 28.1221 48.6523 31.666 53.0243 31.666C57.3962 31.666 60.9401 28.1221 60.9401 23.749Z" fill="#AC92EB"/>
<path opacity="0.2" d="M51.4402 20.5831C51.4402 21.4576 50.7327 22.1661 49.856 22.1661C48.984 22.1661 48.2743 21.4576 48.2743 20.5831C48.2743 19.7086 48.984 18.9991 49.856 18.9991C50.7327 18.9989 51.4402 19.7086 51.4402 20.5831Z" fill="white"/>
<path d="M48.2742 23.749C48.2742 19.377 44.7302 15.8331 40.3561 15.8331C35.9841 15.8331 32.4402 19.377 32.4402 23.749C32.4402 28.1221 35.9842 31.666 40.3561 31.666C44.7302 31.666 48.2742 28.1221 48.2742 23.749Z" fill="#9782D8"/>
<path opacity="0.2" d="M38.7743 20.5831C38.7743 21.4576 38.0646 22.1661 37.1903 22.1661C36.316 22.1661 35.6062 21.4576 35.6062 20.5831C35.6062 19.7086 36.3159 18.9991 37.1903 18.9991C38.0648 18.9991 38.7743 19.7086 38.7743 20.5831Z" fill="white"/>
</g>
<defs>
<clipPath id="clip0_12_105">
<rect width="76" height="76" fill="white"/>
</clipPath>
</defs>
</svg>
