<?xml version="1.0" encoding="UTF-8"?>
<!DOCTYPE svg PUBLIC "-//W3C//DTD SVG 1.1//EN" "http://www.w3.org/Graphics/SVG/1.1/DTD/svg11.dtd">
<svg version="1.1" xmlns="http://www.w3.org/2000/svg" xmlns:xlink="http://www.w3.org/1999/xlink" x="0" y="0" width="381" height="470" viewBox="0, 0, 381, 470">
  <defs>
    <linearGradient id="Gradient_1" gradientUnits="userSpaceOnUse" x1="311.434" y1="136.965" x2="50.745" y2="453.281">
      <stop offset="0" stop-color="#802C7C"/>
      <stop offset="0.27" stop-color="#602A7A"/>
      <stop offset="1" stop-color="#300E3E"/>
    </linearGradient>
    <linearGradient id="Gradient_2" gradientUnits="userSpaceOnUse" x1="311.434" y1="136.965" x2="50.745" y2="453.281">
      <stop offset="0" stop-color="#62195D"/>
      <stop offset="0.27" stop-color="#4A1B5B"/>
      <stop offset="1" stop-color="#23082F"/>
    </linearGradient>
    <linearGradient id="Gradient_3" gradientUnits="userSpaceOnUse" x1="311.434" y1="136.965" x2="50.745" y2="453.281">
      <stop offset="0" stop-color="#8E458A"/>
      <stop offset="0.27" stop-color="#734287"/>
      <stop offset="1" stop-color="#462451"/>
    </linearGradient>
  </defs>
  <g id="Layer_1">
    <path d="M95.944,464.126 C53.018,464.123 32.003,438.493 32.003,438.493 C-52.255,344.134 70.245,281.11 117.308,242.868 C164.378,204.618 186.44,195.798 234.979,110.485 C236.932,106.776 238.896,103.257 240.873,99.913 C242.601,99.45 244.293,98.976 245.93,98.501 C244.586,98.944 243.083,99.397 241.409,99.86 C245.352,101.831 248.936,102.571 252.098,102.571 C254.616,102.571 256.865,102.101 258.812,101.409 C246.471,122.583 253.887,144.25 252.003,180.681 C252.489,176.935 253.152,173.434 253.968,170.158 C253.987,174.682 253.905,179.453 253.644,184.509 C260.854,128.977 307.011,126.813 312.776,124.649 C316.602,123.217 321.05,119.89 324.668,119.89 C326.194,119.89 327.573,120.483 328.695,122.06 C332.289,134.527 337.288,175.515 339.261,182.118 C339.882,184.184 340.562,186.012 341.469,187.789 C341.847,188.982 342.137,189.743 342.511,190.345 C313.697,276.845 262.092,388.826 190.862,429.665 C151.989,455.804 120.41,464.127 95.944,464.126 z M319.093,136.811 C314.878,136.811 310.84,139.222 308.87,143.009 C306.308,147.931 304.917,153.196 302.948,158.259 C302.37,159.743 301.745,161.212 301.034,162.626 C299.003,166.665 296.933,170.681 294.823,174.673 C287.519,188.556 279.862,202.251 271.878,215.759 C261.159,233.899 249.839,251.696 237.737,268.962 C224.847,287.353 211.073,305.196 195.815,321.688 C183.776,334.681 170.761,346.993 156.12,357.024 C79.776,409.392 55.112,382.774 56.198,405.673 C56.812,418.527 70.822,430.352 93.407,430.353 C111.07,430.353 133.976,423.121 159.823,403.493 C218.729,358.767 294.19,264.681 320.37,149.056 C320.854,145.681 326.581,138.118 321.245,137.024 C320.529,136.88 319.808,136.811 319.093,136.811 z" fill="url(#Gradient_1)"/>
    <path d="M344.133,192.003 C343.375,191.42 342.898,190.967 342.511,190.345 C342.56,190.198 342.615,190.034 342.663,189.887 C343.104,190.585 343.59,191.287 344.133,192.003" fill="#BBAFB3"/>
    <path d="M342.511,190.345 C342.137,189.743 341.847,188.982 341.469,187.789 C341.828,188.492 342.223,189.188 342.663,189.887 C342.615,190.034 342.56,190.198 342.511,190.345 z M253.644,184.509 C253.905,179.453 253.987,174.682 253.968,170.158 C265.255,124.852 305.759,122.832 311.136,120.821 C314.95,119.384 319.404,116.057 323.024,116.057 C324.876,116.057 326.511,116.928 327.729,119.368 C328.037,119.984 328.36,120.898 328.695,122.06 C327.573,120.483 326.194,119.89 324.668,119.89 C321.05,119.89 316.602,123.217 312.776,124.649 C307.011,126.813 260.854,128.977 253.644,184.509 z M252.098,102.571 C248.936,102.571 245.352,101.831 241.409,99.86 C243.083,99.397 244.586,98.944 245.93,98.501 C257.098,95.26 265.706,91.97 265.706,91.97 C262.91,95.136 260.644,98.267 258.812,101.409 C256.865,102.101 254.616,102.571 252.098,102.571 z" fill="url(#Gradient_2)"/>
    <path d="M265.706,91.97 C265.706,91.97 216.659,110.72 200.8,102.79 C234.69,93.415 236.854,81.868 249.839,63.845 C262.815,45.806 277.245,23.454 324.839,22.009 C331.331,9.743 338.55,0.368 353.698,3.978 C368.839,7.572 356.573,25.619 354.417,30.665 C367.401,45.087 386.144,67.438 365.23,128.024 C350.081,179.235 350.808,192.938 355.136,203.032 C344.315,193.657 341.433,189.337 339.261,182.118 C337.104,174.899 331.331,126.587 327.729,119.368 C324.128,112.157 316.901,118.649 311.136,120.821 C305.37,122.977 259.214,125.142 252.003,180.681 C254.167,138.845 244.065,116.478 265.706,91.97" fill="#014C25"/>
    <path d="M93.407,430.353 C70.822,430.352 56.812,418.527 56.198,405.673 C55.112,382.774 79.776,409.392 156.12,357.024 C170.761,346.993 183.776,334.681 195.815,321.688 C211.073,305.196 224.847,287.353 237.737,268.962 C249.839,251.696 261.159,233.899 271.878,215.759 C279.862,202.251 287.519,188.556 294.823,174.673 C296.933,170.681 299.003,166.665 301.034,162.626 C301.745,161.212 302.37,159.743 302.948,158.259 C304.917,153.196 306.308,147.931 308.87,143.009 C310.84,139.222 314.878,136.811 319.093,136.811 C319.808,136.811 320.529,136.88 321.245,137.024 C326.581,138.118 320.854,145.681 320.37,149.056 C294.19,264.681 218.729,358.767 159.823,403.493 C133.976,423.121 111.07,430.353 93.407,430.353 z" fill="url(#Gradient_3)"/>
    <path d="M351.933,197.034 C350.899,197.034 347.21,196.152 345.933,183.884 C344.448,169.556 360.558,116.134 358.769,89.86 C356.979,63.61 353.698,44.806 346.23,34.649 C345.299,32.55 346.01,30.991 347.797,30.991 C348.29,30.991 348.865,31.11 349.511,31.368 C349.511,31.368 376.667,51.962 371.901,84.493 C366.526,117.321 352.8,152.853 351.308,175.524 C350.409,191.634 352.206,197.009 352.206,197.009 C352.206,197.009 352.107,197.034 351.933,197.034" fill="#07381B"/>
    <path d="M255.495,159.282 C255.495,159.282 253.354,115.642 275.886,102.04 C292.356,92.11 308.438,90.772 315.911,90.772 C318.668,90.772 320.253,90.954 320.253,90.954 C320.253,90.954 297.354,108.845 325.98,109.915 C325.98,109.915 320.612,114.571 310.237,117.071 C299.862,119.571 282.69,121.368 272.315,132.446 C261.94,143.54 255.495,159.282 255.495,159.282" fill="#07381B"/>
    <path d="M208.993,102.828 C208.468,102.828 207.989,102.803 207.558,102.751 C207.558,102.751 207.606,102.752 207.701,102.752 C208.184,102.752 209.878,102.737 212.513,102.559 C211.187,102.734 210.006,102.828 208.993,102.828 M212.513,102.559 C224.74,100.94 249.284,92.342 268.026,85.587 C245.748,98.891 222.444,101.887 212.513,102.559" fill="#07381B"/>
    <path d="M224.841,96.473 C223.685,96.473 230.743,92.137 240.107,86.241 C239.116,87.15 230.307,95.134 225.151,96.423 C225.015,96.457 224.912,96.473 224.841,96.473 M240.107,86.241 C240.167,86.186 240.198,86.157 240.198,86.157 C240.198,86.157 240.198,86.157 261.417,60.149 C281.487,35.555 308.266,32.064 309.38,32.064 C309.443,32.064 309.424,32.076 309.315,32.095 C294.261,34.837 286.737,47.837 277.159,59.47 C271.655,66.154 253.517,77.797 240.107,86.241" fill="#07381B"/>
  </g>
</svg>
