<svg width="86" height="86" viewBox="0 0 86 86" fill="none" xmlns="http://www.w3.org/2000/svg">
<path d="M37.5444 21.7755C37.5444 21.7755 11.6906 28.9646 9.67501 31.7394C7.65939 34.5143 4.1858 39.6541 3.87002 50.6594C3.6147 59.4879 8.53955 82.1905 32.7472 82.943C57.4655 83.7157 66.6702 67.4294 71.0844 57.3446C75.0619 48.2474 74.9947 37.7997 77.5142 33.0026C80.0338 28.2054 82.3047 24.0465 82.1838 18.6244C82.0628 13.2024 80.0405 8.53287 76.5064 6.26193C72.9724 3.991 69.9489 4.36725 68.4372 3.991C66.9255 3.61475 37.5444 21.7755 37.5444 21.7755Z" fill="#757E40"/>
<path d="M42.0795 12.6984C31.3564 17.1126 17.1059 21.2715 10.2998 30.8592C4.15218 39.5129 2.10296 50.2764 10.4275 62.8875C18.0264 74.4034 38.2834 79.3148 53.4342 68.4372C67.3084 58.4733 68.5648 43.8465 72.7305 34.1312C76.8961 24.4159 85.6573 11.6503 75.1291 5.37497C63.902 -1.30346 50.5519 9.21138 42.0795 12.6984Z" fill="#AFB42A"/>
<path d="M72.7305 8.15658C67.631 5.21377 61.1272 6.51721 53.9381 10.0513C46.7491 13.5853 41.1994 16.2325 38.6799 17.1127C36.1536 17.9928 14.6939 25.8538 10.5552 36.2813C7.14877 44.8544 8.03565 56.0814 16.985 64.2783C25.9344 72.4752 48.5161 71.9713 57.2169 59.6088C65.9177 47.2463 66.2939 37.2891 68.1886 32.8749C70.0833 28.4606 74.2086 21.9972 75.3777 18.4967C76.7617 14.3378 76.0092 10.0513 72.7305 8.15658Z" fill="#FFF69D"/>
<path d="M48.0055 32.1157C43.9675 27.3252 28.5816 28.8369 23.2872 36.4022C17.9928 43.9676 20.1966 50.1152 22.7833 53.4276C25.9344 57.4655 34.5142 61.1205 42.3281 55.6985C50.142 50.2765 52.4331 37.3697 48.0055 32.1157Z" fill="#855C52"/>
<path d="M31.7931 40.7291C29.8044 43.645 30.7988 48.3481 27.3789 48.5698C23.9591 48.7916 21.9703 43.3023 24.3958 38.7067C27.0161 33.7483 33.2242 31.5378 34.9913 33.8894C36.765 36.2476 33.6811 37.9609 31.7931 40.7291Z" fill="#D67659"/>
</svg>
