<svg width="69" height="64" viewBox="0 0 69 64" fill="none" xmlns="http://www.w3.org/2000/svg">
<path d="M68.9313 43.1791L67.5052 37.8756C67.4867 37.8067 67.4646 37.7393 67.4392 37.6735C67.261 37.2132 66.9179 36.8345 66.4742 36.617C66.2206 36.4927 65.947 36.4269 65.6721 36.4204C65.3969 36.4138 65.1206 36.4665 64.8618 36.5784C64.4785 36.7444 64.0912 36.9042 63.7009 37.0574C62.5296 37.5169 61.3289 37.9176 60.1175 38.2531C59.7636 38.3511 59.4083 38.4418 59.0526 38.5287C58.9497 38.5539 58.847 38.5771 58.7442 38.6015C58.4791 38.6637 58.2138 38.7231 57.9475 38.7793C57.8437 38.8012 57.7397 38.8234 57.6359 38.8443C57.3157 38.9089 56.9952 38.9698 56.6741 39.0254C56.6363 39.032 56.5987 39.0396 56.5609 39.0459C56.1951 39.1081 55.8286 39.1641 55.4615 39.2149C55.3818 39.226 55.3023 39.2354 55.2227 39.2457C54.9356 39.2834 54.6483 39.3177 54.3606 39.3486C54.2591 39.3594 54.1575 39.3702 54.056 39.3802C53.7533 39.41 53.4504 39.4357 53.1473 39.4576C53.0846 39.4621 53.0221 39.4681 52.9593 39.4722C52.6008 39.4963 52.2418 39.5141 51.8829 39.5272C51.7876 39.5307 51.6926 39.5321 51.5975 39.5348C51.3278 39.5425 51.0579 39.5473 50.7879 39.5486C50.6456 39.5495 50.5034 39.5503 50.3613 39.5492C50.2619 39.5486 50.1627 39.5475 50.0637 39.546C49.8811 39.5433 49.6987 39.5385 49.5164 39.5331C49.418 39.53 49.3195 39.5276 49.2211 39.5238C49.0312 39.5162 48.8418 39.5064 48.6524 39.4959C48.5635 39.4909 48.4743 39.4874 48.3855 39.4816C48.1317 39.4657 47.8783 39.4467 47.6254 39.4253C47.4595 39.4112 47.2941 39.3946 47.1288 39.3782C47.0363 39.3691 46.9437 39.3604 46.8514 39.3507C46.6586 39.3299 46.4663 39.3075 46.2742 39.2835C46.2208 39.277 46.1673 39.2706 46.114 39.2636C32.5723 37.5203 20.8647 28.0047 16.3695 14.7877C16.3536 14.7402 16.3374 14.693 16.3216 14.6456C16.2573 14.4539 16.1944 14.2617 16.1333 14.0685C16.1079 13.9878 16.0833 13.9069 16.0581 13.8258C16.0025 13.6455 15.9466 13.465 15.8933 13.2835C15.8933 13.2833 15.8932 13.2831 15.8932 13.2827C15.8161 13.0193 15.7406 12.7553 15.6691 12.489L15.6079 12.262C15.6079 12.2619 15.6079 12.2616 15.6078 12.2615L12.9622 2.42363C12.8262 1.91804 12.4979 1.48806 12.0494 1.22816C11.6008 0.968122 11.0687 0.899625 10.5706 1.03744L1.435 3.56578C0.936634 3.70373 0.512797 4.03677 0.256607 4.49177C0.000552409 4.94677 -0.0672347 5.4864 0.068609 5.99199L2.71433 15.8303C2.95057 16.7091 3.73545 17.2866 4.59215 17.2866C4.76182 17.2866 4.93432 17.2639 5.10588 17.2165L10.9691 15.5937C10.226 17.815 9.75785 21.2514 11.0225 25.954C13.0072 33.3356 18.6524 40.0392 26.9178 44.8304C32.4017 48.0087 38.6004 49.6887 44.8434 49.6887C48.0646 49.6887 51.2919 49.2475 54.4366 48.3773C58.1631 47.346 61.6401 45.7561 64.8118 43.6423C60.4902 50.6693 53.8131 55.7169 45.8971 57.9076C37.5613 60.2145 28.8385 59.0903 21.3357 54.7422C14.8874 51.0046 9.86877 45.0822 7.20418 38.0665C6.22376 35.4852 5.56745 32.7708 5.25345 29.9988C5.13054 28.9148 4.16279 28.138 3.09639 28.2618C2.02783 28.3862 1.26102 29.3662 1.38392 30.4503C1.73566 33.5539 2.47094 36.5943 3.56982 39.4874C6.55555 47.3495 12.1786 53.9857 19.4037 58.1734C24.9552 61.3907 31.1011 63.0327 37.3262 63.0325C40.5274 63.0324 43.7506 62.5979 46.9222 61.72C56.1798 59.1579 63.9272 53.11 68.7375 44.6906C68.9985 44.2328 69.0685 43.6886 68.9313 43.1791ZM4.33893 6.85783L9.71688 5.36951L11.3372 11.3957L5.95935 12.884L4.33893 6.85783ZM53.4114 44.5647C50.601 45.3425 47.7184 45.7369 44.8434 45.7369C39.2769 45.7369 33.7464 44.237 28.8498 41.3991C21.4877 37.1319 16.4911 31.2774 14.78 24.9139C14.2292 22.8658 14.0795 21.1598 14.1383 19.7768C14.203 19.9206 14.2725 20.0614 14.3387 20.2046C14.369 20.2695 14.3995 20.3346 14.43 20.3995C16.7573 25.3493 20.0399 29.7393 24.1446 33.3763C24.2938 33.509 24.4434 33.6408 24.5945 33.7709C24.7151 33.8747 24.8361 33.9779 24.9581 34.0803C25.1785 34.2658 25.4012 34.4486 25.6253 34.6291C25.6935 34.6841 25.7605 34.7397 25.8291 34.7942C26.1401 35.0416 26.4546 35.2843 26.7724 35.5219C26.7837 35.5303 26.7947 35.5392 26.806 35.5477C26.9477 35.6537 27.0911 35.7568 27.2343 35.8607C27.424 35.9983 27.615 36.1341 27.8069 36.2685C27.9186 36.3467 28.0301 36.4257 28.1426 36.5026C28.3077 36.6156 28.4742 36.7262 28.6409 36.8368C28.7047 36.8791 28.7682 36.9216 28.8322 36.9634C29.0292 37.0925 29.2276 37.2195 29.4268 37.3449C29.4439 37.3555 29.4609 37.3665 29.478 37.3771C35.2272 40.9899 41.8596 43.134 48.769 43.4578C48.8635 43.4624 48.9579 43.468 49.0524 43.4717C49.195 43.4771 49.3377 43.4809 49.4804 43.4849C49.6494 43.4898 49.8186 43.4942 49.9875 43.4969C50.1127 43.4989 50.2379 43.5001 50.3634 43.5009C50.4429 43.5013 50.5222 43.5032 50.6015 43.5032C50.6859 43.5032 50.77 43.5006 50.8544 43.5001C51.0332 43.4989 51.2122 43.4969 51.3913 43.4934C51.5406 43.4904 51.69 43.4861 51.8394 43.4814C52.0214 43.4756 52.2038 43.4689 52.386 43.4606C52.5314 43.4539 52.6768 43.4462 52.8222 43.4379C53.0087 43.4272 53.1955 43.4157 53.3826 43.4025C53.5231 43.3924 53.6638 43.3811 53.8042 43.3697C53.9955 43.3541 54.1866 43.3374 54.3779 43.3189C54.5153 43.3057 54.6523 43.291 54.7894 43.2763C54.9826 43.2555 55.1756 43.234 55.369 43.2102C55.5057 43.1934 55.6424 43.1752 55.7791 43.1571C55.9713 43.1316 56.1636 43.1052 56.3559 43.0768C56.4954 43.0563 56.6346 43.0339 56.7738 43.0119C56.9619 42.9821 57.1501 42.9516 57.3379 42.9188C57.4837 42.8935 57.6293 42.8663 57.775 42.8393C57.9556 42.8057 58.136 42.7722 58.3166 42.736C58.3642 42.7265 58.412 42.7183 58.4596 42.7088C56.8433 43.4614 55.158 44.0814 53.4114 44.5647Z" fill="#FFC61B"/>
</svg>
