<svg width="50" height="50" viewBox="0 0 92 92" fill="none" xmlns="http://www.w3.org/2000/svg">
<path d="M15.1656 17.0991C14.835 17.1782 13.6706 16.2151 10.1272 16.5529C8.78312 16.6822 8.29437 17.0272 8.29437 17.0272C8.29437 17.0272 8.42375 15.1154 10.0337 13.8288C11.1622 12.9232 12.1972 12.571 12.9087 12.4344C13.4191 12.3338 13.7425 11.8522 13.6634 11.3347C13.4694 10.1057 13.4334 8.086 14.9787 7.05818C16.4306 6.08787 17.9903 6.75631 18.9462 7.38881C19.4206 7.70506 20.0531 7.55412 20.3262 7.04381C20.6856 6.36818 21.2822 5.48412 22.2094 4.76537C24.0134 3.371 25.6953 4.31975 25.6953 4.31975C25.6953 4.31975 24.15 5.65662 24.0781 9.0635C24.0709 9.43725 24.2147 10.3716 24.0134 10.7022C21.6559 12.3769 20.1466 13.6707 17.7891 15.3526C16.8044 16.0569 16.5312 16.2438 15.5322 16.9266C15.4028 17.0201 15.2806 17.0704 15.1656 17.0991Z" fill="#3F51B5"/>
<path d="M31.5028 50.0681C43.4988 50.0681 53.2234 40.3434 53.2234 28.3475C53.2234 16.3515 43.4988 6.62683 31.5028 6.62683C19.5068 6.62683 9.78218 16.3515 9.78218 28.3475C9.78218 40.3434 19.5068 50.0681 31.5028 50.0681Z" fill="#3F51B5"/>
<path d="M43.9659 10.5585C45.1016 12.7363 46.9128 14.2025 45.6047 21.196C44.5912 26.6153 40.0631 32.2791 30.7625 32.8828C22.8491 33.3932 17.2572 29.0735 15.6544 23.8266C14.1306 18.8385 15.0291 14.6122 18.1916 11.1766C10.1272 16.5528 9.78218 25.8463 9.78218 28.3403C9.78218 40.3363 19.5069 50.061 31.5028 50.061C43.4987 50.061 53.2234 40.3363 53.2234 28.3403C53.2306 20.9875 49.565 14.4828 43.9659 10.5585Z" fill="#303F9F"/>
<path d="M64.9678 66.7503C78.1149 66.7503 88.7728 56.0924 88.7728 42.9453C88.7728 29.7981 78.1149 19.1403 64.9678 19.1403C51.8207 19.1403 41.1628 29.7981 41.1628 42.9453C41.1628 56.0924 51.8207 66.7503 64.9678 66.7503Z" fill="#5064C9"/>
<path d="M88.7441 43.8869C84.6544 54.2441 75.2387 62.5169 60.5762 57.9744C48.5947 54.2585 42.3128 40.0057 45.8491 28.8291C44.3309 30.9002 43.1585 33.2037 42.3775 35.65C38.3812 48.1707 45.2669 61.561 57.7659 65.55C70.265 69.5391 83.6409 62.6247 87.6372 50.1041C88.2912 48.0413 88.6506 45.9569 88.7441 43.8869Z" fill="#4054B0"/>
<path d="M72.1338 33.1847C72.1338 33.1847 74.635 38.9347 78.6888 37.5547C81.1181 36.7281 80.4856 32.6744 80.4856 32.6744C80.4856 32.6744 86.9472 32.3797 86.6525 29.5406C86.3506 26.6297 82.2897 25.6809 82.2897 25.6809C82.2897 25.6809 81.9375 21.4762 80.4856 20.3622C78.0634 18.515 75.0519 21.3828 75.0519 21.3828C75.0519 21.3828 72.7303 17.4944 69.2228 18.249C66.4125 18.8528 67.9506 24.8615 67.9506 24.8615C67.9506 24.8615 63.8825 24.8112 65.5716 28.1534C67.4188 31.819 72.1338 33.1847 72.1338 33.1847Z" fill="#8092F2"/>
<path d="M79.7595 30.5159C80.9102 28.2286 79.733 25.313 77.1301 24.0035C74.5273 22.6941 71.4845 23.4868 70.3338 25.774C69.1832 28.0612 70.3604 30.9769 72.9632 32.2863C75.5661 33.5958 78.6089 32.8031 79.7595 30.5159Z" fill="#2F3E82"/>
<path d="M78.4403 31.4369C79.6713 29.6241 78.9761 27.0049 76.8875 25.5865C74.7989 24.1682 72.1079 24.4879 70.8769 26.3007C69.6459 28.1134 70.3411 30.7327 72.4297 32.151C74.5182 33.5693 77.2093 33.2496 78.4403 31.4369Z" fill="#5064C9"/>
<path d="M27.7941 87.9893C41.362 87.9893 52.3609 76.9904 52.3609 63.4225C52.3609 49.8546 41.362 38.8556 27.7941 38.8556C14.2262 38.8556 3.22719 49.8546 3.22719 63.4225C3.22719 76.9904 14.2262 87.9893 27.7941 87.9893Z" fill="#6678D9"/>
<path d="M51.0169 55.4084C51.1534 56.3571 51.4984 80.7659 26.7303 81.4703C16.5816 81.7578 9.70313 75.0662 6.51188 67.3899C3.23438 59.5053 7.11562 50.1687 7.11562 50.1687C7.11562 50.1687 5.03844 53.5181 4.57844 55.4084C3.70875 57.924 3.23438 60.6193 3.23438 63.4224C3.23438 76.9924 14.2313 87.9893 27.8013 87.9893C41.3713 87.9893 52.3681 76.9924 52.3681 63.4224C52.3609 60.6121 51.8794 57.9168 51.0169 55.4084Z" fill="#5366CF"/>
<path d="M25.4581 58.7649C25.4581 58.7649 22.5472 64.4503 17.2644 62.9121C14.8206 62.2006 15.9634 58.3768 15.9634 58.3768C15.9634 58.3768 12.5494 58.0965 11.3131 55.1568C10.2063 52.5262 16.1288 51.4768 16.1288 51.4768C16.1288 51.4768 13.7856 47.1643 16.2653 45.4249C18.745 43.6856 21.4475 47.5956 21.4475 47.5956C21.4475 47.5956 23.6541 41.2274 26.5219 43.3334C29.2675 45.3531 28.5703 51.1749 28.5703 51.1749C28.5703 51.1749 33.5153 52.0087 31.8478 55.3509C30.0078 59.0309 25.4581 58.7649 25.4581 58.7649Z" fill="#9AA7ED"/>
<path d="M22.801 59.0578C25.8147 58.4015 27.7669 55.615 27.1613 52.834C26.5557 50.0531 23.6217 48.3306 20.608 48.9869C17.5943 49.6432 15.6421 52.4296 16.2477 55.2106C16.8533 57.9916 19.7873 59.714 22.801 59.0578Z" fill="#2C3F9E"/>
<path d="M23.5454 58.8354C26.0937 58.2805 27.7281 55.8498 27.196 53.4062C26.6639 50.9627 24.1667 49.4317 21.6184 49.9866C19.0702 50.5415 17.4358 52.9722 17.9679 55.4158C18.5 57.8593 20.9971 59.3904 23.5454 58.8354Z" fill="#5366CF"/>
</svg>
