<svg width="84" height="84" viewBox="0 0 84 84" fill="none" xmlns="http://www.w3.org/2000/svg">
<g clip-path="url(#clip0_12_203)">
<path d="M77.9937 8.95778C77.9937 8.95778 67.5713 15.1789 51.5069 15.0936C45.1516 15.0591 37.9104 14.0379 30.0825 11.2538L27.9233 7.35881C27.9233 7.35881 34.1282 1.68074 45.1518 0.300835C53.5213 -0.749917 64.672 0.681245 77.9937 8.95778Z" fill="#B7ED62"/>
<path d="M44.8793 0.33583C34.0265 1.77435 27.923 7.35882 27.923 7.35882L30.0823 11.2538C37.9102 14.0382 45.1514 15.0591 51.5067 15.0936L51.5042 15.0916C40.8637 5.97669 45.1516 0.300842 45.1516 0.300842C45.0602 0.312208 44.9702 0.323796 44.8793 0.33583Z" fill="#ACDA63"/>
<path d="M51.5813 25.9289C47.336 20.1251 42.343 15.3409 36.7415 11.7091C29.7266 7.16112 21.748 4.4256 13.0275 3.57898L12.7033 6.92044C20.8584 7.71223 28.3115 10.2581 34.8558 14.4876C37.3649 16.1091 39.7449 17.9826 41.9846 20.0888C41.2998 27.0171 38.0847 33.1516 32.4173 38.3322C27.9573 42.4091 23.5738 44.3312 23.5301 44.3502L24.8577 47.4338C25.0542 47.3493 29.7241 45.3153 34.5939 40.8908C40.1276 35.863 43.6571 29.7644 44.9365 23.0882C46.287 24.5717 47.5773 26.1482 48.8026 27.8163C55.6709 37.1681 58.1573 46.2366 58.1818 46.3271L61.425 45.4598C61.3202 45.0689 58.788 35.7806 51.5813 25.9289Z" fill="#B7ED62"/>
<path d="M79.7658 64.0368C79.7658 73.5782 73.0706 81.5588 64.1191 83.53C62.7307 83.8393 61.2846 84 59.8026 84C48.7792 84 39.8419 75.0602 39.8419 64.0368C39.8419 53.0109 48.7792 44.0736 59.8026 44.0736C61.2846 44.0736 62.7305 44.2343 64.1191 44.5436C73.0708 46.5147 79.7658 54.4929 79.7658 64.0368Z" fill="#DD4545"/>
<path d="M79.7658 64.0368C79.7658 73.5782 73.0706 81.5588 64.1191 83.53C55.1675 81.5588 48.4723 73.5785 48.4723 64.0368C48.4723 54.4929 55.1675 46.515 64.1191 44.5438C73.0708 46.5147 79.7658 54.4929 79.7658 64.0368Z" fill="#F75959"/>
<path d="M44.1579 64.0368C44.1579 73.5782 37.4627 81.5588 28.5111 83.53C27.1228 83.8393 25.6767 84 24.1947 84C13.1713 84 4.23398 75.0602 4.23398 64.0368C4.23398 53.0109 13.1713 44.0736 24.1947 44.0736C25.6767 44.0736 27.1225 44.2343 28.5111 44.5436C37.4627 46.5147 44.1579 54.4929 44.1579 64.0368Z" fill="#DD4545"/>
<path d="M44.1579 64.0368C44.1579 73.5782 37.4627 81.5588 28.5111 83.53C19.5596 81.5588 12.8644 73.5785 12.8644 64.0368C12.8644 54.4929 19.5596 46.515 28.5111 44.5438C37.4627 46.5147 44.1579 54.4929 44.1579 64.0368Z" fill="#F75959"/>
<path d="M35.1825 65.2026C37.7559 65.2026 39.8421 63.1164 39.8421 60.5429C39.8421 57.9695 37.7559 55.8833 35.1825 55.8833C32.609 55.8833 30.5228 57.9695 30.5228 60.5429C30.5228 63.1164 32.609 65.2026 35.1825 65.2026Z" fill="#FFCCCC"/>
<path d="M72.0642 65.2026C74.6377 65.2026 76.7238 63.1164 76.7238 60.5429C76.7238 57.9695 74.6377 55.8833 72.0642 55.8833C69.4908 55.8833 67.4046 57.9695 67.4046 60.5429C67.4046 63.1164 69.4908 65.2026 72.0642 65.2026Z" fill="#FFCCCC"/>
</g>
<defs>
<clipPath id="clip0_12_203">
<rect width="84" height="84" fill="white"/>
</clipPath>
</defs>
</svg>
