<svg width="50" height="50" viewBox="0 0 81 81" fill="none" xmlns="http://www.w3.org/2000/svg">
<path d="M67.9894 24.0089L73.0582 23.49C73.0582 23.49 74.3112 27.578 75.368 29.8434C76.4184 32.1152 78.2852 34.2984 78.2852 34.2984C78.2852 34.2984 77.798 42.6452 76.583 51.2388C75.368 59.8324 72.1153 62.794 71.0838 64.3064C69.7296 66.2871 67.0085 68.9955 65.8758 71.1851C64.7431 73.3746 63.9457 74.3365 63.4584 74.4187C62.9712 74.501 57.9593 75.9312 55.042 76.5007C52.1248 77.0702 45.3537 78.6902 45.3537 78.6902C45.3537 78.6902 39.9558 77.5005 38.6585 77.336C37.3613 77.1715 35.659 77.741 35.254 77.4183C34.849 77.0955 31.204 74.4187 27.8817 72.9633C24.5595 71.5078 21.8827 71.1787 21.5599 70.5333C21.2372 69.8878 20.6677 67.9387 19.5349 66.401C18.4022 64.8633 17.3074 63.8318 17.3074 63.8318L21.9713 50.4351L67.9894 24.0089Z" fill="#8E4D2F"/>
<path d="M13.2574 32.9252C13.2574 32.9252 13.9345 30.761 9.46686 28.4576C6.65717 27.0084 4.04999 27.3755 4.04999 28.4576C4.04999 29.5397 5.94842 28.8626 8.11264 31.571C10.2769 34.2794 12.1753 37.9371 12.1753 37.9371L13.2574 32.9252Z" fill="#8E4D2F"/>
<path d="M17.2378 24.3064C17.2378 24.3064 18.1301 22.5851 18.0668 21.1043C18.0098 19.6236 16.8834 18.4971 17.415 17.839C17.9465 17.1872 19.9652 18.9085 20.4398 20.4462C21.022 22.351 20.9714 23.2369 20.9714 23.2369L17.8896 25.8441L17.2378 24.3064Z" fill="#8E4D2F"/>
<path d="M50.3972 10.0238C50.3972 10.0238 49.0936 9.07453 49.1506 6.16992C49.1885 4.27149 49.5682 2.79071 50.22 2.84766C50.8718 2.90461 51.049 4.21453 51.7641 6.34711C52.4728 8.47969 54.6117 10.7388 54.6117 10.7388L50.3972 10.0238Z" fill="#8E4D2F"/>
<path d="M66.7681 16.4278C66.7681 16.4278 66.5909 12.3335 67.0022 10.2009C67.3313 8.52396 68.3691 7.59372 68.9576 8.00505C69.3246 8.2645 68.7804 8.77708 69.1348 12.2196C69.3183 14.0041 70.2612 20.6423 70.2612 20.6423L66.7681 16.4278Z" fill="#8E4D2F"/>
<path d="M11.3527 53.8776C11.3527 53.8776 10.4034 53.1689 7.49882 52.2766C6.02437 51.8273 2.50593 51.3717 2.57554 52.2766C2.6325 53.0486 3.7589 53.0486 7.32164 54.8838C10.878 56.7253 13.7257 59.7501 13.7257 59.5729C13.7257 59.3957 11.3527 53.8776 11.3527 53.8776Z" fill="#8E4D2F"/>
<path d="M9.04924 43.5375C9.04924 44.7842 6.97362 47.9292 7.03057 48.7582C7.08752 49.5872 9.04924 52.9095 9.63776 53.8587C10.2326 54.8079 10.7072 57.0607 10.7072 57.0607C10.7072 57.0607 12.6626 59.8514 14.1497 61.212C15.6305 62.5789 17.2948 63.8192 17.2948 63.8192C17.2948 63.8192 19.4906 63.585 22.3953 64.0533C25.2999 64.5279 24.3064 65.1228 28.5209 65.3632C32.7354 65.6037 33.6593 64.9456 38.6965 64.2305C43.7337 63.5154 49.3974 62.5789 49.3974 62.5789C49.3974 62.5789 57.1493 58.2251 63.7496 51.6185C67.6603 47.7078 71.0079 40.2596 72.0141 38.6585C73.0203 37.0575 73.6088 34.5516 73.6657 33.9631C73.7227 33.3682 72.6216 28.9892 72.6216 27.0907C72.6216 25.1923 73.1405 24.2114 73.0519 23.4837C72.9633 22.7117 69.0842 17.0796 67.4135 15.2382C65.7556 13.4093 61.3639 9.48589 60.3514 9.89722L59.3452 10.3149C59.3452 10.3149 54.8965 8.47339 51.2768 8.47339C47.6571 8.47339 46.2333 9.11886 44.1007 9.18214C42.2023 9.23909 42.6769 8.58729 41.2531 8.65058C40.0697 8.7012 36.0957 10.8275 33.5644 12.1247C31.3242 13.2764 26.6604 14.9977 24.9392 16.4785C23.2179 17.9592 19.4843 21.4017 19.1236 21.9966C18.7692 22.5914 18.4718 23.8381 18.4718 23.8381C18.4718 23.8381 14.9724 23.3065 14.2573 23.9583C13.5485 24.6101 11.9412 31.0205 10.992 33.0328C10.0428 35.0452 7.31534 41.0379 7.72666 41.5125C8.15698 41.9935 9.04924 43.5375 9.04924 43.5375Z" fill="#532D1D"/>
<path d="M17.801 56.3963C17.801 56.3963 15.9089 54.1561 14.8078 51.6312C13.4979 48.6443 13.0359 43.9742 13.5928 40.8924C14.175 37.6967 14.4028 36.0703 16.0228 32.2102C17.2758 29.2233 19.0097 26.9831 21.2498 24.9265C22.0662 24.1798 23.2242 24.2937 25.6162 22.0029C28.0083 19.7121 32.767 15.1685 40.481 13.8143C48.195 12.4601 50.7009 13.1688 54.1498 13.7004C56.5924 14.0738 57.6998 15.6431 59.3705 16.2633C61.0348 16.8898 62.5535 17.1492 64.3823 18.668C65.6733 19.7374 66.7427 21.1106 67.0591 22.6737C67.3692 24.2367 66.6858 25.0847 66.6288 25.6163C66.5402 26.5085 68.5842 27.1603 68.2362 31.8938C67.9261 36.1653 65.3189 45.7524 52.8145 54.1941C40.3101 62.6358 25.2049 60.1362 25.2049 60.1362C25.2049 60.1362 24.7113 57.9024 22.6104 56.6241C19.8766 54.9788 17.801 56.3963 17.801 56.3963Z" fill="#FEFFFF"/>
<path d="M26.5022 25.8567C16.9341 33.5644 17.8327 42.4934 17.8327 42.4934C17.8327 42.4934 13.2574 43.8476 13.6561 45.8599C14.0294 47.79 18.4591 46.3472 18.4591 46.3472L18.978 48.5367C18.978 48.5367 14.0168 50.1124 15.2255 52.3336C16.0987 53.9409 23.8634 50.0935 23.8634 50.0935L60.4526 29.4954C60.4526 29.4954 67.7742 25.477 66.1795 23.123C64.9455 21.3005 62.3067 23.5406 62.3067 23.5406C62.3067 23.5406 61.5473 22.6547 60.383 21.9333C59.3198 21.2752 58.1998 20.6044 58.1998 20.6044C58.1998 20.6044 61.2816 18.0035 59.5097 16.6493C57.7378 15.2951 55.1306 19.0477 55.1306 19.0477C55.1306 19.0477 51.0933 17.7694 47.8596 17.877C44.6323 17.9782 41.1644 18.6237 41.1644 18.6237C41.1644 18.6237 40.9746 13.846 38.4877 14.4977C36.2412 15.0863 37.5194 19.6678 37.5194 19.6678C37.5194 19.6678 32.5519 20.9841 26.5022 25.8567Z" fill="#E0E0E0"/>
<path d="M30.2358 50.9351L27.192 52.2956C27.192 52.2956 25.0721 58.0732 27.2616 59.2186C29.4511 60.364 31.7356 52.5424 31.7356 52.5424L30.2358 50.9351Z" fill="#E0E0E0"/>
<path d="M47.9482 45.8282L45.1005 49.4606C45.1005 49.4606 46.8028 52.8082 47.5305 54.0611C48.2583 55.3141 48.9923 55.9343 50.1377 55.3141C51.2831 54.6876 51.3907 53.6498 50.6566 52.188C49.9226 50.7262 47.9482 45.8282 47.9482 45.8282Z" fill="#E1E1E1"/>
<path d="M32.419 25.9263C21.8383 32.5645 18.668 43.6388 22.4205 49.7897C26.1731 55.9406 42.9173 54.0802 50.7072 48.4545C59.168 42.3478 63.4015 35.0135 61.6296 28.5841C60.6614 25.072 57.3075 23.3761 53.7511 22.2307C47.9862 20.3829 39.5065 21.484 32.419 25.9263Z" fill="#B1B1B1"/>
<path d="M58.7819 63.8888C57.5986 64.5975 58.7819 66.496 59.6172 68.5779C60.4526 70.6599 61.0411 72.6975 62.3257 71.9129C63.5343 71.1725 62.1169 68.2679 61.4904 66.9136C60.8639 65.5594 60.0792 63.1168 58.7819 63.8888Z" fill="#532D1D"/>
<path d="M67.7426 52.8462C66.1732 52.8462 66.3883 54.6181 65.8694 57.6366C65.3505 60.6614 64.9455 62.003 66.5972 62.2181C67.6793 62.3637 67.6793 60.1109 68.1602 57.1113C68.5083 54.9471 68.9955 52.8462 67.7426 52.8462Z" fill="#532D1D"/>
<path d="M73.3682 45.841C72.3304 45.8979 72.5582 48.3279 72.5899 51.5489C72.6152 53.9473 72.2545 56.9405 73.691 56.8076C74.8807 56.6937 74.6718 52.9538 74.7225 50.6567C74.8047 47.3154 75.0136 45.7524 73.3682 45.841Z" fill="#532D1D"/>
<path d="M44.6133 69.0968C44.0121 69.9131 44.9234 71.2547 47.1129 72.8493C49.1189 74.3111 50.8149 75.697 51.5932 74.8301C52.7259 73.5708 50.9414 72.5013 48.986 70.8686C47.0117 69.217 45.5372 67.8438 44.6133 69.0968Z" fill="#532D1D"/>
<path d="M29.0904 69.4132C28.3753 70.5585 30.2484 71.8685 32.4253 73.6846C34.2984 75.2477 36.2538 77.1967 37.3233 75.9754C38.0257 75.1717 36.2981 73.4189 33.9883 71.4951C32.1089 69.9321 30.2547 67.5337 29.0904 69.4132Z" fill="#532D1D"/>
</svg>
