<svg width="50" height="50" viewBox="0 0 81 81" fill="none" xmlns="http://www.w3.org/2000/svg">
<g clip-path="url(#clip0_12_690)">
<path d="M57.0415 22.6414C52.0885 18.2826 45.5346 10.9843 44.5436 2.24413C44.3994 0.966154 43.3224 0 42.0367 0H40.4877H39.9561H38.4071C37.1292 0 36.0448 0.953181 35.9026 2.22293C34.839 11.696 27.239 19.475 22.2122 23.6591C20.6455 24.6406 19.175 25.7468 17.8108 26.9587C17.7672 26.987 17.7393 27.0047 17.7393 27.0047H17.7594C11.3702 32.7054 7.37677 40.7748 7.37677 49.7295C7.37677 66.9999 22.2069 81.0002 40.5007 81.0002C58.7945 81.0002 73.6241 66.9997 73.6241 49.7295C73.6239 38.1489 66.9507 28.0463 57.0415 22.6414Z" fill="#8F687A"/>
<path d="M58.8286 28.155H58.8481C58.8481 28.155 58.8215 28.1384 58.7802 28.1124C57.488 26.997 56.0968 25.9794 54.6133 25.0757C49.6632 21.07 42.0762 13.4842 41.5613 4.28798C41.5299 3.73173 41.0569 3.30237 40.4994 3.30237C39.9425 3.30237 39.4695 3.73173 39.4382 4.28798C38.9238 13.4842 31.3362 21.07 26.3868 25.0757C24.9033 25.9792 23.5114 26.9968 22.2198 28.1124C22.1785 28.1384 22.152 28.155 22.152 28.155H22.1714C16.1229 33.4015 12.3427 40.8272 12.3427 49.0679C12.3427 57.8123 15.8193 65.5722 22.3415 70.833C32.8605 79.3164 48.0367 79.5184 58.4241 70.8749C64.83 65.5446 68.6585 57.6369 68.6585 49.0679C68.6585 40.8272 64.8777 33.4015 58.8286 28.155Z" fill="#FFE388"/>
<path d="M40.5006 70.5755C52.3108 70.5755 61.8848 61.645 61.8848 50.6287C61.8848 39.6125 52.3108 30.682 40.5006 30.682C28.6905 30.682 19.1165 39.6125 19.1165 50.6287C19.1165 61.645 28.6905 70.5755 40.5006 70.5755Z" fill="#F97762"/>
<path d="M42.1601 43.028C43.2331 43.028 44.103 42.1582 44.103 41.0851C44.103 40.0121 43.2331 39.1422 42.1601 39.1422C41.087 39.1422 40.2172 40.0121 40.2172 41.0851C40.2172 42.1582 41.087 43.028 42.1601 43.028Z" fill="#D84B35"/>
<path d="M46.1817 43.028C47.2548 43.028 48.1246 42.1582 48.1246 41.0851C48.1246 40.0121 47.2548 39.1422 46.1817 39.1422C45.1087 39.1422 44.2388 40.0121 44.2388 41.0851C44.2388 42.1582 45.1087 43.028 46.1817 43.028Z" fill="#D84B35"/>
<path d="M44.1031 50.9256C45.1762 50.9256 46.046 50.0557 46.046 48.9827C46.046 47.9097 45.1762 47.0398 44.1031 47.0398C43.0301 47.0398 42.1602 47.9097 42.1602 48.9827C42.1602 50.0557 43.0301 50.9256 44.1031 50.9256Z" fill="#D84B35"/>
<path d="M48.4732 46.9376C49.5462 46.9376 50.4161 46.0677 50.4161 44.9947C50.4161 43.9216 49.5462 43.0518 48.4732 43.0518C47.4001 43.0518 46.5303 43.9216 46.5303 44.9947C46.5303 46.0677 47.4001 46.9376 48.4732 46.9376Z" fill="#D84B35"/>
<path d="M52.359 46.7014C53.432 46.7014 54.3019 45.8315 54.3019 44.7585C54.3019 43.6854 53.432 42.8156 52.359 42.8156C51.2859 42.8156 50.4161 43.6854 50.4161 44.7585C50.4161 45.8315 51.2859 46.7014 52.359 46.7014Z" fill="#D84B35"/>
<path d="M48.4732 39.04C49.5462 39.04 50.4161 38.1701 50.4161 37.0971C50.4161 36.024 49.5462 35.1542 48.4732 35.1542C47.4001 35.1542 46.5303 36.024 46.5303 37.0971C46.5303 38.1701 47.4001 39.04 48.4732 39.04Z" fill="#D84B35"/>
<path d="M40.9436 46.9495C42.0167 46.9495 42.8865 46.0797 42.8865 45.0066C42.8865 43.9336 42.0167 43.0637 40.9436 43.0637C39.8706 43.0637 39.0007 43.9336 39.0007 45.0066C39.0007 46.0797 39.8706 46.9495 40.9436 46.9495Z" fill="#D84B35"/>
<path d="M40.2171 54.8511C41.2902 54.8511 42.16 53.9813 42.16 52.9082C42.16 51.8352 41.2902 50.9653 40.2171 50.9653C39.1441 50.9653 38.2742 51.8352 38.2742 52.9082C38.2742 53.9813 39.1441 54.8511 40.2171 54.8511Z" fill="#D84B35"/>
<path d="M40.9436 58.8375C42.0167 58.8375 42.8865 57.9676 42.8865 56.8946C42.8865 55.8215 42.0167 54.9517 40.9436 54.9517C39.8706 54.9517 39.0007 55.8215 39.0007 56.8946C39.0007 57.9676 39.8706 58.8375 40.9436 58.8375Z" fill="#D84B35"/>
<path d="M48.4732 54.8511C49.5462 54.8511 50.4161 53.9813 50.4161 52.9082C50.4161 51.8352 49.5462 50.9653 48.4732 50.9653C47.4001 50.9653 46.5303 51.8352 46.5303 52.9082C46.5303 53.9813 47.4001 54.8511 48.4732 54.8511Z" fill="#D84B35"/>
<path d="M46.4062 62.7232C47.4793 62.7232 48.3491 61.8533 48.3491 60.7803C48.3491 59.7073 47.4793 58.8374 46.4062 58.8374C45.3332 58.8374 44.4633 59.7073 44.4633 60.7803C44.4633 61.8533 45.3332 62.7232 46.4062 62.7232Z" fill="#D84B35"/>
<path d="M48.1249 50.9256C49.1979 50.9256 50.0678 50.0557 50.0678 48.9827C50.0678 47.9097 49.1979 47.0398 48.1249 47.0398C47.0518 47.0398 46.1819 47.9097 46.1819 48.9827C46.1819 50.0557 47.0518 50.9256 48.1249 50.9256Z" fill="#D84B35"/>
<path d="M46.1817 35.7053C47.2548 35.7053 48.1246 34.8354 48.1246 33.7624C48.1246 32.6893 47.2548 31.8195 46.1817 31.8195C45.1087 31.8195 44.2388 32.6893 44.2388 33.7624C44.2388 34.8354 45.1087 35.7053 46.1817 35.7053Z" fill="#D84B35"/>
<path d="M44.8264 58.8375C45.8994 58.8375 46.7693 57.9676 46.7693 56.8946C46.7693 55.8215 45.8994 54.9517 44.8264 54.9517C43.7534 54.9517 42.8835 55.8215 42.8835 56.8946C42.8835 57.9676 43.7534 58.8375 44.8264 58.8375Z" fill="#D84B35"/>
<path d="M52.359 54.8511C53.432 54.8511 54.3019 53.9813 54.3019 52.9082C54.3019 51.8352 53.432 50.9653 52.359 50.9653C51.2859 50.9653 50.4161 51.8352 50.4161 52.9082C50.4161 53.9813 51.2859 54.8511 52.359 54.8511Z" fill="#D84B35"/>
<path d="M52.359 58.8375C53.432 58.8375 54.3019 57.9676 54.3019 56.8946C54.3019 55.8215 53.432 54.9517 52.359 54.9517C51.2859 54.9517 50.4161 55.8215 50.4161 56.8946C50.4161 57.9676 51.2859 58.8375 52.359 58.8375Z" fill="#D84B35"/>
<path d="M46.7665 69.4379C47.8395 69.4379 48.7094 68.5681 48.7094 67.495C48.7094 66.422 47.8395 65.5521 46.7665 65.5521C45.6934 65.5521 44.8235 66.422 44.8235 67.495C44.8235 68.5681 45.6934 69.4379 46.7665 69.4379Z" fill="#D84B35"/>
<path d="M50.4161 62.7232C51.4892 62.7232 52.359 61.8533 52.359 60.7803C52.359 59.7073 51.4892 58.8374 50.4161 58.8374C49.3431 58.8374 48.4732 59.7073 48.4732 60.7803C48.4732 61.8533 49.3431 62.7232 50.4161 62.7232Z" fill="#D84B35"/>
<path d="M44.4692 66.1485C45.5423 66.1485 46.4121 65.2786 46.4121 64.2056C46.4121 63.1326 45.5423 62.2627 44.4692 62.2627C43.3962 62.2627 42.5263 63.1326 42.5263 64.2056C42.5263 65.2786 43.3962 66.1485 44.4692 66.1485Z" fill="#D84B35"/>
<path d="M58.1879 56.8945C59.2609 56.8945 60.1308 56.0246 60.1308 54.9516C60.1308 53.8785 59.2609 53.0087 58.1879 53.0087C57.1149 53.0087 56.245 53.8785 56.245 54.9516C56.245 56.0246 57.1149 56.8945 58.1879 56.8945Z" fill="#D84B35"/>
<path d="M58.1879 49.04C59.2609 49.04 60.1308 48.1701 60.1308 47.0971C60.1308 46.024 59.2609 45.1542 58.1879 45.1542C57.1149 45.1542 56.245 46.024 56.245 47.0971C56.245 48.1701 57.1149 49.04 58.1879 49.04Z" fill="#D84B35"/>
<path d="M56.245 61.1524C57.318 61.1524 58.1879 60.2825 58.1879 59.2095C58.1879 58.1365 57.318 57.2666 56.245 57.2666C55.1719 57.2666 54.3021 58.1365 54.3021 59.2095C54.3021 60.2825 55.1719 61.1524 56.245 61.1524Z" fill="#D84B35"/>
<path d="M57.4261 44.3155C58.4992 44.3155 59.369 43.4456 59.369 42.3726C59.369 41.2996 58.4992 40.4297 57.4261 40.4297C56.3531 40.4297 55.4832 41.2996 55.4832 42.3726C55.4832 43.4456 56.3531 44.3155 57.4261 44.3155Z" fill="#D84B35"/>
<path d="M52.359 41.5694C53.432 41.5694 54.3019 40.6995 54.3019 39.6265C54.3019 38.5535 53.432 37.6836 52.359 37.6836C51.2859 37.6836 50.4161 38.5535 50.4161 39.6265C50.4161 40.6995 51.2859 41.5694 52.359 41.5694Z" fill="#D84B35"/>
<path d="M52.359 67.0522C53.432 67.0522 54.3019 66.1823 54.3019 65.1093C54.3019 64.0363 53.432 63.1664 52.359 63.1664C51.2859 63.1664 50.4161 64.0363 50.4161 65.1093C50.4161 66.1823 51.2859 67.0522 52.359 67.0522Z" fill="#D84B35"/>
<path d="M54.3021 50.9256C55.3751 50.9256 56.245 50.0557 56.245 48.9827C56.245 47.9097 55.3751 47.0398 54.3021 47.0398C53.2291 47.0398 52.3592 47.9097 52.3592 48.9827C52.3592 50.0557 53.2291 50.9256 54.3021 50.9256Z" fill="#D84B35"/>
<path d="M29.0438 47.1915C30.1168 47.1915 30.9867 46.3216 30.9867 45.2486C30.9867 44.1755 30.1168 43.3057 29.0438 43.3057C27.9708 43.3057 27.1009 44.1755 27.1009 45.2486C27.1009 46.3216 27.9708 47.1915 29.0438 47.1915Z" fill="#D84B35"/>
<path d="M33.0638 47.1915C34.1368 47.1915 35.0067 46.3216 35.0067 45.2486C35.0067 44.1755 34.1368 43.3057 33.0638 43.3057C31.9907 43.3057 31.1208 44.1755 31.1208 45.2486C31.1208 46.3216 31.9907 47.1915 33.0638 47.1915Z" fill="#D84B35"/>
<path d="M30.9867 39.2899C32.0598 39.2899 32.9296 38.42 32.9296 37.347C32.9296 36.2739 32.0598 35.4041 30.9867 35.4041C29.9137 35.4041 29.0438 36.2739 29.0438 37.347C29.0438 38.42 29.9137 39.2899 30.9867 39.2899Z" fill="#D84B35"/>
<path d="M35.3563 43.2791C36.4293 43.2791 37.2992 42.4093 37.2992 41.3362C37.2992 40.2632 36.4293 39.3933 35.3563 39.3933C34.2833 39.3933 33.4134 40.2632 33.4134 41.3362C33.4134 42.4093 34.2833 43.2791 35.3563 43.2791Z" fill="#D84B35"/>
<path d="M23.2149 45.4613C24.288 45.4613 25.1578 44.5914 25.1578 43.5183C25.1578 42.4453 24.288 41.5754 23.2149 41.5754C22.1419 41.5754 21.272 42.4453 21.272 43.5183C21.272 44.5914 22.1419 45.4613 23.2149 45.4613Z" fill="#D84B35"/>
<path d="M35.3563 51.1778C36.4293 51.1778 37.2992 50.3079 37.2992 49.2349C37.2992 48.1619 36.4293 47.292 35.3563 47.292C34.2833 47.292 33.4134 48.1619 33.4134 49.2349C33.4134 50.3079 34.2833 51.1778 35.3563 51.1778Z" fill="#D84B35"/>
<path d="M27.8272 43.2668C28.9002 43.2668 29.7701 42.3969 29.7701 41.3239C29.7701 40.2508 28.9002 39.381 27.8272 39.381C26.7541 39.381 25.8843 40.2508 25.8843 41.3239C25.8843 42.3969 26.7541 43.2668 27.8272 43.2668Z" fill="#D84B35"/>
<path d="M25.1573 56.8945C26.2304 56.8945 27.1002 56.0246 27.1002 54.9516C27.1002 53.8785 26.2304 53.0087 25.1573 53.0087C24.0843 53.0087 23.2144 53.8785 23.2144 54.9516C23.2144 56.0246 24.0843 56.8945 25.1573 56.8945Z" fill="#D84B35"/>
<path d="M25.1573 63.0953C26.2304 63.0953 27.1002 62.2254 27.1002 61.1524C27.1002 60.0793 26.2304 59.2095 25.1573 59.2095C24.0843 59.2095 23.2144 60.0793 23.2144 61.1524C23.2144 62.2254 24.0843 63.0953 25.1573 63.0953Z" fill="#D84B35"/>
<path d="M37.2998 35.3686C38.3729 35.3686 39.2427 34.4987 39.2427 33.4257C39.2427 32.3527 38.3729 31.4828 37.2998 31.4828C36.2268 31.4828 35.3569 32.3527 35.3569 33.4257C35.3569 34.4987 36.2268 35.3686 37.2998 35.3686Z" fill="#D84B35"/>
<path d="M36.9513 56.8945C38.0244 56.8945 38.8942 56.0246 38.8942 54.9516C38.8942 53.8785 38.0244 53.0087 36.9513 53.0087C35.8783 53.0087 35.0084 53.8785 35.0084 54.9516C35.0084 56.0246 35.8783 56.8945 36.9513 56.8945Z" fill="#D84B35"/>
<path d="M35.0084 39.2899C36.0814 39.2899 36.9513 38.42 36.9513 37.347C36.9513 36.2739 36.0814 35.4041 35.0084 35.4041C33.9354 35.4041 33.0655 36.2739 33.0655 37.347C33.0655 38.42 33.9354 39.2899 35.0084 39.2899Z" fill="#D84B35"/>
<path d="M33.0638 54.5145C34.1368 54.5145 35.0067 53.6446 35.0067 52.5716C35.0067 51.4985 34.1368 50.6287 33.0638 50.6287C31.9907 50.6287 31.1208 51.4985 31.1208 52.5716C31.1208 53.6446 31.9907 54.5145 33.0638 54.5145Z" fill="#D84B35"/>
<path d="M30.9867 58.8375C32.0598 58.8375 32.9296 57.9676 32.9296 56.8946C32.9296 55.8215 32.0598 54.9517 30.9867 54.9517C29.9137 54.9517 29.0438 55.8215 29.0438 56.8946C29.0438 57.9676 29.9137 58.8375 30.9867 58.8375Z" fill="#D84B35"/>
<path d="M39.2428 39.04C40.3158 39.04 41.1857 38.1701 41.1857 37.0971C41.1857 36.024 40.3158 35.1542 39.2428 35.1542C38.1697 35.1542 37.2999 36.024 37.2999 37.0971C37.2999 38.1701 38.1697 39.04 39.2428 39.04Z" fill="#D84B35"/>
<path d="M35.3563 62.2628C36.4293 62.2628 37.2992 61.3929 37.2992 60.3199C37.2992 59.2468 36.4293 58.377 35.3563 58.377C34.2833 58.377 33.4134 59.2468 33.4134 60.3199C33.4134 61.3929 34.2833 62.2628 35.3563 62.2628Z" fill="#D84B35"/>
<path d="M27.0996 51.1778C28.1727 51.1778 29.0426 50.3079 29.0426 49.2349C29.0426 48.1619 28.1727 47.292 27.0996 47.292C26.0266 47.292 25.1567 48.1619 25.1567 49.2349C25.1567 50.3079 26.0266 51.1778 27.0996 51.1778Z" fill="#D84B35"/>
<path d="M28.5476 54.9516C29.6207 54.9516 30.4906 54.0817 30.4906 53.0087C30.4906 51.9357 29.6207 51.0658 28.5476 51.0658C27.4746 51.0658 26.6047 51.9357 26.6047 53.0087C26.6047 54.0817 27.4746 54.9516 28.5476 54.9516Z" fill="#D84B35"/>
<path d="M21.272 51.1778C22.345 51.1778 23.2149 50.3079 23.2149 49.2349C23.2149 48.1619 22.345 47.292 21.272 47.292C20.199 47.292 19.3291 48.1619 19.3291 49.2349C19.3291 50.3079 20.199 51.1778 21.272 51.1778Z" fill="#D84B35"/>
<path d="M39.2428 70.0345C40.3158 70.0345 41.1857 69.1646 41.1857 68.0916C41.1857 67.0186 40.3158 66.1487 39.2428 66.1487C38.1697 66.1487 37.2999 67.0186 37.2999 68.0916C37.2999 69.1646 38.1697 70.0345 39.2428 70.0345Z" fill="#D84B35"/>
<path d="M31.471 64.2056C32.544 64.2056 33.4139 63.3358 33.4139 62.2627C33.4139 61.1897 32.544 60.3198 31.471 60.3198C30.3979 60.3198 29.5281 61.1897 29.5281 62.2627C29.5281 63.3358 30.3979 64.2056 31.471 64.2056Z" fill="#D84B35"/>
<path d="M31.1213 68.0914C32.1944 68.0914 33.0642 67.2215 33.0642 66.1485C33.0642 65.0754 32.1944 64.2056 31.1213 64.2056C30.0483 64.2056 29.1784 65.0754 29.1784 66.1485C29.1784 67.2215 30.0483 68.0914 31.1213 68.0914Z" fill="#D84B35"/>
<path d="M39.2428 62.7232C40.3158 62.7232 41.1857 61.8533 41.1857 60.7803C41.1857 59.7073 40.3158 58.8374 39.2428 58.8374C38.1697 58.8374 37.2999 59.7073 37.2999 60.7803C37.2999 61.8533 38.1697 62.7232 39.2428 62.7232Z" fill="#D84B35"/>
<path d="M35.3563 68.0914C36.4293 68.0914 37.2992 67.2215 37.2992 66.1485C37.2992 65.0754 36.4293 64.2056 35.3563 64.2056C34.2833 64.2056 33.4134 65.0754 33.4134 66.1485C33.4134 67.2215 34.2833 68.0914 35.3563 68.0914Z" fill="#D84B35"/>
<path opacity="0.1" d="M31.471 20.3672C22.8843 27.7805 14.18 33.9874 12.8193 45.5894C11.4285 57.4497 17.5172 69.1103 28.2347 74.3781C35.4538 77.9261 46.0112 79.4403 60.9949 74.2877C61.5814 73.8508 62.1571 73.4013 62.7105 72.9283C49.0013 76.8897 39.1932 75.4399 32.3686 72.2716C21.6511 67.296 15.5624 56.2828 16.9532 45.0799C18.3139 34.1209 27.0181 28.2583 35.6048 21.256C43.2018 15.0611 44.1922 6.26885 43.9636 0.905245C43.4983 0.352005 42.8074 0 42.0366 0H40.4877H39.9561H39.8556C39.8953 5.72542 38.5636 14.2431 31.471 20.3672Z" fill="black"/>
<path opacity="0.2" d="M28.2347 74.3776C17.5172 69.1098 11.4285 57.4497 12.8193 45.589C14.18 33.9874 22.8842 27.7807 31.4709 20.3674C38.5636 14.2431 39.8953 5.72542 39.8551 0H38.4065C37.1285 0 36.0441 0.953181 35.9019 2.22293C34.8383 11.696 27.2383 19.475 22.2116 23.6591C20.6449 24.6406 19.1743 25.7468 17.8102 26.9587C17.7665 26.987 17.7386 27.0047 17.7386 27.0047H17.7587C11.3695 32.7054 7.3761 40.7748 7.3761 49.7295C7.3761 66.9999 22.2062 81.0002 40.5 81.0002C48.2398 81.0002 55.3543 78.4868 60.9936 74.2866C46.0105 79.4398 35.4537 77.9262 28.2347 74.3776Z" fill="black"/>
<g opacity="0.3">
<path d="M62.121 35.844C64.2949 35.844 66.0571 34.0818 66.0571 31.9079C66.0571 29.7341 64.2949 27.9718 62.121 27.9718C59.9471 27.9718 58.1849 29.7341 58.1849 31.9079C58.1849 34.0818 59.9471 35.844 62.121 35.844Z" fill="white"/>
<path d="M66.7923 42.3391C67.8794 42.3391 68.7607 41.4578 68.7607 40.3707C68.7607 39.2836 67.8794 38.4023 66.7923 38.4023C65.7052 38.4023 64.8239 39.2836 64.8239 40.3707C64.8239 41.4578 65.7052 42.3391 66.7923 42.3391Z" fill="white"/>
</g>
</g>
<defs>
<clipPath id="clip0_12_690">
<rect width="81" height="81" fill="white"/>
</clipPath>
</defs>
</svg>
