<svg width="74" height="74" viewBox="0 0 74 74" fill="none" xmlns="http://www.w3.org/2000/svg">
<path d="M2.46279 39.8328C3.22591 51.2219 16.0314 69.2594 37.7458 70.7162C52.5862 71.7164 66.9237 64.7326 70.0283 48.2792C72.8842 33.1555 67.0914 18.9162 62.4837 12.5395C55.2919 2.58998 38.4279 -3.06986 20.4078 7.53873C4.20294 17.0951 1.8731 31.0048 2.46279 39.8328Z" fill="#95683D"/>
<path d="M6.91436 45.9841C14.7711 60.4372 37.8036 61.4085 50.3084 51.4936C64.0389 40.6075 67.2359 24.7207 59.7781 13.6207C51.1178 0.734264 31.1667 2.5727 18.974 11.0654C7.01264 19.4019 0.982797 35.0749 6.91436 45.9841Z" fill="#B7D118"/>
<path d="M22.6625 28.6403C22.2058 30.0163 24.0211 31.1609 23.7436 33.8319C23.3389 37.6764 20.6969 39.8906 21.4484 40.6422C22.3908 41.5845 25.2004 39.8155 28.8022 39.1564C32.849 38.4164 33.5254 40.2606 34.6008 39.6941C35.8842 39.0177 35.2251 36.0288 37.8383 33.6931C40.3994 31.398 42.8969 31.3344 43.3709 30.5886C43.845 29.8486 42.9662 27.6864 43.5733 25.0559C44.1803 22.4255 46.3598 20.0378 45.6198 19.0261C44.8798 18.0144 41.8447 20.9166 38.3817 20.7374C36.0923 20.6217 34.8725 19.5233 33.9301 19.9974C32.9878 20.4714 32.5658 23.4083 29.8833 25.7324C26.3683 28.7791 22.9978 27.6286 22.6625 28.6403Z" fill="#E5DDA0"/>
<path d="M46.1055 8.19207C44.1688 7.32488 42.8159 11.5336 42.0644 13.0425C41.3128 14.5514 39.7692 17.5114 41.3648 18.3208C42.7234 19.0146 44.7584 14.4416 45.458 13.0425C46.1633 11.6435 47.7589 8.93207 46.1055 8.19207Z" fill="#7FB240"/>
<path d="M48.2099 15.8463C48.8805 16.6268 50.2622 15.7249 51.3664 14.7826C52.4417 13.8692 52.7944 12.7071 52.303 12.0712C51.5514 11.0999 50.5802 11.3196 49.2331 12.6088C48.2445 13.5628 47.2386 14.7132 48.2099 15.8463Z" fill="#7FB240"/>
<path d="M47.1866 20.8009C47.5566 22.3734 51.5919 21.3906 54.5345 20.8009C58.038 20.1014 60.5355 19.7661 60.1712 17.7831C59.7666 15.5978 56.2805 16.7945 53.6558 17.4536C49.1811 18.5694 46.7298 18.8527 47.1866 20.8009Z" fill="#7FB240"/>
<path d="M45.643 26.4377C45.9263 28.4669 51.0831 27.513 55.448 27.4609C59.2752 27.4147 61.842 27.0967 61.6455 25.4144C61.4374 23.6569 58.1767 23.998 54.5172 24.2697C50.8461 24.5356 45.3134 24.1252 45.643 26.4377Z" fill="#7FB240"/>
<path d="M47.1114 31.1899C46.5044 32.8664 47.9902 33.2942 51.4762 34.8494C54.0547 35.9941 56.188 37.3353 56.8817 35.5663C57.5061 33.9764 55.2109 33.0746 53.2222 32.1496C49.9905 30.6349 47.73 29.4902 47.1114 31.1899Z" fill="#7FB240"/>
<path d="M42.7234 33.1035C40.9833 35.3408 45.2961 37.5608 48.4238 39.9832C51.5688 42.4229 54.02 44.1804 55.0259 42.6483C56.0608 41.0643 53.0025 39.2316 50.3084 37.2891C47.6144 35.3524 43.6773 31.8721 42.7234 33.1035Z" fill="#7FB240"/>
<path d="M38.4106 38.0002C37.3064 38.8384 37.7342 39.8155 39.3819 41.9256C41.1047 44.1341 42.417 45.8048 42.9547 46.4523C43.4924 47.0998 45.3192 49.6262 46.7125 48.6203C48.2156 47.5334 46.3309 45.273 45.7933 44.5156C45.2556 43.7641 41.7464 39.405 40.8272 38.4337C39.908 37.4625 39.168 37.422 38.4106 38.0002Z" fill="#7FB240"/>
<path d="M33.4445 42.1915C32.3981 42.5673 32.1784 43.7525 32.878 47.1461C33.5023 50.1697 33.9301 50.9732 34.3637 52.3723C34.5256 52.8984 35.1673 55.2629 36.8381 54.7831C38.2141 54.3842 37.2197 51.3779 36.9537 50.0598C36.5606 48.1289 34.7916 41.7059 33.4445 42.1915Z" fill="#7FB240"/>
<path d="M29.0277 41.0064C27.4667 40.6306 26.9985 43.4577 26.7152 46.7934C26.5013 49.3256 26.1891 52.118 27.8888 52.1642C29.9064 52.2163 29.8197 49.1406 29.9874 46.8166C30.2013 43.9086 30.34 41.3244 29.0277 41.0064Z" fill="#7FB240"/>
<path d="M19.0781 54.2918C21.0438 55.0838 22.1249 51.829 22.9516 49.7651C24.0269 47.071 24.8941 45.2268 25.2178 44.4174C25.5069 43.7005 25.3392 42.3419 24.102 41.9083C22.8649 41.4747 22.1017 43.6543 21.1825 45.643C20.2633 47.6318 17.101 53.4997 19.0781 54.2918Z" fill="#7FB240"/>
<path d="M13.2969 50.5051C14.7711 51.5688 15.6383 49.9905 17.3091 47.8861C18.9798 45.7876 21.3444 43.2496 19.8991 42.2668C18.6156 41.3938 16.9102 43.8624 15.5053 45.591C14.1005 47.3138 11.6839 49.3372 13.2969 50.5051Z" fill="#7FB240"/>
<path d="M8.08216 43.3304C8.60825 44.874 10.8687 43.9721 13.4529 43.0587C16.0372 42.1453 20.7258 40.9428 20.0262 39.1332C19.5984 38.029 16.1123 39.1968 12.8806 40.1161C11.2734 40.567 7.37685 41.255 8.08216 43.3304Z" fill="#7FB240"/>
<path d="M8.05905 34.3811C8.20936 36.3178 11.2387 35.9131 14.6844 36.075C20.6737 36.3525 22.067 36.1155 22.1017 34.7684C22.1537 32.7219 18.4422 33.1323 14.4936 32.8317C11.337 32.5889 7.86826 31.953 8.05905 34.3811Z" fill="#7FB240"/>
<path d="M11.4237 25.4375C10.8456 26.8018 11.84 27.7789 15.1526 28.9351C18.7833 30.2012 20.2864 30.8429 20.9686 29.4034C21.6508 27.9639 18.9972 27.1025 16.2742 25.9751C15.0255 25.4606 12.1117 23.8187 11.4237 25.4375Z" fill="#7FB240"/>
<path d="M13.9502 19.0839C12.7881 20.6738 14.6555 21.963 17.6675 23.8188C20.6564 25.6572 23.4256 27.7327 24.5877 25.9868C25.6225 24.4316 21.2923 21.963 19.4077 20.8068C17.523 19.6505 14.8983 17.7774 13.9502 19.0839Z" fill="#7FB240"/>
<path d="M21.9687 12.1001C20.9859 12.7361 21.275 14.4126 23.4198 17.6328C25.5647 20.8529 26.8655 23.3157 28.4842 22.6046C29.9469 21.9629 27.7269 18.1126 26.4897 16.0314C25.2814 13.9848 23.5759 11.0595 21.9687 12.1001Z" fill="#7FB240"/>
<path d="M30.3689 8.46951C29.0912 8.67185 28.8542 10.6259 29.4786 13.5917C30.1492 16.7887 30.8487 19.714 32.3056 19.3267C33.7683 18.9394 33.3173 15.8926 32.8259 12.5915C32.5484 10.7531 31.9992 8.21513 30.3689 8.46951Z" fill="#7FB240"/>
<path d="M39.2605 6.64268C37.7342 6.42877 37.1445 7.77581 36.5895 11.1694C36.0288 14.563 35.1731 17.5403 36.7514 18.2341C38.4222 18.9683 39.3703 13.5571 39.8617 11.2503C40.2317 9.49862 41.0064 6.89127 39.2605 6.64268Z" fill="#7FB240"/>
<path d="M37.9423 14.5861C36.3988 14.1988 35.6241 15.3839 35.4044 16.9217C35.1847 18.4595 35.7281 19.2458 36.5895 19.4077C37.6244 19.5984 38.3586 18.9972 38.7459 17.6213C39.1391 16.2453 38.9598 14.8463 37.9423 14.5861Z" fill="#303030"/>
<path d="M40.8966 18.8643C41.7522 19.3094 42.7234 18.8122 43.1628 17.7716C43.4172 17.1646 43.5848 15.7366 42.6194 15.3146C41.5556 14.8521 40.7636 15.3666 40.3531 16.4593C40.0236 17.338 40.0525 18.4249 40.8966 18.8643Z" fill="#303030"/>
<path d="M47.6086 16.4071C48.3602 17.0373 49.3545 16.6789 49.8748 16.1643C50.2853 15.7539 50.6091 14.8 49.9558 14.0889C49.3025 13.3778 48.2388 13.6553 47.7763 14.1409C47.308 14.6381 46.7588 15.7018 47.6086 16.4071Z" fill="#303030"/>
<path d="M50.9906 19.7893C51.2161 20.8588 50.3605 21.645 49.0019 21.8879C47.6375 22.1307 46.9553 21.6682 46.7645 20.8241C46.5738 19.98 47.1981 19.1071 48.1809 18.8064C49.1638 18.5058 50.7189 18.5058 50.9906 19.7893Z" fill="#303030"/>
<path d="M45.4927 26.4376C45.5447 27.6921 46.857 27.9985 47.8398 27.9118C49.0944 27.802 50.0772 27.2296 50.0483 26.2468C50.0194 25.264 49.1059 24.6628 47.7011 24.6917C46.4986 24.7206 45.4291 25.0732 45.4927 26.4376Z" fill="#303030"/>
<path d="M46.6258 30.9181C46.2037 31.7968 46.6778 32.6351 47.6895 33.0745C48.7012 33.5081 50.0598 33.2132 50.2506 32.3634C50.4414 31.5193 49.9789 30.5654 48.8342 30.2648C47.6895 29.9642 46.9784 30.1839 46.6258 30.9181Z" fill="#303030"/>
<path d="M41.9314 32.8548C41.2145 33.7162 41.5787 34.7395 42.6945 35.7455C43.8103 36.7514 45.1342 36.8497 45.8048 36.075C46.6489 35.0922 45.695 33.7278 44.7411 32.9647C43.7872 32.2016 42.4806 32.2016 41.9314 32.8548Z" fill="#303030"/>
<path d="M37.2139 36.7283C36.1386 37.6533 36.8035 38.9946 37.5955 39.9716C38.3875 40.9544 39.6941 41.336 40.515 40.6249C41.336 39.9138 41.2261 38.5263 39.9716 37.2949C38.9599 36.3121 37.977 36.075 37.2139 36.7283Z" fill="#303030"/>
<path d="M32.8491 40.7636C31.6466 41.1105 31.7564 42.3708 32.005 43.3825C32.2478 44.3942 33.2133 45.2267 34.1036 44.9087C35.0286 44.5792 35.2772 43.8161 35.0055 42.5095C34.7338 41.203 33.6989 40.5208 32.8491 40.7636Z" fill="#303030"/>
<path d="M29.3051 39.8906C28.3166 39.7981 27.698 40.5208 27.3973 41.7464C27.0967 42.972 27.698 44.0647 28.7039 44.1745C29.7098 44.2844 30.4787 43.3305 30.5597 42.0181C30.6406 40.7058 30.1781 39.9716 29.3051 39.8906Z" fill="#303030"/>
<path d="M24.9981 41.3128C23.6106 40.6364 22.7088 41.995 22.3792 42.7061C22.0497 43.4172 21.7491 45.0764 22.8706 45.5678C23.9864 46.0592 24.9808 44.9377 25.3797 44.0416C25.8133 43.0588 25.952 41.7753 24.9981 41.3128Z" fill="#303030"/>
<path d="M18.2052 44.2266C19.0781 45.0995 20.217 44.0763 20.4714 43.7641C20.8819 43.2438 20.8877 42.3939 20.4714 41.9372C19.928 41.336 19.055 41.5845 18.5058 42.0181C17.9566 42.4575 17.523 43.5444 18.2052 44.2266Z" fill="#303030"/>
<path d="M18.6388 38.5263C17.9103 38.6535 17.0547 39.2085 17.2455 40.1335C17.4363 41.0585 18.2283 41.336 19.1822 41.1452C20.1361 40.9544 20.6564 40.0815 20.5466 39.3993C20.4425 38.7171 19.4019 38.3933 18.6388 38.5263Z" fill="#303030"/>
<path d="M17.4941 34.7395C17.4478 35.8032 18.4248 36.2831 19.8933 36.4045C21.882 36.5664 22.7088 35.7975 22.7319 34.5776C22.755 33.4561 21.7202 32.9126 20.113 32.9415C18.5058 32.9704 17.5519 33.485 17.4941 34.7395Z" fill="#303030"/>
<path d="M18.5 28.2472C17.9913 29.0392 18.5289 30.4036 19.6794 30.5366C20.8356 30.6695 21.6797 29.6174 21.2981 28.49C20.9166 27.3569 19.2342 27.1083 18.5 28.2472Z" fill="#303030"/>
<path d="M20.6853 23.5529C19.9511 24.7554 20.7951 25.8711 22.3214 26.5822C23.6511 27.2008 24.6686 27.0736 25.1831 26.2816C25.7034 25.4896 25.293 24.264 24.0905 23.5008C22.7087 22.6163 21.3906 22.4082 20.6853 23.5529Z" fill="#303030"/>
<path d="M26.877 19.6794C26.1891 20.061 25.5647 21.1536 26.7152 22.7319C27.5072 23.8246 28.7328 24.0153 29.363 23.6569C29.9064 23.3505 30.207 21.911 29.5017 20.8183C28.9005 19.9107 27.8078 19.1649 26.877 19.6794Z" fill="#303030"/>
<path d="M31.7044 15.9967C30.7736 16.1238 30.3689 17.442 30.6926 18.3959C30.9933 19.2688 31.6465 19.8701 32.5773 19.6793C33.5023 19.4885 33.5891 18.182 33.5023 17.6906C33.4214 17.1992 32.93 15.8348 31.7044 15.9967Z" fill="#303030"/>
</svg>
