<svg width="127" height="127" viewBox="0 0 127 127" fill="none" xmlns="http://www.w3.org/2000/svg">
<path d="M101.301 18.4972C101.301 18.4972 107.791 24.4814 104.48 35.259C101.169 46.038 92.4709 47.2393 92.4709 47.2393C92.4709 47.2393 85.9798 41.2547 89.2915 30.4771C92.6026 19.6978 101.301 18.4972 101.301 18.4972Z" fill="#72BD39"/>
<path d="M104.481 35.2593C107.803 24.4856 101.431 18.547 101.431 18.547C101.431 18.547 101.376 18.5553 101.283 18.5735L92.4668 47.1741C92.5318 47.2404 92.5714 47.2778 92.5714 47.2778C92.5714 47.2778 101.159 46.034 104.481 35.2593Z" fill="#51A448"/>
<path d="M70.4859 93.4034C87.5415 85.7856 97.8923 70.7701 95.9873 57.8242C96.227 57.7541 96.4667 57.6731 96.7014 57.5687C99.4779 56.3281 100.724 53.0716 99.484 50.2942C98.2437 47.517 94.9867 46.2711 92.2101 47.5117C91.9759 47.6163 91.7556 47.7406 91.5435 47.8729C83.1735 37.8144 65.0828 35.5015 48.029 43.1189C30.9736 50.7361 20.6231 65.7509 22.528 78.6971C22.2886 78.7679 22.049 78.848 21.8139 78.9525C19.0374 80.1931 17.7915 83.4501 19.0317 86.226C20.2725 89.0034 23.5285 90.2489 26.3056 89.0085C26.5406 88.9033 26.7601 88.7796 26.9722 88.6473C35.3419 98.7072 53.432 101.02 70.4859 93.4034Z" fill="#F3D64E"/>
<path d="M96.0677 57.5892C96.3082 57.5187 96.5487 57.4372 96.7842 57.3323C99.5703 56.0852 100.821 52.8144 99.5791 50.0257C99.5662 49.9968 99.5502 49.9707 99.5363 49.942L18.7692 85.9395C18.7967 86.0085 18.8185 86.0781 18.8494 86.1463C20.093 88.9349 23.3591 90.1842 26.1457 88.9373C26.3815 88.8317 26.6018 88.7073 26.8147 88.5744C35.2074 98.6717 53.3559 100.986 70.4683 93.3295C87.5823 85.6723 97.9729 70.589 96.0677 57.5892Z" fill="#EEBB46"/>
</svg>
