<svg width="102" height="102" viewBox="0 0 102 102" fill="none" xmlns="http://www.w3.org/2000/svg">
<path d="M31.875 33.4688C31.4523 33.4688 31.0469 33.3008 30.748 33.002C30.4492 32.7031 30.2812 32.2977 30.2812 31.875C30.2855 28.0721 31.798 24.4262 34.4871 21.7371C37.1762 19.048 40.8221 17.5355 44.625 17.5312C45.0477 17.5312 45.4531 17.6992 45.752 17.998C46.0508 18.2969 46.2188 18.7023 46.2188 19.125C46.2188 19.5477 46.0508 19.9531 45.752 20.252C45.4531 20.5508 45.0477 20.7188 44.625 20.7188C41.6672 20.7222 38.8316 21.8987 36.7401 23.9901C34.6487 26.0816 33.4722 28.9172 33.4688 31.875C33.4688 32.2977 33.3008 32.7031 33.002 33.002C32.7031 33.3008 32.2977 33.4688 31.875 33.4688Z" fill="#6D4D42"/>
<path d="M47.8125 31.875C47.8125 31.875 46.2188 36.6562 39.8438 36.6562C33.4688 36.6562 31.875 31.875 31.875 31.875C31.875 31.875 33.4688 27.0938 39.8438 27.0938C46.2188 27.0938 47.8125 31.875 47.8125 31.875Z" fill="#378E43"/>
<path d="M31.875 31.875C31.875 31.875 30.2812 36.6562 23.9062 36.6562C17.5312 36.6562 15.9375 31.875 15.9375 31.875C15.9375 31.875 17.5312 27.0938 23.9062 27.0938C30.2812 27.0938 31.875 31.875 31.875 31.875Z" fill="#42A047"/>
<path d="M95.5612 63.0488C95.1469 64.8656 92.6287 65.9494 91.8319 67.5909C91.0031 69.2484 91.6884 71.8462 90.525 73.2806C89.3456 74.715 86.6044 74.6353 85.1381 75.7828C83.6719 76.9144 83.1459 79.56 81.4406 80.3569C79.7672 81.1378 77.3447 79.9106 75.48 80.325C73.695 80.7234 72.0375 82.875 70.125 82.875C68.2125 82.875 66.555 80.7234 64.77 80.325C62.9053 79.9106 60.4828 81.1378 58.8094 80.3569C57.1041 79.56 56.5781 76.9144 55.1119 75.7828C53.6456 74.6353 50.9044 74.715 49.725 73.2806C48.5616 71.8462 49.2469 69.2484 48.4181 67.5909C47.6212 65.9494 45.1031 64.8656 44.6887 63.0488C44.2744 61.2956 46.0434 59.2556 46.0434 57.375H94.2066C94.2066 59.2556 95.9756 61.2956 95.5612 63.0488Z" fill="#E57373"/>
<path d="M95.5612 63.0488C95.1469 64.8656 92.6287 65.9494 91.8319 67.5909C91.0031 69.2484 91.6884 71.8462 90.525 73.2806C89.3456 74.715 86.6044 74.6353 85.1381 75.7828C83.6719 76.9144 83.1459 79.56 81.4406 80.3569C79.7672 81.1378 77.3447 79.9106 75.48 80.325C73.695 80.7234 72.0375 82.875 70.125 82.875V57.375H94.2066C94.2066 59.2556 95.9756 61.2956 95.5612 63.0488Z" fill="#EF5451"/>
<path d="M89.25 57.375H51C51 52.3027 53.0149 47.4382 56.6016 43.8516C60.1882 40.265 65.0527 38.25 70.125 38.25C75.1973 38.25 80.0618 40.265 83.6484 43.8516C87.2351 47.4382 89.25 52.3027 89.25 57.375Z" fill="#EDEFF0"/>
<path d="M89.25 57.375H70.125V38.25C72.6367 38.2493 75.124 38.7435 77.4446 39.7044C79.7653 40.6653 81.8739 42.074 83.65 43.85C85.426 45.6261 86.8347 47.7347 87.7956 50.0554C88.7565 52.376 89.2507 54.8633 89.25 57.375Z" fill="#CFD8DC"/>
<path d="M46.0434 57.375C46.0434 59.2556 44.2744 61.2956 44.6887 63.0488C45.1031 64.8656 47.6212 65.9494 48.4181 67.5909C49.2469 69.2484 48.5616 71.8462 49.725 73.2806C50.0753 73.6726 50.5117 73.9781 51 74.1731C49.5734 74.5541 48.1942 75.094 46.8881 75.7828C45.4219 76.9144 44.8959 79.56 43.1906 80.3569C41.5172 81.1378 39.0947 79.9106 37.23 80.325C35.445 80.7234 33.7875 82.875 31.875 82.875C29.9625 82.875 28.305 80.7234 26.52 80.325C24.6553 79.9106 22.2328 81.1378 20.5594 80.3569C18.8541 79.56 18.3281 76.9144 16.8619 75.7828C15.3956 74.6353 12.6544 74.715 11.475 73.2806C10.3116 71.8462 10.9969 69.2484 10.1681 67.5909C9.37124 65.9494 6.85312 64.8656 6.43874 63.0488C6.02437 61.2956 7.79343 59.2556 7.79343 57.375C7.79343 55.4944 6.02437 53.4544 6.43874 51.7012C6.85312 49.8844 9.37124 48.8006 10.1681 47.1591C10.9969 45.5016 10.3116 42.9038 11.475 41.4694C12.6544 40.035 15.3956 40.1147 16.8619 38.9672C17.8022 37.9344 18.6106 36.7887 19.2684 35.5566C20.694 36.316 22.2914 36.6948 23.9062 36.6562C30.2812 36.6562 31.875 31.875 31.875 31.875C31.875 31.875 33.4687 36.6562 39.8437 36.6562C41.4585 36.6948 43.056 36.316 44.4816 35.5566C45.1338 36.7921 45.9427 37.9385 46.8881 38.9672C48.3544 40.1147 51.0956 40.035 52.275 41.4694C53.4384 42.9038 52.7531 45.5016 53.5819 47.1591C53.6361 47.2707 53.7001 47.3774 53.7731 47.4778C51.958 50.4599 50.9986 53.884 51 57.375H46.0434Z" fill="#E57373"/>
<path d="M46.0434 57.375C46.0434 59.2556 44.2744 61.2956 44.6888 63.0488C45.1031 64.8656 47.6213 65.9494 48.4181 67.5909C49.2469 69.2484 48.5616 71.8462 49.725 73.2806C50.0753 73.6726 50.5118 73.9781 51 74.1731C49.5734 74.5541 48.1942 75.094 46.8881 75.7828C45.4219 76.9144 44.8959 79.56 43.1906 80.3569C41.5172 81.1378 39.0947 79.9106 37.23 80.325C35.445 80.7234 33.7875 82.875 31.875 82.875V31.875C31.875 31.875 33.4688 36.6562 39.8438 36.6562C41.4586 36.6948 43.056 36.316 44.4816 35.5566C45.1339 36.7921 45.9427 37.9385 46.8881 38.9672C48.3544 40.1147 51.0956 40.035 52.275 41.4694C53.4384 42.9038 52.7531 45.5016 53.5819 47.1591C53.6361 47.2707 53.7001 47.3774 53.7731 47.4778C51.958 50.4599 50.9986 53.884 51 57.375H46.0434Z" fill="#EF5451"/>
<path d="M15.9375 31.875H31.875C31.875 31.875 30.2812 36.6562 23.9062 36.6562C17.5312 36.6562 15.9375 31.875 15.9375 31.875Z" fill="#378E43"/>
<path d="M47.8125 31.875C47.8125 31.875 46.2188 36.6562 39.8438 36.6562C33.4688 36.6562 31.875 31.875 31.875 31.875H47.8125Z" fill="#42A047"/>
</svg>
