<svg width="71" height="71" viewBox="0 0 71 71" fill="none" xmlns="http://www.w3.org/2000/svg">
<path d="M2.23541 49.6057C1.56979 52.9394 5.37494 65.7582 25.2272 68.3209C35.4279 69.6355 45.4456 66.0134 53.3776 59.9395C61.3096 53.8657 66.1742 46.0391 67.8438 38.8891C70.4121 27.8786 67.4611 11.2546 45.6231 10.2728C23.2914 9.26882 15.7864 32.6156 11.1049 39.4771C5.46924 47.7475 2.84002 46.5937 2.23541 49.6057Z" fill="url(#paint0_radial_12_98)"/>
<path d="M23.2358 20.1518C23.2358 20.1518 30.7629 23.9791 42.4336 23.1693C51.8799 22.5147 55.5963 17.8776 55.5963 17.8776C55.5963 17.8776 59.7509 19.0202 62.5077 18.288C63.6115 17.994 63.8501 17.395 62.5022 15.9972C60.4665 13.8783 53.4774 9.95662 43.1713 10.6167C30.2748 11.4543 23.2358 20.1518 23.2358 20.1518Z" fill="#DC0D27"/>
<path d="M14.444 42.5002C15.7531 44.6801 19.6304 41.8678 22.3594 39.1332C26.2977 35.1838 28.0893 31.5673 29.1377 29.7312C30.1861 27.8952 31.6061 23.9403 28.7439 23.3024C25.7652 22.6423 24.8833 26.3255 23.3523 29.0379C21.8214 31.7503 19.6914 34.9786 17.9829 37.0809C16.1691 39.3162 13.6675 41.2077 14.444 42.5002Z" fill="#FFEBC9"/>
<path d="M56.7778 13.8561C56.4006 15.5035 57.9149 16.6573 58.9633 17.4837C60.0116 18.3102 62.3746 18.6209 63.1623 18.0495C63.9499 17.4837 63.0735 15.8197 63.6448 14.8157C64.2106 13.8117 65.2202 12.5859 63.9943 11.7538C62.9681 11.0549 61.5869 10.7942 60.3223 11.0549C59.0576 11.3156 59.052 12.2808 58.5306 12.5415C57.9981 12.8077 56.9054 13.2903 56.7778 13.8561Z" fill="#6D4C41"/>
<path d="M55.5464 14.3553C54.1486 14.9655 50.0328 18.2104 40.4256 18.9481C29.8311 19.7635 17.3894 18.5044 15.3149 18.2104C13.2404 17.9164 9.70146 17.7778 9.75138 16.8903C9.82349 15.559 11.1991 15.9861 13.9725 15.1874C17.3062 14.2222 20.712 12.891 23.3079 11.3378C27.2906 8.94713 35.4001 2.9676 43.3821 2.81783C52.124 2.65697 54.9362 5.40822 57.0829 7.70463C59.2295 10.001 59.2628 12.4084 58.6693 13.3735C58.0813 14.3387 57.2493 13.6176 55.5464 14.3553Z" fill="#518E30"/>
<path d="M27.9895 13.8228C28.1948 14.078 32.0665 14.2222 34.2242 14.1501C39.1499 13.9892 43.0493 12.6802 47.9028 12.1366C52.7563 11.593 56.9886 12.1366 57.1495 11.948C57.4435 11.6041 54.4648 7.55484 44.7189 8.64757C41.1301 9.0525 36.5151 10.8774 33.3312 12.1477C31.301 12.9741 27.7954 13.5787 27.9895 13.8228Z" fill="#366918"/>
<defs>
<radialGradient id="paint0_radial_12_98" cx="0" cy="0" r="1" gradientUnits="userSpaceOnUse" gradientTransform="translate(41.8368 -34.176) scale(102.042 102.042)">
<stop offset="0.532" stop-color="#F33A1F"/>
<stop offset="0.615" stop-color="#F86922"/>
<stop offset="0.696" stop-color="#FD9124"/>
<stop offset="0.739" stop-color="#FFA025"/>
<stop offset="0.793" stop-color="#FCA025"/>
<stop offset="0.839" stop-color="#F1A124"/>
<stop offset="0.883" stop-color="#DFA222"/>
<stop offset="0.925" stop-color="#C7A41F"/>
<stop offset="0.962" stop-color="#AAA61C"/>
</radialGradient>
</defs>
</svg>
