<svg width="88" height="88" viewBox="0 0 88 88" fill="none" xmlns="http://www.w3.org/2000/svg">
<path d="M28.9571 17.9238L28.8578 17.8436C28.7925 17.7906 28.6921 17.7121 28.578 17.6091C28.5204 17.5555 28.4508 17.5084 28.3865 17.4206C28.3157 17.3301 28.2467 17.2381 28.1796 17.1449C28.0211 16.9302 27.8922 16.709 27.7305 16.4313C27.4347 15.8823 27.1607 15.1462 27.0504 14.2424C26.9367 13.343 26.9945 12.2796 27.2748 11.1949C27.5536 10.1183 28.0429 9.01675 28.678 8.03174C28.9927 7.52608 29.3452 7.06631 29.7228 6.61291C30.0976 6.17228 30.4983 5.75446 30.9229 5.36166C31.7644 4.58341 32.6753 3.92564 33.6129 3.3765C34.5494 2.82667 35.5205 2.39578 36.4808 2.04069C38.2861 1.37439 40.1745 0.959379 42.0929 0.807315C42.9441 0.741969 43.7984 0.724697 44.6516 0.75558C45.4647 0.785315 46.2326 0.857846 46.9464 0.953752C47.6604 1.04949 48.3209 1.16911 48.9173 1.28925C49.5141 1.4106 50.0448 1.52833 50.5029 1.63627L51.5999 1.87655L52.0204 1.96506L52.084 1.97847C52.5857 2.08417 52.9103 2.56972 52.8232 3.07074C52.8232 3.07074 52.7943 3.23556 52.7068 3.53291C52.5795 3.94469 52.4177 4.34497 52.223 4.7295C51.7484 5.71881 50.8951 6.957 49.7819 8.14707C49.2262 8.74399 48.6081 9.33214 47.9502 9.89228C47.2926 10.4538 46.5907 10.9861 45.8739 11.488C44.4369 12.4873 42.9158 13.331 41.4825 14.0221C40.7627 14.366 40.074 14.6836 39.4083 14.9351C38.7456 15.1895 38.114 15.3914 37.5244 15.542C37.2406 15.6145 36.9544 15.6777 36.6664 15.7316C36.3971 15.7831 36.1216 15.8256 35.8658 15.8553C35.3423 15.9215 34.8647 15.9514 34.3705 15.9988C33.8874 16.0459 33.3996 16.12 32.9254 16.2683C32.4522 16.4134 32.0026 16.6336 31.61 16.8738C31.4162 16.9928 31.2429 17.1248 31.0856 17.2198C31.0074 17.2714 30.9342 17.323 30.867 17.3726C30.7959 17.4158 30.7347 17.4878 30.6797 17.5406C30.5726 17.6507 30.4777 17.7356 30.416 17.7929L30.3222 17.8795C29.9368 18.2356 29.3538 18.2452 28.9571 17.9238Z" fill="#16992B"/>
<path d="M83.9441 38.0085C86.669 51.9974 80.845 69.734 69.0828 77.3029C63.1489 81.1213 61.0393 84.8986 55.3915 86.1288C50.2853 87.2411 49.2408 85.1115 40.6474 83.9086C26.022 81.8614 12.6215 67.0674 9.77522 52.456C5.78566 31.9748 20.4628 15.9495 40.9441 11.96C61.4254 7.97041 79.9545 17.5273 83.9441 38.0085Z" fill="#FF9C7F"/>
<path d="M1.95024 20.1144L1.99785 19.9905C2.02896 19.9094 2.07365 19.7856 2.13862 19.6406C2.26409 19.3389 2.46277 18.9295 2.73262 18.4393C2.86702 18.1929 3.02601 17.944 3.19582 17.6606C3.37285 17.3964 3.56466 17.1083 3.77573 16.8124C4.23778 16.1814 4.74255 15.5829 5.28651 15.0211C6.44718 13.8186 7.92135 12.6612 9.64251 11.7475C10.5247 11.2791 11.4435 10.8833 12.3899 10.5638C13.355 10.2307 14.3718 9.99665 15.4077 9.80638C16.4434 9.6144 17.5084 9.50577 18.5767 9.46349C19.6451 9.42121 20.7202 9.45765 21.7781 9.58312C23.8908 9.82598 25.9483 10.4219 27.6559 11.3113C28.5079 11.756 29.2717 12.2592 29.8945 12.8092C30.0474 12.9375 30.1961 13.0706 30.3406 13.2083C30.4791 13.3489 30.6078 13.4797 30.7304 13.6193C30.8521 13.7576 30.9658 13.8807 31.0695 14.0139C31.1655 14.1425 31.2595 14.2726 31.3517 14.404C31.6968 14.9059 31.8922 15.3497 32.0026 15.656C32.0586 15.8095 32.088 15.9372 32.1112 16.0166L32.1432 16.1391C32.1959 16.3414 32.1698 16.5561 32.07 16.7398C31.9702 16.9234 31.8043 17.0623 31.6059 17.1281L31.3127 17.2242C31.3127 17.2242 31.1265 17.2852 30.8356 17.3928C30.6939 17.4423 30.5064 17.5296 30.3223 17.6081C30.2304 17.6484 30.1242 17.7021 30.0195 17.757C29.9117 17.8156 29.8146 17.8592 29.7014 17.9242C29.4694 18.0576 29.2406 18.1965 29.0152 18.3407C28.9018 18.4142 28.7758 18.5012 28.6546 18.589L28.4757 18.7135L28.2885 18.8494C27.7953 19.2069 27.2824 19.606 26.7411 20.0154C26.1999 20.4252 25.6295 20.8454 25.0224 21.2548C24.3966 21.6781 23.7522 22.0733 23.091 22.439C22.3956 22.8255 21.6782 23.1708 20.9423 23.4732C20.1922 23.7822 19.4141 24.0687 18.6089 24.2958C17.8042 24.5263 16.9855 24.7458 16.1413 24.8602C15.2924 24.9844 14.4349 25.0405 13.5771 25.028C11.8518 25.0072 10.1006 24.6959 8.4827 24.2042C7.705 23.9681 6.94045 23.6908 6.19229 23.3733C6.01543 23.2999 5.84012 23.2186 5.67254 23.1463L5.17926 22.9161C4.85476 22.7487 4.56154 22.6128 4.28482 22.4621C4.00656 22.3072 3.76266 22.1843 3.53768 22.0463L3.22916 21.8658L2.96602 21.702C2.80927 21.6065 2.68398 21.521 2.60045 21.4657L2.47257 21.3772L2.30499 21.2612C2.12598 21.1374 1.99372 20.957 1.92939 20.7491C1.86507 20.5412 1.87241 20.3177 1.95024 20.1144Z" fill="#45BF53"/>
<path d="M20.7228 47.9052C20.6694 47.9052 20.6161 47.9042 20.5621 47.9023C18.0197 47.8151 16.0293 45.6835 16.1164 43.1412C16.2774 38.4428 18.0313 33.7501 21.0549 29.9274C22.6332 27.9323 25.5298 27.5944 27.5251 29.1722C29.5202 30.7503 29.8585 33.6473 28.2803 35.6424C26.4677 37.934 25.4176 40.7091 25.3234 43.4565C25.2382 45.9451 23.1937 47.9052 20.7228 47.9052Z" fill="#FFC2B6"/>
<path d="M51.1593 18.3755C51.1593 18.3755 51.3625 18.4633 51.7368 18.6381L52.0496 18.7849C52.1646 18.8388 52.2878 18.8943 52.4336 18.9736C52.7206 19.1219 53.0482 19.2991 53.416 19.5004C53.7708 19.7035 54.1546 19.9373 54.5775 20.1915L55.2195 20.6124C55.441 20.7595 55.6733 20.9096 55.9027 21.078C56.8387 21.7306 57.8459 22.5377 58.8985 23.4801C59.9485 24.4253 61.0122 25.5351 62.0555 26.7858C62.3234 27.0933 62.5704 27.4238 62.8267 27.7548C62.9535 27.9212 63.085 28.086 63.21 28.2571L63.5826 28.7768C63.707 28.9516 63.8347 29.1257 63.9561 29.3055L64.3129 29.8538L64.6719 30.4089L65.0159 30.9811L65.361 31.56L65.6841 32.1578L65.8462 32.4587L65.9275 32.6096L65.968 32.6852L66.031 32.8142L66.3101 33.3793L66.5909 33.9478C66.6909 34.1695 66.7888 34.392 66.8847 34.6154L67.1741 35.2897C67.2643 35.5117 67.3449 35.7286 67.4307 35.9493L67.6846 36.6107C67.7679 36.8321 67.8396 37.0577 67.9175 37.2819C68.0713 37.7308 68.2181 38.1835 68.344 38.6431C68.4762 39.101 68.6105 39.5596 68.7179 40.0252C68.8317 40.4892 68.9518 40.9528 69.0346 41.4239C69.1256 41.8933 69.2228 42.3616 69.2894 42.8346C69.3615 43.3066 69.4423 43.777 69.4903 44.2507C69.5446 44.7235 69.6005 45.1953 69.6268 45.6683C69.656 46.141 69.7003 46.6109 69.707 47.0813C69.7488 48.0206 69.7319 48.9539 69.6934 49.8734C69.6642 50.333 69.6505 50.7902 69.6073 51.2426C69.5585 51.6945 69.5183 52.1434 69.4616 52.5867L69.2715 53.9018C69.1943 54.3341 69.1075 54.7604 69.0264 55.182L68.9875 55.38L68.954 55.5235L68.8873 55.8091L68.821 56.0932C68.7985 56.1888 68.7792 56.2766 68.75 56.388L68.5871 57.0186L68.5034 57.3292L68.4152 57.6238C67.9864 59.0913 67.4542 60.5265 66.8224 61.9188C66.2921 63.0865 65.6901 64.2203 65.02 65.3138C64.4238 66.2866 63.8567 67.1006 63.3604 67.7471L63.0099 68.2054L62.6858 68.5984C62.5176 68.8058 62.345 69.0097 62.1682 69.2099C62.0201 69.3753 61.872 69.5408 61.7239 69.7063C61.0682 70.4388 59.9428 70.501 59.2103 69.8453C58.6042 69.3029 58.4569 68.439 58.7954 67.7421L58.8292 67.6737L59.0922 67.1326C59.201 66.9191 59.305 66.7032 59.4043 66.4852C59.5246 66.2294 59.6621 65.9364 59.8091 65.6053C60.1087 64.947 60.4509 64.1409 60.8061 63.2094C61.2029 62.173 61.556 61.1204 61.8645 60.0544C62.225 58.8076 62.521 57.5431 62.7514 56.2658L62.798 56.0118L62.8348 55.7667L62.9142 55.275C62.9279 55.1985 62.9412 55.0959 62.9547 55.0012L62.9951 54.7122L63.0359 54.4216L63.0563 54.2757L63.0589 54.2574C63.0615 54.242 63.0458 54.3262 63.0532 54.2827L63.0565 54.2492L63.0632 54.1822C63.1 53.8245 63.1325 53.463 63.1754 53.1L63.2559 51.9951C63.2894 51.2507 63.3143 50.4951 63.3124 49.7297C63.3079 48.9646 63.2742 48.1911 63.2239 47.4132C63.2089 47.0237 63.1579 46.635 63.1233 46.2443C63.0943 45.8529 63.0266 45.4647 62.9815 45.0733C62.9403 44.6813 62.8681 44.293 62.8061 43.9028C62.7495 43.5117 62.6641 43.1255 62.5862 42.738C62.5127 42.3496 62.4202 41.9656 62.3313 41.581C62.2494 41.1944 62.1419 40.8153 62.0383 40.4358C61.9847 40.2465 61.94 40.0547 61.8798 39.8681L61.7052 39.3069C61.6473 39.1201 61.5961 38.931 61.5335 38.7464L61.3429 38.1945C61.2793 38.0122 61.2176 37.8241 61.153 37.6471L60.9546 37.1366C60.8883 36.967 60.825 36.7965 60.7628 36.6255L60.5145 36.042L60.2676 35.4621L60.2523 35.426L60.2446 35.4079C60.2362 35.389 60.291 35.5057 60.2642 35.4488L60.234 35.3845L60.1736 35.2562L60.0535 34.9997L59.8149 34.4889L59.5659 33.9872C58.9215 32.7016 58.2022 31.455 57.4116 30.2537C57.04 29.6726 56.6474 29.1273 56.265 28.5993L55.6898 27.8275L55.1098 27.1021C54.9246 26.8602 54.725 26.6399 54.5394 26.4144L54.2606 26.083L53.9786 25.7687C53.7928 25.5614 53.6162 25.3534 53.4358 25.1604L52.9062 24.5996C52.5676 24.2309 52.2244 23.9143 51.924 23.5979L51.0594 22.771C50.8261 22.561 50.5954 22.3482 50.3671 22.1326C50.2717 22.0388 50.1622 21.9482 50.0657 21.8661L49.8025 21.6421C49.4883 21.3736 49.3244 21.2251 49.3244 21.2251C48.621 20.5889 48.5669 19.5028 49.2032 18.7996C49.7102 18.24 50.5032 18.0929 51.1593 18.3755Z" fill="#FF5F5F"/>
</svg>
