<svg width="88" height="88" viewBox="0 0 88 88" fill="none" xmlns="http://www.w3.org/2000/svg">
<g clip-path="url(#clip0_12_543)">
<path d="M44.3516 29.395C69.1168 29.395 68.941 42.5148 68.941 58.6975C68.941 74.8802 57.931 88 44.3516 88H43.6483C30.0674 88 19.0589 74.8802 19.0589 58.6975C19.0589 42.5148 18.8831 29.395 43.6483 29.395" fill="#D6A550"/>
<path d="M50.138 20.649C50.9323 19.6558 51.8268 18.7274 52.803 17.9193C54.0229 10.8867 62.4173 5.15265 68.4089 3.60733C68.4089 3.60733 63.2918 -0.649245 56.9455 0.0848593C50.3694 0.845182 46.631 4.07 44.5228 7.8824C48.9659 11.3524 50.0131 16.8166 50.138 20.649Z" fill="#88C057"/>
<path d="M35.8647 29.9364C38.141 29.5848 40.715 29.3951 43.6499 29.3951H43.7363C43.7363 29.3951 43.9938 21.6191 36.0251 20.1417C28.0564 18.6642 26.7717 23.2262 26.7717 23.2262C33.6593 24.8779 35.4144 28.2554 35.8647 29.9364Z" fill="#659C35"/>
<path d="M53.3799 30.1554C54.643 27.7618 60.5975 22.0139 68.4105 20.1417C68.4105 20.1417 65.5836 14.0375 57.6149 15.5149C49.6461 16.9924 45.2785 29.3951 45.2785 29.3951C45.2785 29.3951 45.3217 29.4028 45.3849 29.412C48.4247 29.4598 51.0742 29.7143 53.3799 30.1554Z" fill="#659C35"/>
<path d="M40.0796 21.8319C43.5651 24.3797 43.7301 28.6162 43.7347 29.2932C44.2514 29.3179 44.7819 29.3148 45.3155 29.2932C45.5392 28.684 46.8902 25.1569 49.2714 21.7995C49.3624 21.6221 49.4549 21.4849 49.5505 21.4263C49.6646 21.2705 49.7849 21.1163 49.9021 20.9621C49.9823 20.8587 50.0564 20.7523 50.1396 20.649C49.9561 15.0568 47.817 5.98695 36.0236 4.71923C30.0474 4.07612 25.2279 7.80371 25.2279 7.80371C31.3213 9.2642 40.0719 15.0013 40.0796 21.8319Z" fill="#A4E869"/>
<path d="M32.9391 68.8547L27.222 74.5718L29.4027 76.7525L32.9391 73.2162L36.4754 76.7525L38.6561 74.5718L32.9391 68.8547Z" fill="#F4C44E"/>
<path d="M38.0176 82.283L40.1984 84.4637L43.7347 80.9274L47.2711 84.4637L49.4518 82.283L43.7347 76.5659L38.0176 82.283Z" fill="#F4C44E"/>
<path d="M48.8133 74.5718L50.994 76.7525L54.5304 73.2162L58.0667 76.7525L60.2474 74.5718L54.5304 68.8547L48.8133 74.5718Z" fill="#F4C44E"/>
<path d="M29.4027 64.4146L32.9391 60.8783L36.4754 64.4146L38.6561 62.2339L32.9391 56.5168L27.222 62.2339L29.4027 64.4146Z" fill="#F4C44E"/>
<path d="M43.7347 67.0472L47.2711 70.5836L49.4518 68.4029L43.7347 62.6858L38.0176 68.4029L40.1984 70.5836L43.7347 67.0472Z" fill="#F4C44E"/>
<path d="M22.3593 62.6858L19.7267 65.3184L21.9074 67.4991L22.3593 67.0472L25.8956 70.5836L28.0764 68.4029L22.3593 62.6858Z" fill="#F4C44E"/>
<path d="M54.5304 60.8783L58.0667 64.4146L60.2474 62.2339L54.5304 56.5168L48.8133 62.2339L50.994 64.4146L54.5304 60.8783Z" fill="#F4C44E"/>
<path d="M27.222 49.896L29.4027 52.0767L32.9391 48.5404L36.4754 52.0767L38.6561 49.896L32.9391 44.179L27.222 49.896Z" fill="#F4C44E"/>
<path d="M43.7347 54.7093L47.2711 58.2457L49.4518 56.065L43.7347 50.3479L38.0176 56.065L40.1984 58.2457L43.7347 54.7093Z" fill="#F4C44E"/>
<path d="M54.5304 44.179L48.8133 49.896L50.994 52.0767L54.5304 48.5404L58.0667 52.0767L60.2474 49.896L54.5304 44.179Z" fill="#F4C44E"/>
<path d="M32.9391 36.2025L36.4754 39.7389L38.6561 37.5581L32.9391 31.8411L27.222 37.5581L29.4027 39.7389L32.9391 36.2025Z" fill="#F4C44E"/>
<path d="M40.1984 45.9078L43.7347 42.3715L47.2711 45.9078L49.4518 43.7271L43.7347 38.01L38.0176 43.7271L40.1984 45.9078Z" fill="#F4C44E"/>
<path d="M54.5304 36.2025L58.0667 39.7389L60.2474 37.5581L54.5304 31.8411L48.8133 37.5581L50.994 39.7389L54.5304 36.2025Z" fill="#F4C44E"/>
<path d="M66.6431 39.3857L65.5651 37.7694L59.6089 43.7271L61.7897 45.9078L65.087 42.612L67.1273 45.6734L68.2563 44.9208C67.917 42.9251 67.4034 41.0713 66.6431 39.3857Z" fill="#F4C44E"/>
<path d="M65.0206 62.9896L59.6074 68.4029L61.7881 70.5836L65.6283 66.7434L67.718 67.7891C67.9956 66.7774 68.2362 65.7487 68.4212 64.6923L65.0206 62.9896Z" fill="#F4C44E"/>
<path d="M21.946 38.2074C21.3553 39.2762 20.8849 40.4252 20.5117 41.6435L21.6915 42.8233L22.1434 42.3715L25.6798 45.9078L27.8605 43.7271L22.1434 38.01L21.946 38.2074Z" fill="#F4C44E"/>
<path d="M68.921 53.9429L65.326 50.3479L59.6089 56.065L61.7897 58.2457L65.326 54.7093L67.3201 56.7035L68.9333 55.0903C68.9302 54.7063 68.9256 54.3222 68.921 53.9429Z" fill="#F4C44E"/>
<path d="M19.0898 53.4015C19.0774 54.1325 19.0682 54.8697 19.0635 55.6177L20.1493 56.7035L22.1434 54.7093L25.6797 58.2457L27.8605 56.065L22.1434 50.3479L19.0898 53.4015Z" fill="#F4C44E"/>
</g>
<defs>
<clipPath id="clip0_12_543">
<rect width="88" height="88" fill="white"/>
</clipPath>
</defs>
</svg>
