<svg width="55" height="83" viewBox="0 0 55 83" fill="none" xmlns="http://www.w3.org/2000/svg">
<path d="M27.1896 83C30.0804 83 32.4459 80.8506 32.8336 78.0672C33.8839 79.3222 35.4425 80.1378 37.2069 80.1378C40.368 80.1378 42.9309 77.5749 42.9309 74.4137C42.9309 74.1262 42.8865 73.8499 42.8465 73.5737C43.7094 74.096 44.7111 74.4137 45.793 74.4137C48.9541 74.4137 51.5171 71.8508 51.5171 68.6897C51.5171 66.7735 50.5668 65.0877 49.1216 64.0488C51.3454 63.2632 52.9482 61.1652 52.9482 58.6724C52.9482 56.7563 51.9979 55.0705 50.5527 54.0316C52.7765 53.246 54.3793 51.148 54.3793 48.6552C54.3793 46.1625 52.7765 44.0644 50.5527 43.2788C51.998 42.2399 52.9482 40.5541 52.9482 38.638C52.9482 35.7472 50.7988 33.3818 48.0153 32.994C49.2704 31.9437 50.086 30.3852 50.086 28.6208C50.086 25.4596 47.523 22.8967 44.3619 22.8967C43.8567 22.8967 43.3759 22.9826 42.9094 23.1056C42.9123 23.0341 42.9308 22.9683 42.9308 22.8967C42.9308 19.7355 40.3678 17.1726 37.2067 17.1726C35.2906 17.1726 33.6048 18.1229 32.5658 19.5681C31.7804 17.3441 29.6826 15.7413 27.1896 15.7413C24.6967 15.7413 22.5989 17.3441 21.8133 19.5679C20.7743 18.1226 19.0885 17.1724 17.1724 17.1724C14.0113 17.1724 11.4483 19.7354 11.4483 22.8965C11.4483 22.968 11.467 23.0338 11.4697 23.1055C11.0032 22.9824 10.5224 22.8965 10.0172 22.8965C6.85609 22.8965 4.29314 25.4595 4.29314 28.6206C4.29314 30.385 5.10888 31.9435 6.36393 32.9938C3.58051 33.3816 1.4311 35.7471 1.4311 38.6378C1.4311 40.554 2.38139 42.2397 3.82659 43.2787C1.60277 44.0643 0 46.1623 0 48.655C0 51.1478 1.60277 53.2458 3.82659 54.0314C2.38122 55.0704 1.4311 56.7561 1.4311 58.6723C1.4311 61.1652 3.03388 63.263 5.25769 64.0486C3.81233 65.0876 2.8622 66.7734 2.8622 68.6895C2.8622 71.8506 5.42515 74.4136 8.58629 74.4136C9.6682 74.4136 10.6699 74.0958 11.5328 73.5735C11.4927 73.8498 11.4483 74.1258 11.4483 74.4136C11.4483 77.5747 14.0113 80.1377 17.1724 80.1377C18.9368 80.1377 20.4953 79.3219 21.5456 78.067C21.9334 80.8506 24.2989 83 27.1896 83Z" fill="#C62A2A"/>
<path d="M28.9623 8.78385C29.4045 0.118941 20.067 0.0288086 20.067 0.0288086C20.067 0.0288086 20.2974 9.22592 28.9623 8.78385Z" fill="#659C35"/>
<path d="M27.1896 17.1724C26.3997 17.1724 25.7585 16.5313 25.7585 15.7413C25.7585 6.6199 32.981 0 42.9309 0C43.7209 0 44.362 0.641142 44.362 1.4311C44.362 2.22106 43.7209 2.8622 42.9309 2.8622C34.6395 2.8622 28.6206 8.2786 28.6206 15.7415C28.6207 16.5313 27.9796 17.1724 27.1896 17.1724Z" fill="#4C312C"/>
<path d="M12.8793 37.3779C11.414 37.3779 9.94849 36.8198 8.83236 35.7037C8.27276 35.1441 8.27276 34.2397 8.83236 33.6802C9.39051 33.1206 10.2964 33.1206 10.8558 33.6802C11.9721 34.7951 13.7866 34.7951 14.9027 33.6802C15.4437 33.1393 15.7413 32.421 15.7413 31.6568C15.7413 30.8911 15.4437 30.1728 14.9027 29.6319C14.3431 29.0737 14.3431 28.1679 14.9027 27.6084C15.4609 27.0503 16.3667 27.0503 16.9262 27.6084C18.0081 28.6903 18.6033 30.1271 18.6033 31.6568C18.6033 33.1852 18.0081 34.6234 16.9262 35.7037C15.81 36.8198 14.3447 37.3779 12.8793 37.3779Z" fill="#E43333"/>
<path d="M38.7247 36.4047C37.1963 36.4047 35.7581 35.8094 34.6778 34.7275C33.5959 33.647 33.0006 32.2088 33.0006 30.6806C33.0006 29.1522 33.5959 27.714 34.6778 26.6322C35.2359 26.0741 36.1418 26.0741 36.7012 26.6322C37.2608 27.1918 37.2608 28.0975 36.7012 28.6557C36.1603 29.1966 35.8626 29.9164 35.8626 30.6806C35.8626 31.4448 36.1603 32.1631 36.7012 32.704C37.7832 33.786 39.6678 33.786 40.7496 32.704C41.3077 32.1444 42.2136 32.1444 42.773 32.704C43.3312 33.2636 43.3312 34.1693 42.773 34.7275C41.6911 35.8094 40.2529 36.4047 38.7247 36.4047Z" fill="#E43333"/>
<path d="M30.2872 48.6678C30.0839 48.6678 29.8808 48.6563 29.6775 48.6364C26.5378 48.3058 24.2538 45.4824 24.5831 42.3441C24.6661 41.5585 25.3644 40.9947 26.1559 41.0704C26.9429 41.1534 27.5126 41.8574 27.4296 42.6432C27.3495 43.403 27.5712 44.15 28.0521 44.744C28.5329 45.3378 29.217 45.71 29.9768 45.7886C30.7338 45.8701 31.4836 45.6484 32.0776 45.1676C32.6714 44.6867 33.0436 44.0026 33.1222 43.2428C33.2052 42.4573 33.8979 41.8876 34.6963 41.9691C35.4818 42.0521 36.0515 42.7562 35.97 43.5419C35.8096 45.0632 35.067 46.4297 33.8778 47.3914C32.8489 48.2241 31.5924 48.6678 30.2872 48.6678Z" fill="#E43333"/>
<path d="M14.3104 58.6724C12.782 58.6724 11.3438 58.0771 10.2635 56.9952C9.70386 56.437 9.70386 55.5299 10.2635 54.9717C10.8216 54.4121 11.7275 54.4121 12.2869 54.9717C13.3688 56.0537 15.2521 56.0537 16.3338 54.9717C16.8748 54.4308 17.1724 53.7125 17.1724 52.9483C17.1724 52.1841 16.8748 51.4658 16.3338 50.9248C15.7742 50.3667 15.7742 49.4608 16.3338 48.9014C16.892 48.3418 17.7978 48.3418 18.3573 48.9014C19.4392 49.9818 20.0344 51.4201 20.0344 52.9483C20.0344 54.4767 19.4392 55.9149 18.3573 56.9952C17.2768 58.0771 15.8387 58.6724 14.3104 58.6724Z" fill="#E43333"/>
<path d="M38.1349 60.1628C37.0846 60.1628 36.0499 59.8709 35.1341 59.3028C33.8334 58.4986 32.9246 57.2364 32.5739 55.7481C32.3937 54.9782 32.8701 54.2069 33.6401 54.0265C34.4114 53.8433 35.18 54.3227 35.3617 55.0927C35.5363 55.8368 35.9899 56.4679 36.6411 56.8701C37.2894 57.2723 38.0578 57.3968 38.802 57.2222C39.5461 57.0476 40.1772 56.5925 40.5794 55.9428C40.9829 55.2931 41.1074 54.5247 40.9328 53.7806C40.7511 53.0107 41.229 52.2409 41.9975 52.059C42.7688 51.8787 43.5374 52.3552 43.7191 53.1252C44.0683 54.6135 43.8178 56.149 43.0136 57.4498C42.2094 58.7491 40.9457 59.6579 39.4574 60.0085C39.0192 60.1113 38.5757 60.1628 38.1349 60.1628Z" fill="#E43333"/>
<path d="M26.0074 72.9841C25.3648 72.9841 24.7223 72.8753 24.0984 72.655C22.6559 72.147 21.4996 71.1067 20.84 69.7272C20.1802 68.3476 20.0972 66.7935 20.6067 65.3525C20.8685 64.607 21.6857 64.2148 22.4312 64.4795C23.1768 64.7413 23.5675 65.56 23.3042 66.3055C23.051 67.0253 23.091 67.8025 23.4216 68.4922C23.7506 69.182 24.3303 69.7029 25.0516 69.9562C25.7713 70.2096 26.547 70.1694 27.2383 69.8389C27.928 69.5098 28.4489 68.9301 28.7023 68.2103C28.9641 67.4648 29.7842 67.0741 30.5283 67.3374C31.2738 67.5992 31.6645 68.4178 31.4012 69.1619C30.8932 70.6044 29.8529 71.7621 28.4734 72.4203C27.6902 72.7951 26.8502 72.9841 26.0074 72.9841Z" fill="#E43333"/>
</svg>
