<svg width="78" height="77" viewBox="0 0 78 77" fill="none" xmlns="http://www.w3.org/2000/svg">
<path d="M40.8351 12.6793L36.8174 13.5088L32.8941 1.96553L39.7362 0L40.8351 12.6793Z" fill="#659C35"/>
<path d="M49.4589 11.4352C50.9313 10.1127 52.0493 8.51594 52.6185 6.63417C45.1511 3.89054 42.8261 7.4474 42.8261 7.4474C42.718 6.00331 41.611 5.39136 40.1919 5.24817L40.8364 12.678L36.8174 13.5088L36.816 13.5061L34.4131 6.43559C33.696 6.79222 33.213 7.16236 33.1911 7.4474C33.1911 7.4474 30.8648 3.89054 23.3986 6.63417C23.9857 8.56862 25.1311 10.2194 26.6678 11.5608C20.6645 12.3997 15.1471 14.4395 12.3692 19.4553C26.4324 23.6093 30.6184 16.913 30.6184 16.913C31.471 26.0125 38.6114 28.6994 39.6911 29.0709C40.7708 28.6994 47.9112 26.0125 48.7637 16.913C48.7637 16.913 50.3059 23.6093 64.3705 19.4553C61.2711 14.4044 55.4799 12.2687 49.4589 11.4352Z" fill="#88C057"/>
<path d="M62.0251 20.1591C62.0045 20.1348 61.9881 20.1078 61.9676 20.0835C50.1349 22.8163 48.7623 16.913 48.7623 16.913C47.9098 26.0125 40.7694 28.6994 39.6897 29.0709C38.61 28.6994 31.4696 26.0125 30.6171 16.913C30.6171 16.913 27.1207 22.3975 15.9394 20.2915C15.9147 20.3145 15.8901 20.3388 15.8641 20.3618C15.897 20.3672 15.9325 20.3766 15.964 20.382C12.6442 23.6782 10.894 28.7953 10.894 36.5439C10.8954 53.8649 28.5289 77 39 77C49.4712 77 67.1046 53.8649 67.1046 36.5426C67.1046 28.6494 65.2874 23.4877 61.8472 20.1983C61.9046 20.1875 61.9676 20.1713 62.0251 20.1591Z" fill="#E22F37"/>
<path d="M23.6668 27.9253C23.4999 27.3971 22.7432 27.3971 22.5776 27.9253C22.5776 27.9253 20.5031 35.0769 20.5031 35.7672C20.5031 36.4575 20.7754 37.1072 21.2707 37.5962C21.7647 38.0853 22.4229 38.3541 23.1222 38.3541C23.8215 38.3541 24.4797 38.0853 24.9737 37.5962C25.4691 37.1072 25.7414 36.4588 25.7414 35.7672C25.7414 35.0755 23.6668 27.9253 23.6668 27.9253Z" fill="#994530"/>
<path d="M39.8525 33.3288C39.6856 32.8006 38.9289 32.8006 38.7633 33.3288C38.7633 33.3288 36.6888 40.4804 36.6888 41.1707C36.6888 41.861 36.9611 42.5107 37.4564 42.9998C37.9504 43.4888 38.6086 43.7576 39.3079 43.7576C40.0072 43.7576 40.6654 43.4888 41.1594 42.9998C41.6547 42.5107 41.9271 41.8623 41.9271 41.1707C41.9271 40.479 39.8525 33.3288 39.8525 33.3288Z" fill="#994530"/>
<path d="M55.1405 27.9091C54.9736 27.381 54.2168 27.381 54.0513 27.9091C54.0513 27.9091 51.9767 35.0607 51.9767 35.751C51.9767 36.4413 52.2491 37.0911 52.7444 37.5801C53.2384 38.0691 53.8966 38.3379 54.5959 38.3379C55.2952 38.3379 55.9534 38.0691 56.4474 37.5801C56.9427 37.0911 57.2151 36.4426 57.2151 35.751C57.2151 35.0593 55.1405 27.9091 55.1405 27.9091Z" fill="#994530"/>
<path d="M30.2736 45.5043C30.1066 44.9761 29.3499 44.9761 29.1843 45.5043C29.1843 45.5043 27.1098 52.6558 27.1098 53.3461C27.1098 54.0364 27.3821 54.6862 27.8775 55.1752C28.3715 55.6642 29.0297 55.9331 29.729 55.9331C30.4282 55.9331 31.0864 55.6642 31.5804 55.1752C32.0758 54.6862 32.3481 54.0378 32.3481 53.3461C32.3481 52.6545 30.2736 45.5043 30.2736 45.5043Z" fill="#994530"/>
<path d="M39.8525 57.6284C39.6856 57.1003 38.9289 57.1003 38.7633 57.6284C38.7633 57.6284 36.6888 64.78 36.6888 65.4703C36.6888 66.1606 36.9611 66.8104 37.4564 67.2994C37.9504 67.7884 38.6086 68.0572 39.3079 68.0572C40.0072 68.0572 40.6654 67.7884 41.1594 67.2994C41.6547 66.8104 41.9271 66.1619 41.9271 65.4703C41.9271 64.7786 39.8525 57.6284 39.8525 57.6284Z" fill="#994530"/>
<path d="M49.4315 45.4867C49.2645 44.9585 48.5078 44.9585 48.3422 45.4867C48.3422 45.4867 46.2677 52.6383 46.2677 53.3286C46.2677 54.0189 46.54 54.6686 47.0354 55.1577C47.5294 55.6467 48.1876 55.9155 48.8869 55.9155C49.5861 55.9155 50.2443 55.6467 50.7383 55.1577C51.2337 54.6686 51.506 54.0202 51.506 53.3286C51.506 52.6369 49.4315 45.4867 49.4315 45.4867Z" fill="#994530"/>
</svg>
