<?xml version="1.0" encoding="UTF-8"?>
<svg viewBox="0 0 425.41058 436.26791" xmlns="http://www.w3.org/2000/svg" xmlns:xlink="http://www.w3.org/1999/xlink">
 <defs>
  <filter id="aa">
   <feGaussianBlur stdDeviation="4.08324"/>
  </filter>
  <filter id="z">
   <feGaussianBlur stdDeviation=".31697"/>
  </filter>
  <filter id="j">
   <feGaussianBlur stdDeviation=".61634"/>
  </filter>
  <filter id="y">
   <feGaussianBlur stdDeviation="1.9466"/>
  </filter>
  <filter id="x">
   <feGaussianBlur stdDeviation="2.97271"/>
  </filter>
  <filter id="a" x="-.21976" y="-.29901" width="1.4395" height="1.598">
   <feGaussianBlur stdDeviation=".91649"/>
  </filter>
  <filter id="i" x="-.24277" y="-.2246" width="1.4855" height="1.4492">
   <feGaussianBlur stdDeviation="19.27319"/>
  </filter>
  <filter id="w" x="-.13754" y="-.1425" width="1.2751" height="1.285">
   <feGaussianBlur stdDeviation="10.27553"/>
  </filter>
  <linearGradient id="c">
   <stop stop-color="#ff6900" offset="0"/>
   <stop stop-color="#f00" offset=".6376"/>
   <stop stop-color="#db0000" offset="1"/>
  </linearGradient>
  <linearGradient id="d">
   <stop stop-color="#9b7e2a" offset="0"/>
   <stop stop-color="#cdb42a" offset=".53571"/>
   <stop stop-color="#ffea2a" offset="1"/>
  </linearGradient>
  <linearGradient id="v" x1="55.313" x2="152.09" y1="416.52" y2="529.06" gradientUnits="userSpaceOnUse" spreadMethod="reflect">
   <stop stop-color="#a00" stop-opacity=".63918" offset="0"/>
   <stop stop-color="#a00" stop-opacity="0" offset="1"/>
  </linearGradient>
  <radialGradient id="l" cx="377.24" cy="507.49" r="44.151" gradientTransform="matrix(1.5896 1.0437 -.58709 .93581 63.859 -315.81)" gradientUnits="userSpaceOnUse" spreadMethod="reflect">
   <stop stop-color="#ffe6c0" offset="0"/>
   <stop stop-color="#e2a39b" offset=".40345"/>
   <stop stop-color="#ffa88b" offset=".43449"/>
   <stop stop-color="#ffd3c3" offset="1"/>
  </radialGradient>
  <radialGradient id="f" cx="286.43" cy="606.59" r="16.446" gradientUnits="userSpaceOnUse">
   <stop stop-color="#ff6900" offset="0"/>
   <stop stop-color="#f00" offset=".78571"/>
   <stop stop-color="#db0000" offset="1"/>
  </radialGradient>
  <radialGradient id="m" cx="178.77" cy="702.61" r="96.986" fx="123.91" fy="707.26" gradientTransform="matrix(-.32324 .17118 -.76735 -1.449 927.8 1585.6)" gradientUnits="userSpaceOnUse" spreadMethod="reflect">
   <stop stop-color="#ffe6b8" offset="0"/>
   <stop stop-color="#ffd0c3" offset=".50333"/>
   <stop stop-color="#ffe0b6" offset=".66833"/>
   <stop stop-color="#ffd3c3" offset="1"/>
  </radialGradient>
  <radialGradient id="u" cx="213.38" cy="670.98" r="89.948" gradientTransform="matrix(.32345 -.082082 .068597 .27031 110.6 259.49)" gradientUnits="userSpaceOnUse" spreadMethod="reflect">
   <stop stop-color="#ffe6d5" offset="0"/>
   <stop stop-color="#fffff2" stop-opacity=".91765" offset="1"/>
  </radialGradient>
  <radialGradient id="t" cx="295.63" cy="628.75" r="72.116" gradientTransform="matrix(1.7997 -1.4734 .48682 .59461 -573.73 445.24)" gradientUnits="userSpaceOnUse">
   <stop stop-color="#ffb091" offset="0"/>
   <stop stop-color="#ff8649" offset="1"/>
  </radialGradient>
  <radialGradient id="s" cx="295.63" cy="628.75" r="72.116" gradientTransform="matrix(1.7997 -1.4734 .48682 .59461 -573.73 445.24)" gradientUnits="userSpaceOnUse">
   <stop stop-color="#c02422" offset="0"/>
   <stop stop-color="#f50000" stop-opacity=".34021" offset="1"/>
  </radialGradient>
  <radialGradient id="o" cx="4.4807" cy="4.1304" r="82.891" fx="26.438" fy="-43.485" gradientTransform="matrix(.36154 -.92135 .38007 .14914 139.35 202.21)" gradientUnits="userSpaceOnUse">
   <stop stop-color="#008600" offset="0"/>
   <stop stop-color="#3cc000" offset="1"/>
  </radialGradient>
  <radialGradient id="n" cx="87.289" cy="432.53" r="82.866" fx="48.973" fy="466.25" gradientTransform="matrix(.72637 -.92504 1.0581 .83085 -275.28 -38.572)" gradientUnits="userSpaceOnUse">
   <stop stop-color="#ff6900" offset="0"/>
   <stop stop-color="#f00" offset=".51269"/>
   <stop stop-color="#db0000" offset="1"/>
  </radialGradient>
  <radialGradient id="g" cx="375.98" cy="630.62" r="5.0044" gradientTransform="matrix(1 0 0 .73499 8.44 166.19)" gradientUnits="userSpaceOnUse" xlink:href="#d"/>
  <radialGradient id="k" cx="375.98" cy="630.62" r="5.0044" gradientTransform="matrix(1 0 0 .73499 -94.161 228.79)" gradientUnits="userSpaceOnUse" xlink:href="#d"/>
  <radialGradient id="b" cx="375.98" cy="630.62" r="5.0044" gradientTransform="matrix(1 0 0 .73499 -149.86 53.732)" gradientUnits="userSpaceOnUse" xlink:href="#d"/>
  <radialGradient id="e" cx="375.98" cy="630.62" r="5.0044" gradientTransform="matrix(1 0 0 .73499 3.7511 171.81)" gradientUnits="userSpaceOnUse" xlink:href="#d"/>
  <radialGradient id="h" cx="297.67" cy="605.74" r="95.266" gradientTransform="matrix(1 0 0 1.0809 20.834 -48.337)" gradientUnits="userSpaceOnUse" xlink:href="#c"/>
  <radialGradient id="r" cx="332.53" cy="590.24" r="108.44" gradientTransform="matrix(-1.4889 .91139 -.49859 -.81451 1091.9 554.15)" gradientUnits="userSpaceOnUse" xlink:href="#c" spreadMethod="reflect"/>
  <radialGradient id="q" cx="166.68" cy="1031.7" r="95.266" gradientTransform="matrix(1.8855 -1.2569 .65039 .97569 -837.94 -385.99)" gradientUnits="userSpaceOnUse" xlink:href="#c"/>
  <radialGradient id="p" cx="166.68" cy="1031.7" r="95.266" gradientTransform="matrix(1.8855 -1.2569 .65039 .97569 -837.94 -385.99)" gradientUnits="userSpaceOnUse" xlink:href="#c"/>
 </defs>
 <g transform="translate(-54.287 -96.916)">
  <path transform="matrix(1.6737 0 0 .5286 -273.39 -40.263)" d="m324.54 503.97c113.09 9.0277 119.06 190.4 0.02053 198.86-130.98 32.21-118.51-141.97-32.286-187.13l15.253-7.4752 17.012-4.2505z" fill="#630e02" fill-rule="evenodd" filter="url(#i)" stroke="url(#h)"/>
  <path d="m108.61 223.66c-24.504 75.878 68.272 127.21 141.14 120 35.78 12.071 74.925 9.3442 94.037-14.475 20.569-25.635 31.082-60.043 5.223-96.064-42.295-46.048-86.332-139.29-161.48-110.06-43.385 14.709-59.949 63.927-78.911 100.6z" fill="url(#n)" fill-rule="evenodd" stroke="#a00" stroke-width="1.311"/>
  <path transform="matrix(.99985 0 0 1.0593 -29.982 -243.86)" d="m324.54 503.97c40.442-0.02098 72.926 34.369 82.986 71.508 10.952 36.258 2.7222 80.461-28.224 104.52-16.69 11.572-36.475 18.065-55.913 23.452-28.222 7.5498-62.622 4.3722-82.311-19.575-23.683-28.175-20.588-69.961-3.874-100.79 13.354-26.043 31.036-51.03 54.947-68.307 9.6834-6.1732 20.845-10.33 32.389-10.81z" fill="#630e02" fill-rule="evenodd" filter="url(#i)" stroke="url(#h)"/>
  <path transform="matrix(-.72793 -.75467 1.068 -.17319 -187.7 520.02)" d="m231.12 517.23c0 2.0303-2.242 3.6781-5.0044 3.6781s-5.0044-1.6478-5.0044-3.6781 2.242-3.6781 5.0044-3.6781 5.0044 1.6478 5.0044 3.6781z" fill="url(#b)" filter="url(#a)" opacity=".78889"/>
  <path transform="matrix(-.72793 -.75467 1.068 -.17319 -203.06 477.99)" d="m231.12 517.23c0 2.0303-2.242 3.6781-5.0044 3.6781s-5.0044-1.6478-5.0044-3.6781 2.242-3.6781 5.0044-3.6781 5.0044 1.6478 5.0044 3.6781z" fill="url(#b)" filter="url(#a)"/>
  <path transform="matrix(-.55759 -.57822 .8171 -.13177 -115.23 467.82)" d="m231.12 517.23c0 2.0303-2.242 3.6781-5.0044 3.6781s-5.0044-1.6478-5.0044-3.6781 2.242-3.6781 5.0044-3.6781 5.0044 1.6478 5.0044 3.6781z" fill="url(#b)" filter="url(#a)" opacity=".78889"/>
  <path transform="matrix(-.72793 -.75467 1.068 -.17319 -135.28 516.87)" d="m231.12 517.23c0 2.0303-2.242 3.6781-5.0044 3.6781s-5.0044-1.6478-5.0044-3.6781 2.242-3.6781 5.0044-3.6781 5.0044 1.6478 5.0044 3.6781z" fill="url(#b)" filter="url(#a)"/>
  <path transform="matrix(-.72793 -.75467 1.068 -.17319 -136.06 472.33)" d="m231.12 517.23c0 2.0303-2.242 3.6781-5.0044 3.6781s-5.0044-1.6478-5.0044-3.6781 2.242-3.6781 5.0044-3.6781 5.0044 1.6478 5.0044 3.6781z" fill="url(#b)" filter="url(#a)" opacity=".88333"/>
  <path transform="matrix(-.72793 -.75467 1.068 -.17319 -92.055 510.75)" d="m231.12 517.23c0 2.0303-2.242 3.6781-5.0044 3.6781s-5.0044-1.6478-5.0044-3.6781 2.242-3.6781 5.0044-3.6781 5.0044 1.6478 5.0044 3.6781z" fill="url(#b)" filter="url(#a)" opacity=".88333"/>
  <path transform="matrix(-.72793 -.75467 1.068 -.17319 -103.26 552.58)" d="m231.12 517.23c0 2.0303-2.242 3.6781-5.0044 3.6781s-5.0044-1.6478-5.0044-3.6781 2.242-3.6781 5.0044-3.6781 5.0044 1.6478 5.0044 3.6781z" fill="url(#b)" filter="url(#a)"/>
  <path transform="matrix(-.55759 -.57822 .8171 -.13177 -49.795 481.55)" d="m231.12 517.23c0 2.0303-2.242 3.6781-5.0044 3.6781s-5.0044-1.6478-5.0044-3.6781 2.242-3.6781 5.0044-3.6781 5.0044 1.6478 5.0044 3.6781z" fill="url(#b)" filter="url(#a)"/>
  <path transform="matrix(-.72793 -.75467 1.068 -.17319 -182.64 563.65)" d="m231.12 517.23c0 2.0303-2.242 3.6781-5.0044 3.6781s-5.0044-1.6478-5.0044-3.6781 2.242-3.6781 5.0044-3.6781 5.0044 1.6478 5.0044 3.6781z" fill="url(#b)" filter="url(#a)" opacity=".78889"/>
  <path transform="matrix(-.72793 -.75467 1.068 -.17319 -213.42 555.95)" d="m231.12 517.23c0 2.0303-2.242 3.6781-5.0044 3.6781s-5.0044-1.6478-5.0044-3.6781 2.242-3.6781 5.0044-3.6781 5.0044 1.6478 5.0044 3.6781z" fill="url(#b)" filter="url(#a)" opacity=".78889"/>
  <path transform="matrix(-.72793 -.75467 1.068 -.17319 -236.49 517.47)" d="m231.12 517.23c0 2.0303-2.242 3.6781-5.0044 3.6781s-5.0044-1.6478-5.0044-3.6781 2.242-3.6781 5.0044-3.6781 5.0044 1.6478 5.0044 3.6781z" fill="url(#b)" filter="url(#a)"/>
  <path transform="matrix(-.72793 -.75467 1.068 -.17319 -235.96 478.27)" d="m231.12 517.23c0 2.0303-2.242 3.6781-5.0044 3.6781s-5.0044-1.6478-5.0044-3.6781 2.242-3.6781 5.0044-3.6781 5.0044 1.6478 5.0044 3.6781z" fill="url(#b)" filter="url(#a)"/>
  <path transform="matrix(-.72793 -.75467 1.068 -.17319 -196.89 436.93)" d="m231.12 517.23c0 2.0303-2.242 3.6781-5.0044 3.6781s-5.0044-1.6478-5.0044-3.6781 2.242-3.6781 5.0044-3.6781 5.0044 1.6478 5.0044 3.6781z" fill="url(#b)" filter="url(#a)"/>
  <path transform="matrix(-.72793 -.75467 1.068 -.17319 -155.91 426.26)" d="m231.12 517.23c0 2.0303-2.242 3.6781-5.0044 3.6781s-5.0044-1.6478-5.0044-3.6781 2.242-3.6781 5.0044-3.6781 5.0044 1.6478 5.0044 3.6781z" fill="url(#b)" filter="url(#a)"/>
  <path transform="matrix(-.72793 -.75467 1.068 -.17319 -118 453.72)" d="m231.12 517.23c0 2.0303-2.242 3.6781-5.0044 3.6781s-5.0044-1.6478-5.0044-3.6781 2.242-3.6781 5.0044-3.6781 5.0044 1.6478 5.0044 3.6781z" fill="url(#b)" filter="url(#a)" opacity=".88333"/>
  <path transform="matrix(-.72793 -.75467 1.068 -.17319 -78.597 473.46)" d="m231.12 517.23c0 2.0303-2.242 3.6781-5.0044 3.6781s-5.0044-1.6478-5.0044-3.6781 2.242-3.6781 5.0044-3.6781 5.0044 1.6478 5.0044 3.6781z" fill="url(#b)" filter="url(#a)" opacity=".88333"/>
  <path transform="matrix(-.72793 -.75467 1.068 -.17319 -51.741 497.41)" d="m231.12 517.23c0 2.0303-2.242 3.6781-5.0044 3.6781s-5.0044-1.6478-5.0044-3.6781 2.242-3.6781 5.0044-3.6781 5.0044 1.6478 5.0044 3.6781z" fill="url(#b)" filter="url(#a)"/>
  <path transform="matrix(-.72793 -.75467 1.068 -.17319 -49.083 540.36)" d="m231.12 517.23c0 2.0303-2.242 3.6781-5.0044 3.6781s-5.0044-1.6478-5.0044-3.6781 2.242-3.6781 5.0044-3.6781 5.0044 1.6478 5.0044 3.6781z" fill="url(#b)" filter="url(#a)" opacity=".76111"/>
  <path transform="matrix(-.72793 -.75467 1.068 -.17319 -64.793 573.11)" d="m231.12 517.23c0 2.0303-2.242 3.6781-5.0044 3.6781s-5.0044-1.6478-5.0044-3.6781 2.242-3.6781 5.0044-3.6781 5.0044 1.6478 5.0044 3.6781z" fill="url(#b)" filter="url(#a)" opacity=".76111"/>
  <path transform="matrix(-.72793 -.75467 1.068 -.17319 -81.643 587.46)" d="m231.12 517.23c0 2.0303-2.242 3.6781-5.0044 3.6781s-5.0044-1.6478-5.0044-3.6781 2.242-3.6781 5.0044-3.6781 5.0044 1.6478 5.0044 3.6781z" fill="url(#b)" filter="url(#a)" opacity=".76111"/>
  <path transform="matrix(-.73683 -.74709 1.1946 -.28103 -138.67 598.87)" d="m231.12 517.23c0 2.0303-2.242 3.6781-5.0044 3.6781s-5.0044-1.6478-5.0044-3.6781 2.242-3.6781 5.0044-3.6781 5.0044 1.6478 5.0044 3.6781z" fill="url(#b)" filter="url(#a)"/>
  <path transform="matrix(-.48789 -.5088 .69562 -.097302 7.8833 486.51)" d="m231.12 517.23c0 2.0303-2.242 3.6781-5.0044 3.6781s-5.0044-1.6478-5.0044-3.6781 2.242-3.6781 5.0044-3.6781 5.0044 1.6478 5.0044 3.6781z" fill="url(#b)" filter="url(#a)"/>
  <path transform="matrix(-.72793 -.75467 1.068 -.17319 -159.73 530.12)" d="m231.12 517.23c0 2.0303-2.242 3.6781-5.0044 3.6781s-5.0044-1.6478-5.0044-3.6781 2.242-3.6781 5.0044-3.6781 5.0044 1.6478 5.0044 3.6781z" fill="url(#b)" filter="url(#a)"/>
  <path transform="matrix(-.72793 -.75467 1.068 -.17319 -186.77 399.75)" d="m231.12 517.23c0 2.0303-2.242 3.6781-5.0044 3.6781s-5.0044-1.6478-5.0044-3.6781 2.242-3.6781 5.0044-3.6781 5.0044 1.6478 5.0044 3.6781z" fill="url(#b)" filter="url(#a)"/>
  <path transform="matrix(-.33861 -.33574 .60027 -.17687 -77.761 344.31)" d="m231.12 517.23c0 2.0303-2.242 3.6781-5.0044 3.6781s-5.0044-1.6478-5.0044-3.6781 2.242-3.6781 5.0044-3.6781 5.0044 1.6478 5.0044 3.6781z" fill="url(#b)" filter="url(#a)"/>
  <path transform="matrix(-.73683 -.74709 1.1946 -.28103 -328.95 557.44)" d="m231.12 517.23c0 2.0303-2.242 3.6781-5.0044 3.6781s-5.0044-1.6478-5.0044-3.6781 2.242-3.6781 5.0044-3.6781 5.0044 1.6478 5.0044 3.6781z" fill="url(#b)" filter="url(#a)"/>
  <path transform="matrix(-.73683 -.74709 1.1946 -.28103 -312.67 593.63)" d="m231.12 517.23c0 2.0303-2.242 3.6781-5.0044 3.6781s-5.0044-1.6478-5.0044-3.6781 2.242-3.6781 5.0044-3.6781 5.0044 1.6478 5.0044 3.6781z" fill="url(#b)" filter="url(#a)" opacity=".78889"/>
  <path transform="matrix(-.5644 -.57242 .91394 -.21422 -123.32 446.43)" d="m231.12 517.23c0 2.0303-2.242 3.6781-5.0044 3.6781s-5.0044-1.6478-5.0044-3.6781 2.242-3.6781 5.0044-3.6781 5.0044 1.6478 5.0044 3.6781z" fill="url(#b)" filter="url(#a)"/>
  <path transform="matrix(-.73683 -.74709 1.1946 -.28103 -186.54 478.17)" d="m231.12 517.23c0 2.0303-2.242 3.6781-5.0044 3.6781s-5.0044-1.6478-5.0044-3.6781 2.242-3.6781 5.0044-3.6781 5.0044 1.6478 5.0044 3.6781z" fill="url(#b)" filter="url(#a)" opacity=".88333"/>
  <path transform="matrix(-.5644 -.57242 .91394 -.21422 -103.01 400.69)" d="m231.12 517.23c0 2.0303-2.242 3.6781-5.0044 3.6781s-5.0044-1.6478-5.0044-3.6781 2.242-3.6781 5.0044-3.6781 5.0044 1.6478 5.0044 3.6781z" fill="url(#b)" filter="url(#a)"/>
  <path d="m198.85 105.07c-18.407 19.51-48.657 16.158-68.035 31.605 14.284 20.177-6.7206 9.2947-13.13 23.629-6.6468 14.865-20.664 9.1533-24.549 14.879 17.583-3.5377 43.723 14.637 7.7119 44.526 13.053 7.365-13.107 20.005 21.857 23.356 52.292-66.656 6.55-48.277 14.776-64.037 30.835-20.995 34.8 12.034 41.019 19.337 17.794-55.456-32.732-51.985 3.6741-62.269 4.4062-5.2658 20.877-11.045 40.49-13.514 3.3911-0.42691-6.6884-13.952-23.815-17.511zm-13.406 34.344c-5.4782 1.0535 0.56653 7.3784 0 0zm-49.469 98.469c-7.8189 1.293 3.2134 6.2245 0 0z" fill="url(#o)" fill-rule="evenodd" stroke="#008e00" stroke-width="1.311"/>
  <path transform="matrix(-.55759 -.57822 .8171 -.13177 -63.081 491.42)" d="m231.12 517.23c0 2.0303-2.242 3.6781-5.0044 3.6781s-5.0044-1.6478-5.0044-3.6781 2.242-3.6781 5.0044-3.6781 5.0044 1.6478 5.0044 3.6781z" fill="url(#b)" filter="url(#a)" opacity=".78889"/>
  <path transform="matrix(-.55759 -.57822 .8171 -.13177 -44.12 498.41)" d="m231.12 517.23c0 2.0303-2.242 3.6781-5.0044 3.6781s-5.0044-1.6478-5.0044-3.6781 2.242-3.6781 5.0044-3.6781 5.0044 1.6478 5.0044 3.6781z" fill="url(#b)" filter="url(#a)" opacity=".78889"/>
  <path transform="matrix(-.55759 -.57822 .8171 -.13177 -57.963 440.06)" d="m231.12 517.23c0 2.0303-2.242 3.6781-5.0044 3.6781s-5.0044-1.6478-5.0044-3.6781 2.242-3.6781 5.0044-3.6781 5.0044 1.6478 5.0044 3.6781z" fill="url(#b)" filter="url(#a)"/>
  <path transform="matrix(-.55759 -.57822 .8171 -.13177 -81.25 437.36)" d="m231.12 517.23c0 2.0303-2.242 3.6781-5.0044 3.6781s-5.0044-1.6478-5.0044-3.6781 2.242-3.6781 5.0044-3.6781 5.0044 1.6478 5.0044 3.6781z" fill="url(#b)" filter="url(#a)"/>
  <path transform="matrix(-.55759 -.57822 .8171 -.13177 -101.12 436.87)" d="m231.12 517.23c0 2.0303-2.242 3.6781-5.0044 3.6781s-5.0044-1.6478-5.0044-3.6781 2.242-3.6781 5.0044-3.6781 5.0044 1.6478 5.0044 3.6781z" fill="url(#b)" filter="url(#a)" opacity=".78889"/>
  <path transform="matrix(-.55759 -.57822 .8171 -.13177 -113.44 442.24)" d="m231.12 517.23c0 2.0303-2.242 3.6781-5.0044 3.6781s-5.0044-1.6478-5.0044-3.6781 2.242-3.6781 5.0044-3.6781 5.0044 1.6478 5.0044 3.6781z" fill="url(#b)" filter="url(#a)" opacity=".78889"/>
  <path transform="matrix(-.55759 -.57822 .8171 -.13177 -123.65 448.89)" d="m231.12 517.23c0 2.0303-2.242 3.6781-5.0044 3.6781s-5.0044-1.6478-5.0044-3.6781 2.242-3.6781 5.0044-3.6781 5.0044 1.6478 5.0044 3.6781z" fill="url(#b)" filter="url(#a)" opacity=".78889"/>
  <path transform="matrix(-.55759 -.57822 .8171 -.13177 -96.635 474.01)" d="m231.12 517.23c0 2.0303-2.242 3.6781-5.0044 3.6781s-5.0044-1.6478-5.0044-3.6781 2.242-3.6781 5.0044-3.6781 5.0044 1.6478 5.0044 3.6781z" fill="url(#b)" filter="url(#a)" opacity=".78889"/>
  <path transform="matrix(-.55759 -.57822 .8171 -.13177 -103.67 492.8)" d="m231.12 517.23c0 2.0303-2.242 3.6781-5.0044 3.6781s-5.0044-1.6478-5.0044-3.6781 2.242-3.6781 5.0044-3.6781 5.0044 1.6478 5.0044 3.6781z" fill="url(#b)" filter="url(#a)" opacity=".78889"/>
  <path transform="matrix(-.55759 -.57822 .8171 -.13177 -117.63 480.62)" d="m231.12 517.23c0 2.0303-2.242 3.6781-5.0044 3.6781s-5.0044-1.6478-5.0044-3.6781 2.242-3.6781 5.0044-3.6781 5.0044 1.6478 5.0044 3.6781z" fill="url(#b)" filter="url(#a)" opacity=".78889"/>
  <path transform="matrix(-.55759 -.57822 .8171 -.13177 -149.23 498.82)" d="m231.12 517.23c0 2.0303-2.242 3.6781-5.0044 3.6781s-5.0044-1.6478-5.0044-3.6781 2.242-3.6781 5.0044-3.6781 5.0044 1.6478 5.0044 3.6781z" fill="url(#b)" filter="url(#a)" opacity=".78889"/>
  <path transform="matrix(-.55759 -.57822 .8171 -.13177 -124.28 511.88)" d="m231.12 517.23c0 2.0303-2.242 3.6781-5.0044 3.6781s-5.0044-1.6478-5.0044-3.6781 2.242-3.6781 5.0044-3.6781 5.0044 1.6478 5.0044 3.6781z" fill="url(#b)" filter="url(#a)" opacity=".78889"/>
  <path transform="matrix(-.55759 -.57822 .8171 -.13177 -99.702 519.11)" d="m231.12 517.23c0 2.0303-2.242 3.6781-5.0044 3.6781s-5.0044-1.6478-5.0044-3.6781 2.242-3.6781 5.0044-3.6781 5.0044 1.6478 5.0044 3.6781z" fill="url(#b)" filter="url(#a)" opacity=".78889"/>
  <path transform="matrix(-.55759 -.57822 .8171 -.13177 -105.38 510.63)" d="m231.12 517.23c0 2.0303-2.242 3.6781-5.0044 3.6781s-5.0044-1.6478-5.0044-3.6781 2.242-3.6781 5.0044-3.6781 5.0044 1.6478 5.0044 3.6781z" fill="url(#b)" filter="url(#a)" opacity=".78889"/>
  <path transform="matrix(-.55759 -.57822 .8171 -.13177 -60.271 523.93)" d="m231.12 517.23c0 2.0303-2.242 3.6781-5.0044 3.6781s-5.0044-1.6478-5.0044-3.6781 2.242-3.6781 5.0044-3.6781 5.0044 1.6478 5.0044 3.6781z" fill="url(#b)" filter="url(#a)"/>
  <path transform="matrix(-.55759 -.57822 .8171 -.13177 -78.14 519.18)" d="m231.12 517.23c0 2.0303-2.242 3.6781-5.0044 3.6781s-5.0044-1.6478-5.0044-3.6781 2.242-3.6781 5.0044-3.6781 5.0044 1.6478 5.0044 3.6781z" fill="url(#b)" filter="url(#a)" opacity=".78889"/>
  <path transform="matrix(-.55759 -.57822 .8171 -.13177 -55.948 507.97)" d="m231.12 517.23c0 2.0303-2.242 3.6781-5.0044 3.6781s-5.0044-1.6478-5.0044-3.6781 2.242-3.6781 5.0044-3.6781 5.0044 1.6478 5.0044 3.6781z" fill="url(#b)" filter="url(#a)" opacity=".78889"/>
  <path transform="matrix(-.55759 -.57822 .8171 -.13177 -77.659 489.08)" d="m231.12 517.23c0 2.0303-2.242 3.6781-5.0044 3.6781s-5.0044-1.6478-5.0044-3.6781 2.242-3.6781 5.0044-3.6781 5.0044 1.6478 5.0044 3.6781z" fill="url(#b)" filter="url(#a)" opacity=".78889"/>
  <path transform="matrix(-.55759 -.57822 .8171 -.13177 -72.256 504.44)" d="m231.12 517.23c0 2.0303-2.242 3.6781-5.0044 3.6781s-5.0044-1.6478-5.0044-3.6781 2.242-3.6781 5.0044-3.6781 5.0044 1.6478 5.0044 3.6781z" fill="url(#b)" filter="url(#a)" opacity=".78889"/>
  <path transform="matrix(-.55759 -.57822 .8171 -.13177 -137.4 475.44)" d="m231.12 517.23c0 2.0303-2.242 3.6781-5.0044 3.6781s-5.0044-1.6478-5.0044-3.6781 2.242-3.6781 5.0044-3.6781 5.0044 1.6478 5.0044 3.6781z" fill="url(#b)" filter="url(#a)" opacity=".78889"/>
  <path transform="matrix(-.55759 -.57822 .8171 -.13177 -162.46 460.43)" d="m231.12 517.23c0 2.0303-2.242 3.6781-5.0044 3.6781s-5.0044-1.6478-5.0044-3.6781 2.242-3.6781 5.0044-3.6781 5.0044 1.6478 5.0044 3.6781z" fill="url(#b)" filter="url(#a)"/>
  <path transform="matrix(-.55759 -.57822 .8171 -.13177 -136.66 431.81)" d="m231.12 517.23c0 2.0303-2.242 3.6781-5.0044 3.6781s-5.0044-1.6478-5.0044-3.6781 2.242-3.6781 5.0044-3.6781 5.0044 1.6478 5.0044 3.6781z" fill="url(#b)" filter="url(#a)"/>
  <path transform="matrix(-.55759 -.57822 .8171 -.13177 -170.79 484.92)" d="m231.12 517.23c0 2.0303-2.242 3.6781-5.0044 3.6781s-5.0044-1.6478-5.0044-3.6781 2.242-3.6781 5.0044-3.6781 5.0044 1.6478 5.0044 3.6781z" fill="url(#b)" filter="url(#a)" opacity=".78889"/>
  <path transform="matrix(-.55759 -.57822 .8171 -.13177 -144.79 512.45)" d="m231.12 517.23c0 2.0303-2.242 3.6781-5.0044 3.6781s-5.0044-1.6478-5.0044-3.6781 2.242-3.6781 5.0044-3.6781 5.0044 1.6478 5.0044 3.6781z" fill="url(#b)" filter="url(#a)" opacity=".78889"/>
  <path transform="matrix(-.55759 -.57822 .8171 -.13177 -115.11 525.06)" d="m231.12 517.23c0 2.0303-2.242 3.6781-5.0044 3.6781s-5.0044-1.6478-5.0044-3.6781 2.242-3.6781 5.0044-3.6781 5.0044 1.6478 5.0044 3.6781z" fill="url(#b)" filter="url(#a)" opacity=".78889"/>
  <path transform="matrix(-.55759 -.57822 .8171 -.13177 -83.682 533.11)" d="m231.12 517.23c0 2.0303-2.242 3.6781-5.0044 3.6781s-5.0044-1.6478-5.0044-3.6781 2.242-3.6781 5.0044-3.6781 5.0044 1.6478 5.0044 3.6781z" fill="url(#b)" filter="url(#a)" opacity=".78889"/>
  <path transform="matrix(-.55759 -.57822 .8171 -.13177 -64.835 536.01)" d="m231.12 517.23c0 2.0303-2.242 3.6781-5.0044 3.6781s-5.0044-1.6478-5.0044-3.6781 2.242-3.6781 5.0044-3.6781 5.0044 1.6478 5.0044 3.6781z" fill="url(#b)" filter="url(#a)"/>
  <path transform="matrix(-.55759 -.57822 .8171 -.13177 -42.844 534.18)" d="m231.12 517.23c0 2.0303-2.242 3.6781-5.0044 3.6781s-5.0044-1.6478-5.0044-3.6781 2.242-3.6781 5.0044-3.6781 5.0044 1.6478 5.0044 3.6781z" fill="url(#b)" filter="url(#a)"/>
  <path transform="matrix(-.55759 -.57822 .8171 -.13177 -17.238 539)" d="m231.12 517.23c0 2.0303-2.242 3.6781-5.0044 3.6781s-5.0044-1.6478-5.0044-3.6781 2.242-3.6781 5.0044-3.6781 5.0044 1.6478 5.0044 3.6781z" fill="url(#b)" filter="url(#a)" opacity=".76111"/>
  <path transform="matrix(-.55759 -.57822 .8171 -.13177 -12.421 527.22)" d="m231.12 517.23c0 2.0303-2.242 3.6781-5.0044 3.6781s-5.0044-1.6478-5.0044-3.6781 2.242-3.6781 5.0044-3.6781 5.0044 1.6478 5.0044 3.6781z" fill="url(#b)" filter="url(#a)" opacity=".76111"/>
  <path transform="matrix(-.55759 -.57822 .8171 -.13177 -25.071 529.8)" d="m231.12 517.23c0 2.0303-2.242 3.6781-5.0044 3.6781s-5.0044-1.6478-5.0044-3.6781 2.242-3.6781 5.0044-3.6781 5.0044 1.6478 5.0044 3.6781z" fill="url(#b)" filter="url(#a)" opacity=".76111"/>
  <path transform="matrix(-.55759 -.57822 .8171 -.13177 -28.024 514.91)" d="m231.12 517.23c0 2.0303-2.242 3.6781-5.0044 3.6781s-5.0044-1.6478-5.0044-3.6781 2.242-3.6781 5.0044-3.6781 5.0044 1.6478 5.0044 3.6781z" fill="url(#b)" filter="url(#a)"/>
  <path transform="matrix(-.55759 -.57822 .8171 -.13177 -5.4065 515.62)" d="m231.12 517.23c0 2.0303-2.242 3.6781-5.0044 3.6781s-5.0044-1.6478-5.0044-3.6781 2.242-3.6781 5.0044-3.6781 5.0044 1.6478 5.0044 3.6781z" fill="url(#b)" filter="url(#a)" opacity=".76111"/>
  <path transform="matrix(-.55759 -.57822 .8171 -.13177 -21.711 498.27)" d="m231.12 517.23c0 2.0303-2.242 3.6781-5.0044 3.6781s-5.0044-1.6478-5.0044-3.6781 2.242-3.6781 5.0044-3.6781 5.0044 1.6478 5.0044 3.6781z" fill="url(#b)" filter="url(#a)"/>
  <path transform="matrix(-.55759 -.57822 .8171 -.13177 -25.189 476.15)" d="m231.12 517.23c0 2.0303-2.242 3.6781-5.0044 3.6781s-5.0044-1.6478-5.0044-3.6781 2.242-3.6781 5.0044-3.6781 5.0044 1.6478 5.0044 3.6781z" fill="url(#b)" filter="url(#a)"/>
  <path transform="matrix(-.55759 -.57822 .8171 -.13177 -30.961 482.6)" d="m231.12 517.23c0 2.0303-2.242 3.6781-5.0044 3.6781s-5.0044-1.6478-5.0044-3.6781 2.242-3.6781 5.0044-3.6781 5.0044 1.6478 5.0044 3.6781z" fill="url(#b)" filter="url(#a)"/>
  <path transform="matrix(-.55759 -.57822 .8171 -.13177 -50.783 467.73)" d="m231.12 517.23c0 2.0303-2.242 3.6781-5.0044 3.6781s-5.0044-1.6478-5.0044-3.6781 2.242-3.6781 5.0044-3.6781 5.0044 1.6478 5.0044 3.6781z" fill="url(#b)" filter="url(#a)"/>
  <path transform="matrix(-.55759 -.57822 .8171 -.13177 -69.714 452.11)" d="m231.12 517.23c0 2.0303-2.242 3.6781-5.0044 3.6781s-5.0044-1.6478-5.0044-3.6781 2.242-3.6781 5.0044-3.6781 5.0044 1.6478 5.0044 3.6781z" fill="url(#b)" filter="url(#a)"/>
  <path transform="matrix(-.55759 -.57822 .8171 -.13177 -68.708 429.24)" d="m231.12 517.23c0 2.0303-2.242 3.6781-5.0044 3.6781s-5.0044-1.6478-5.0044-3.6781 2.242-3.6781 5.0044-3.6781 5.0044 1.6478 5.0044 3.6781z" fill="url(#b)" filter="url(#a)"/>
  <path transform="matrix(-.55759 -.57822 .8171 -.13177 -85.618 415.99)" d="m231.12 517.23c0 2.0303-2.242 3.6781-5.0044 3.6781s-5.0044-1.6478-5.0044-3.6781 2.242-3.6781 5.0044-3.6781 5.0044 1.6478 5.0044 3.6781z" fill="url(#b)" filter="url(#a)"/>
  <path transform="matrix(-.55759 -.57822 .8171 -.13177 -93.423 423.66)" d="m231.12 517.23c0 2.0303-2.242 3.6781-5.0044 3.6781s-5.0044-1.6478-5.0044-3.6781 2.242-3.6781 5.0044-3.6781 5.0044 1.6478 5.0044 3.6781z" fill="url(#b)" filter="url(#a)"/>
  <path transform="matrix(-.55759 -.57822 .8171 -.13177 -100.3 405.97)" d="m231.12 517.23c0 2.0303-2.242 3.6781-5.0044 3.6781s-5.0044-1.6478-5.0044-3.6781 2.242-3.6781 5.0044-3.6781 5.0044 1.6478 5.0044 3.6781z" fill="url(#b)" filter="url(#a)"/>
  <path transform="matrix(-.55759 -.57822 .8171 -.13177 -110.91 393.5)" d="m231.12 517.23c0 2.0303-2.242 3.6781-5.0044 3.6781s-5.0044-1.6478-5.0044-3.6781 2.242-3.6781 5.0044-3.6781 5.0044 1.6478 5.0044 3.6781z" fill="url(#b)" filter="url(#a)"/>
  <path transform="matrix(-.55759 -.57822 .8171 -.13177 -110.91 393.5)" d="m231.12 517.23c0 2.0303-2.242 3.6781-5.0044 3.6781s-5.0044-1.6478-5.0044-3.6781 2.242-3.6781 5.0044-3.6781 5.0044 1.6478 5.0044 3.6781z" fill="url(#b)" filter="url(#a)"/>
  <path transform="matrix(-.55759 -.57822 .8171 -.13177 -131.65 400.41)" d="m231.12 517.23c0 2.0303-2.242 3.6781-5.0044 3.6781s-5.0044-1.6478-5.0044-3.6781 2.242-3.6781 5.0044-3.6781 5.0044 1.6478 5.0044 3.6781z" fill="url(#b)" filter="url(#a)"/>
  <path transform="matrix(-.55759 -.57822 .8171 -.13177 -89.975 391.03)" d="m231.12 517.23c0 2.0303-2.242 3.6781-5.0044 3.6781s-5.0044-1.6478-5.0044-3.6781 2.242-3.6781 5.0044-3.6781 5.0044 1.6478 5.0044 3.6781z" fill="url(#b)" filter="url(#a)"/>
  <path transform="matrix(-.55759 -.57822 .8171 -.13177 -63.082 390.15)" d="m231.12 517.23c0 2.0303-2.242 3.6781-5.0044 3.6781s-5.0044-1.6478-5.0044-3.6781 2.242-3.6781 5.0044-3.6781 5.0044 1.6478 5.0044 3.6781z" fill="url(#b)" filter="url(#a)" opacity=".88333"/>
  <path transform="matrix(-.55759 -.57822 .8171 -.13177 -63.082 390.15)" d="m231.12 517.23c0 2.0303-2.242 3.6781-5.0044 3.6781s-5.0044-1.6478-5.0044-3.6781 2.242-3.6781 5.0044-3.6781 5.0044 1.6478 5.0044 3.6781z" fill="url(#b)" filter="url(#a)" opacity=".88333"/>
  <path transform="matrix(-.55759 -.57822 .8171 -.13177 -47.968 422.33)" d="m231.12 517.23c0 2.0303-2.242 3.6781-5.0044 3.6781s-5.0044-1.6478-5.0044-3.6781 2.242-3.6781 5.0044-3.6781 5.0044 1.6478 5.0044 3.6781z" fill="url(#b)" filter="url(#a)" opacity=".88333"/>
  <path transform="matrix(-.55759 -.57822 .8171 -.13177 -60.594 417.73)" d="m231.12 517.23c0 2.0303-2.242 3.6781-5.0044 3.6781s-5.0044-1.6478-5.0044-3.6781 2.242-3.6781 5.0044-3.6781 5.0044 1.6478 5.0044 3.6781z" fill="url(#b)" filter="url(#a)"/>
  <path transform="matrix(-.55759 -.57822 .8171 -.13177 -29.149 446.24)" d="m231.12 517.23c0 2.0303-2.242 3.6781-5.0044 3.6781s-5.0044-1.6478-5.0044-3.6781 2.242-3.6781 5.0044-3.6781 5.0044 1.6478 5.0044 3.6781z" fill="url(#b)" filter="url(#a)" opacity=".88333"/>
  <path transform="matrix(-.55759 -.57822 .8171 -.13177 -14.625 465.1)" d="m231.12 517.23c0 2.0303-2.242 3.6781-5.0044 3.6781s-5.0044-1.6478-5.0044-3.6781 2.242-3.6781 5.0044-3.6781 5.0044 1.6478 5.0044 3.6781z" fill="url(#b)" filter="url(#a)" opacity=".88333"/>
  <path transform="matrix(-.55759 -.57822 .8171 -.13177 2.5419 464.82)" d="m231.12 517.23c0 2.0303-2.242 3.6781-5.0044 3.6781s-5.0044-1.6478-5.0044-3.6781 2.242-3.6781 5.0044-3.6781 5.0044 1.6478 5.0044 3.6781z" fill="url(#b)" filter="url(#a)"/>
  <path transform="matrix(-.55759 -.57822 .8171 -.13177 21.818 465.82)" d="m231.12 517.23c0 2.0303-2.242 3.6781-5.0044 3.6781s-5.0044-1.6478-5.0044-3.6781 2.242-3.6781 5.0044-3.6781 5.0044 1.6478 5.0044 3.6781z" fill="url(#b)" filter="url(#a)"/>
  <path transform="matrix(-.55759 -.57822 .8171 -.13177 8.6874 498.5)" d="m231.12 517.23c0 2.0303-2.242 3.6781-5.0044 3.6781s-5.0044-1.6478-5.0044-3.6781 2.242-3.6781 5.0044-3.6781 5.0044 1.6478 5.0044 3.6781z" fill="url(#b)" filter="url(#a)" opacity=".76111"/>
  <path transform="matrix(-.55759 -.57822 .8171 -.13177 35.757 495.42)" d="m231.12 517.23c0 2.0303-2.242 3.6781-5.0044 3.6781s-5.0044-1.6478-5.0044-3.6781 2.242-3.6781 5.0044-3.6781 5.0044 1.6478 5.0044 3.6781z" fill="url(#b)" filter="url(#a)" opacity=".76111"/>
  <path transform="matrix(-.55759 -.57822 .8171 -.13177 59.785 478.54)" d="m231.12 517.23c0 2.0303-2.242 3.6781-5.0044 3.6781s-5.0044-1.6478-5.0044-3.6781 2.242-3.6781 5.0044-3.6781 5.0044 1.6478 5.0044 3.6781z" fill="url(#b)" filter="url(#a)" opacity=".76111"/>
  <path transform="matrix(-.55759 -.57822 .8171 -.13177 51.603 459.91)" d="m231.12 517.23c0 2.0303-2.242 3.6781-5.0044 3.6781s-5.0044-1.6478-5.0044-3.6781 2.242-3.6781 5.0044-3.6781 5.0044 1.6478 5.0044 3.6781z" fill="url(#b)" filter="url(#a)" opacity=".76111"/>
  <path transform="matrix(-.55759 -.57822 .8171 -.13177 38.868 449.77)" d="m231.12 517.23c0 2.0303-2.242 3.6781-5.0044 3.6781s-5.0044-1.6478-5.0044-3.6781 2.242-3.6781 5.0044-3.6781 5.0044 1.6478 5.0044 3.6781z" fill="url(#b)" filter="url(#a)"/>
  <path transform="matrix(-.55759 -.57822 .8171 -.13177 22.901 445.44)" d="m231.12 517.23c0 2.0303-2.242 3.6781-5.0044 3.6781s-5.0044-1.6478-5.0044-3.6781 2.242-3.6781 5.0044-3.6781 5.0044 1.6478 5.0044 3.6781z" fill="url(#b)" filter="url(#a)"/>
  <path transform="matrix(-.55759 -.57822 .8171 -.13177 9.0228 435.76)" d="m231.12 517.23c0 2.0303-2.242 3.6781-5.0044 3.6781s-5.0044-1.6478-5.0044-3.6781 2.242-3.6781 5.0044-3.6781 5.0044 1.6478 5.0044 3.6781z" fill="url(#b)" filter="url(#a)" opacity=".88333"/>
  <path transform="matrix(-.55759 -.57822 .8171 -.13177 -9.7684 428.72)" d="m231.12 517.23c0 2.0303-2.242 3.6781-5.0044 3.6781s-5.0044-1.6478-5.0044-3.6781 2.242-3.6781 5.0044-3.6781 5.0044 1.6478 5.0044 3.6781z" fill="url(#b)" filter="url(#a)" opacity=".88333"/>
  <path transform="matrix(-.55759 -.57822 .8171 -.13177 -19.759 432.62)" d="m231.12 517.23c0 2.0303-2.242 3.6781-5.0044 3.6781s-5.0044-1.6478-5.0044-3.6781 2.242-3.6781 5.0044-3.6781 5.0044 1.6478 5.0044 3.6781z" fill="url(#b)" filter="url(#a)" opacity=".88333"/>
  <path transform="matrix(-.55759 -.57822 .8171 -.13177 -20.426 416.8)" d="m231.12 517.23c0 2.0303-2.242 3.6781-5.0044 3.6781s-5.0044-1.6478-5.0044-3.6781 2.242-3.6781 5.0044-3.6781 5.0044 1.6478 5.0044 3.6781z" fill="url(#b)" filter="url(#a)" opacity=".88333"/>
  <path transform="matrix(-.55759 -.57822 .8171 -.13177 -7.0457 398.24)" d="m231.12 517.23c0 2.0303-2.242 3.6781-5.0044 3.6781s-5.0044-1.6478-5.0044-3.6781 2.242-3.6781 5.0044-3.6781 5.0044 1.6478 5.0044 3.6781z" fill="url(#b)" filter="url(#a)" opacity=".88333"/>
  <path transform="matrix(-.48789 -.5088 .69562 -.097302 46.068 382.84)" d="m231.12 517.23c0 2.0303-2.242 3.6781-5.0044 3.6781s-5.0044-1.6478-5.0044-3.6781 2.242-3.6781 5.0044-3.6781 5.0044 1.6478 5.0044 3.6781z" fill="url(#b)" filter="url(#a)" opacity=".88333"/>
  <path transform="matrix(-.48789 -.5088 .69562 -.097302 16.147 366.34)" d="m231.12 517.23c0 2.0303-2.242 3.6781-5.0044 3.6781s-5.0044-1.6478-5.0044-3.6781 2.242-3.6781 5.0044-3.6781 5.0044 1.6478 5.0044 3.6781z" fill="url(#b)" filter="url(#a)" opacity=".88333"/>
  <path transform="matrix(-.48789 -.5088 .69562 -.097302 11.984 397.53)" d="m231.12 517.23c0 2.0303-2.242 3.6781-5.0044 3.6781s-5.0044-1.6478-5.0044-3.6781 2.242-3.6781 5.0044-3.6781 5.0044 1.6478 5.0044 3.6781z" fill="url(#b)" filter="url(#a)" opacity=".88333"/>
  <path transform="matrix(-.48789 -.5088 .69562 -.097302 8.7663 348.05)" d="m231.12 517.23c0 2.0303-2.242 3.6781-5.0044 3.6781s-5.0044-1.6478-5.0044-3.6781 2.242-3.6781 5.0044-3.6781 5.0044 1.6478 5.0044 3.6781z" fill="url(#b)" filter="url(#a)" opacity=".88333"/>
  <path transform="matrix(-.48789 -.5088 .69562 -.097302 -26.169 338.89)" d="m231.12 517.23c0 2.0303-2.242 3.6781-5.0044 3.6781s-5.0044-1.6478-5.0044-3.6781 2.242-3.6781 5.0044-3.6781 5.0044 1.6478 5.0044 3.6781z" fill="url(#b)" filter="url(#a)"/>
  <path transform="matrix(-.48789 -.5088 .69562 -.097302 -48.265 321.35)" d="m231.12 517.23c0 2.0303-2.242 3.6781-5.0044 3.6781s-5.0044-1.6478-5.0044-3.6781 2.242-3.6781 5.0044-3.6781 5.0044 1.6478 5.0044 3.6781z" fill="url(#b)" filter="url(#a)" opacity=".88889"/>
  <path transform="matrix(-.48789 -.5088 .69562 -.097302 -21.918 306.6)" d="m231.12 517.23c0 2.0303-2.242 3.6781-5.0044 3.6781s-5.0044-1.6478-5.0044-3.6781 2.242-3.6781 5.0044-3.6781 5.0044 1.6478 5.0044 3.6781z" fill="url(#b)" filter="url(#a)"/>
  <path transform="matrix(-.48789 -.5088 .69562 -.097302 1.1488 312.04)" d="m231.12 517.23c0 2.0303-2.242 3.6781-5.0044 3.6781s-5.0044-1.6478-5.0044-3.6781 2.242-3.6781 5.0044-3.6781 5.0044 1.6478 5.0044 3.6781z" fill="url(#b)" filter="url(#a)"/>
  <path transform="matrix(-.48789 -.5088 .69562 -.097302 28.026 328.58)" d="m231.12 517.23c0 2.0303-2.242 3.6781-5.0044 3.6781s-5.0044-1.6478-5.0044-3.6781 2.242-3.6781 5.0044-3.6781 5.0044 1.6478 5.0044 3.6781z" fill="url(#b)" filter="url(#a)" opacity=".88333"/>
  <path transform="matrix(-.48789 -.5088 .69562 -.097302 42.518 344.4)" d="m231.12 517.23c0 2.0303-2.242 3.6781-5.0044 3.6781s-5.0044-1.6478-5.0044-3.6781 2.242-3.6781 5.0044-3.6781 5.0044 1.6478 5.0044 3.6781z" fill="url(#b)" filter="url(#a)" opacity=".88333"/>
  <path transform="matrix(-.48789 -.5088 .69562 -.097302 54.065 355.56)" d="m231.12 517.23c0 2.0303-2.242 3.6781-5.0044 3.6781s-5.0044-1.6478-5.0044-3.6781 2.242-3.6781 5.0044-3.6781 5.0044 1.6478 5.0044 3.6781z" fill="url(#b)" filter="url(#a)" opacity=".88333"/>
  <path transform="matrix(-.48789 -.5088 .69562 -.097302 69.359 371.72)" d="m231.12 517.23c0 2.0303-2.242 3.6781-5.0044 3.6781s-5.0044-1.6478-5.0044-3.6781 2.242-3.6781 5.0044-3.6781 5.0044 1.6478 5.0044 3.6781z" fill="url(#b)" filter="url(#a)" opacity=".88333"/>
  <path transform="matrix(-.48789 -.5088 .69562 -.097302 72.717 391.9)" d="m231.12 517.23c0 2.0303-2.242 3.6781-5.0044 3.6781s-5.0044-1.6478-5.0044-3.6781 2.242-3.6781 5.0044-3.6781 5.0044 1.6478 5.0044 3.6781z" fill="url(#b)" filter="url(#a)" opacity=".88333"/>
  <path transform="matrix(-.48789 -.5088 .69562 -.097302 86.631 390.8)" d="m231.12 517.23c0 2.0303-2.242 3.6781-5.0044 3.6781s-5.0044-1.6478-5.0044-3.6781 2.242-3.6781 5.0044-3.6781 5.0044 1.6478 5.0044 3.6781z" fill="url(#b)" filter="url(#a)"/>
  <path transform="matrix(-.48789 -.5088 .69562 -.097302 86.631 390.8)" d="m231.12 517.23c0 2.0303-2.242 3.6781-5.0044 3.6781s-5.0044-1.6478-5.0044-3.6781 2.242-3.6781 5.0044-3.6781 5.0044 1.6478 5.0044 3.6781z" fill="url(#b)" filter="url(#a)"/>
  <path transform="matrix(-.55759 -.57822 .8171 -.13177 -176.31 467.61)" d="m231.12 517.23c0 2.0303-2.242 3.6781-5.0044 3.6781s-5.0044-1.6478-5.0044-3.6781 2.242-3.6781 5.0044-3.6781 5.0044 1.6478 5.0044 3.6781z" fill="url(#b)" filter="url(#a)"/>
  <path transform="matrix(-.55759 -.57822 .8171 -.13177 31.936 530)" d="m231.12 517.23c0 2.0303-2.242 3.6781-5.0044 3.6781s-5.0044-1.6478-5.0044-3.6781 2.242-3.6781 5.0044-3.6781 5.0044 1.6478 5.0044 3.6781z" fill="url(#b)" filter="url(#a)" opacity=".76111"/>
  <path transform="matrix(-.55759 -.57822 .8171 -.13177 44.732 511.86)" d="m231.12 517.23c0 2.0303-2.242 3.6781-5.0044 3.6781s-5.0044-1.6478-5.0044-3.6781 2.242-3.6781 5.0044-3.6781 5.0044 1.6478 5.0044 3.6781z" fill="url(#b)" filter="url(#a)" opacity=".76111"/>
  <path transform="matrix(-.55759 -.57822 .8171 -.13177 50.75 500.23)" d="m231.12 517.23c0 2.0303-2.242 3.6781-5.0044 3.6781s-5.0044-1.6478-5.0044-3.6781 2.242-3.6781 5.0044-3.6781 5.0044 1.6478 5.0044 3.6781z" fill="url(#b)" filter="url(#a)" opacity=".76111"/>
  <path transform="matrix(-.5536 -.58162 .7603 -.083414 80.602 466.12)" d="m231.12 517.23c0 2.0303-2.242 3.6781-5.0044 3.6781s-5.0044-1.6478-5.0044-3.6781 2.242-3.6781 5.0044-3.6781 5.0044 1.6478 5.0044 3.6781z" fill="url(#b)" filter="url(#a)" opacity=".76111"/>
  <path d="m270.63 290c18.987 2.5908 34.888 14.805 53.29 19.303 15.436 29.753 16.258 41.006 32.251 56.955 7.0011 19.74 2.7781 37.904 6.3451 58.086-0.62006 19.826-24.274 34.964-42.004 37.948-15.526 16.614-39.694 22.685-61.702 18.853-21.265 1.2696-40.563 19.267-62.339 11.989-18.208-8.7611-21.516-31.16-24.764-48.994-5.1232-25.288 4.5491-50.491 13.327-73.806 9.0926-19.496 23.758-35.507 37.133-52.091-0.16118-14.676 14.888-21.589 27.382-23.095 7.1292-1.2884 14.264-2.7262 21.08-5.1467z" fill="url(#q)" fill-rule="evenodd" stroke="url(#p)"/>
  <path d="m223.94 288.01c-12.599 5.968-27.851 9.2835-31.829 15.915s-15.252 32.492-18.567 41.776c-1.296 3.6288-5.3198 15.37-9.1188 27.238-4.1006 12.81-8.0967 25.709-8.7851 28.463-1.3262 5.3049-3.9787 18.567-7.2942 25.861-2.3444 5.1578 0 8.6204-2.6524 13.262s-1.3262 11.273-1.3262 11.273-5.3049 4.6418-3.9787 9.2835 6.6311 13.262 6.6311 13.262 3.3156 7.9573 6.6311 9.9466 9.2835 2.6524 9.2835 2.6524 5.968 5.3049 13.925 5.968 31.829 3.3155 37.134 0.66311 8.6204-3.9787 12.599-4.6418 9.9466-3.3155 13.262-4.6418 3.9787-3.9786 11.273-2.6524 11.273-0.66311 15.252-1.9893 7.9573-2.6524 12.599-2.6524 7.9573-0.66311 11.273-2.6524 9.9466-3.9786 15.915-4.6418 14.588-4.6418 17.904-7.9573 5.968-7.2942 11.936-11.273 9.9466-7.2942 11.936-11.936 5.3049-15.915 5.3049-19.893 2.6524-12.599 2.6524-12.599 0.6631-5.3049-0.66311-8.6204-2.6524-10.61-2.6524-14.588-1.9893-6.6311-2.6524-9.2835-1.3262-8.6204-3.9786-13.925-9.2835-13.925-9.2835-13.925l-5.3049-3.9786-3.3155-10.61s-12.599-15.915-17.241-19.893-17.241-11.936-22.546-14.588-22.546-10.61-29.177-12.599-17.904-1.9893-21.883-1.9893-11.936 3.3155-13.262 5.968z" fill="url(#r)" fill-rule="evenodd" stroke="url(#v)" stroke-width="2.8"/>
  <path transform="matrix(1.107 0 0 1.1409 -58.035 -296.97)" d="m314.31 523.86c-31.066-19.041-70.667 1.5902-86.681 30.855-13.239 31.05-33.262 60.561-36.379 94.945-5.1019 22.218 14.64 42.041 36.66 39.713 13.23-0.63624 21.953-7.614 34.622-11.208 11.678 7.5812 32.656-4.9114 47.363-7.4291 25.893-5.8126 56.207-20.836 58.747-50.66 6.1362-38.829-13.676-85.761-54.332-96.216z" fill="url(#m)" fill-rule="evenodd" filter="url(#w)" opacity=".85"/>
  <path transform="matrix(1.0483 0 0 1 -43.936 -213.97)" d="m340.98 536c-16.439-19.072-18.27-5.8128-35.955-5.2664-5.5372 0.93022-12.893 0.39392-16.05 6.0246-3.8718 6.4782 3.4942 14.985 10.444 12.571 9.9888-1.6259 26.985 12.649 32.32 19.704 5.2867 7.1733 9.5788 12.508 19.293 10.166 6.2567-3.8731 7.8988-4.0297 14.535-5.8205-3.3763-5.0723 1.6204-10.213-1.0748-16.222-2.6074-5.0737-7.5362-19.812-16.949-25.33 1.3669 3.7577-0.63339 3.1798-6.5626 4.1734z" fill="url(#l)" fill-rule="evenodd" filter="url(#y)"/>
  <path d="m309.48 376.21c0 3.7771 3.9786-6.8327 3.9786-10.61 0-5.062-5.4043-6.3244-9.2835-7.2942-5.1202-1.28-10.034-8.0447-13.262-11.273-3.6259-3.6259 0.12954-8.1023-0.66311-11.273-0.54705-2.1882-8.0443-1.9893-9.9466-1.9893-5.014 0-8.6269 1.4936-13.262 2.6524-4.5683 1.1421-7.9274 4.6119-11.273 7.9573-3.4569 3.4569-5.8144 6.987-7.9573 11.273-2.2435 4.487-5.18 7.7075-7.2942 11.936-1.9978 3.9955-4.8647 8.6966-7.2942 11.936-3.0881 4.1175-5.6925 7.4192-9.9466 10.61-3.0968 2.3226-6.7751 9.2545-9.2835 12.599-2.6532 3.5376-5.3461 7.3354-8.6204 10.61l-11.273 11.273c-2.8376 2.8376-5.2204 7.2097-8.6204 10.61-3.0103 3.0103-5.5967 6.7991-7.9573 9.9466-2.6058 3.4744-6.0753 8.1719-7.2942 10.61-0.11074 0.22148 10.706-1.7061 11.273-1.9893 3.8804-1.9402 6.4478-5.5906 10.61-6.6311 4.5384-1.1346 9.6178-4.245 13.925-5.968 5.1121-2.0448 10.132-6.0605 15.252-8.6204 5.4948-2.7474 9.4876-6.3148 15.252-8.6204 4.7453-1.8981 8.876-4.2135 13.262-5.968 4.8184-1.9274 9.2692-4.804 13.925-5.968 4.8287-1.2072 9.1131-4.1018 13.925-5.3049 4.5982-1.1496 7.9069-4.3535 10.61-7.9573 2.7388-3.6517 5.3189-6.6591 7.2942-10.61 1.298-2.596 7.9548-5.8003 9.9466-7.2942 1.5543-1.1657 2.8853-3.184 3.9787-4.6418z" fill="url(#t)" fill-rule="evenodd" filter="url(#aa)" opacity=".97222" stroke="url(#s)"/>
  <path d="m229.25 300.03c-0.54998 11.299 14.926 40.325 23.734 25.022-13.457-1.1592-16.226-16.588-23.734-25.022zm-29.844 16.625c7.3286 12.716 60.358 38.481 31.006 15.29-8.9675-7.671-19.738-12.216-31.006-15.29zm76.719 10.281c-30.589-2.1297-39.376 33.231-56.807 51.159-3.6881 30.004-48.687-1.4012-47.932 10.202 18.812 2.6766 51.869 3.5718 23.717 25.114-4.7071 21.51-38.159 22.295-40.468 23.173 15.69 0.37033 32.269-0.3611 14.202 14.846-17.46-4.6606-27.559 5.7616-3.4941 1.2508 15.068 8.0162-37.76 9.8189-9.5625 12.644 15.997-7.6215 20.377 5.9103 17.392 7.1847-7.3134-25.877 20.318-5.84 33.89-19.761-14.26 8.3732-14.213 47.343-6.0211 13.161 15.069-18.942 5.9338 34.366 10.037 3.2769 2.4148-27.826 28.427-41.322 51.986-50.662 30.828-11.827 45.491 10.24 61.313 33.836-18.132-23.933-35.148-49.547-7.4304-75.326 9.5655-23.472-22.273-35.289-35.67-49.457l-5.151-0.64097zm-57.594 124.09c3.1803 0.6282 0.40848-2.0288 0 0zm55.029-104.53c31.335-3.8004 55.038 17.451 26.45 36.76-21.788 19.81-27.57 26.595-55.34 39.362-22.557 5.2406-55.216 37.696-69.316 28.517 17.614-20.607 48.572-48.413 64.026-71.22 11.659-10.298 17.389-28.086 34.18-33.418zm-84.529-8.1286c-9.0671 22.369 61.547 26.541 22.057 10.15-7.7316-2.6328-14.061-8.3473-22.057-10.15zm38.219 17.938-0.6875 0.75 0.6875-0.75zm-5.3125 11.938c-1.0254 1.2394 1.4243 0.21615 0 0zm-0.03125 0.625c-14.5-0.82236-71.554-0.35851-27.812 6 9.0598-1.2477 24.02 6.8859 27.812-6zm55.031 51.562c-6.2633 15.464 17.183 69.031 13.136 26.238-2.3075-9.4238-4.8752-20.139-13.136-26.238zm-18.469 1.5312c3.0109 10.934-6.6301 52.689 3.8803 45.685 1.2664-13.892 7.0277-35.02-3.8803-45.685z" fill="url(#u)" fill-rule="evenodd" filter="url(#x)" opacity=".58889"/>
  <path transform="matrix(.53152 0 0 .49008 152.41 105.25)" d="m389.43 629.69c0 2.0303-2.242 3.6781-5.0044 3.6781s-5.0044-1.6478-5.0044-3.6781 2.242-3.6781 5.0044-3.6781 5.0044 1.6478 5.0044 3.6781z" fill="url(#g)" filter="url(#a)"/>
  <path transform="matrix(.62522 0 0 .61756 77.467 52.2)" d="m286.83 692.29c0 2.0303-2.242 3.6781-5.0044 3.6781s-5.0044-1.6478-5.0044-3.6781 2.242-3.6781 5.0044-3.6781 5.0044 1.6478 5.0044 3.6781z" fill="url(#k)" filter="url(#a)"/>
  <path transform="matrix(.61748 -.47808 .58446 .5051 -245.17 148.79)" d="m231.12 517.23c0 2.0303-2.242 3.6781-5.0044 3.6781s-5.0044-1.6478-5.0044-3.6781 2.242-3.6781 5.0044-3.6781 5.0044 1.6478 5.0044 3.6781z" fill="url(#b)" filter="url(#a)"/>
  <path transform="matrix(.61748 -.47808 .58446 .5051 -291.59 280.75)" d="m231.12 517.23c0 2.0303-2.242 3.6781-5.0044 3.6781s-5.0044-1.6478-5.0044-3.6781 2.242-3.6781 5.0044-3.6781 5.0044 1.6478 5.0044 3.6781z" fill="url(#b)" filter="url(#a)"/>
  <path transform="matrix(.77821 .065059 .089301 .76729 -16.123 81.334)" d="m231.12 517.23c0 2.0303-2.242 3.6781-5.0044 3.6781s-5.0044-1.6478-5.0044-3.6781 2.242-3.6781 5.0044-3.6781 5.0044 1.6478 5.0044 3.6781z" fill="url(#b)" filter="url(#a)"/>
  <path transform="matrix(-.09396 -.77525 .73329 -.24291 -195.76 687.09)" d="m231.12 517.23c0 2.0303-2.242 3.6781-5.0044 3.6781s-5.0044-1.6478-5.0044-3.6781 2.242-3.6781 5.0044-3.6781 5.0044 1.6478 5.0044 3.6781z" fill="url(#b)" filter="url(#a)"/>
  <path transform="matrix(-.09396 -.77525 .73329 -.24291 -133.43 590.94)" d="m231.12 517.23c0 2.0303-2.242 3.6781-5.0044 3.6781s-5.0044-1.6478-5.0044-3.6781 2.242-3.6781 5.0044-3.6781 5.0044 1.6478 5.0044 3.6781z" fill="url(#b)" filter="url(#a)"/>
  <path d="m273.01 378.2c-1.2794 1.7606-5.0961 7.5214-8.6204 9.2835-5.4278 2.7139-4.4667 1.9523-5.968 7.9573-1.113 4.4522-7.4141 5.0333-10.61 6.6311-5.535 2.7675-5.9969 3.4602-6.6311 6.6311-0.8179 4.0895 6.5638-5.6196 10.61-6.6311 3.9618-0.99045 7.5681-5.6761 10.61-7.9573 4.79-3.5925 5.4264-3.2603 6.6311-9.2835 0.50084-2.5042 2.4527-4.7236 3.9786-6.6311z" fill="#ffd5d5" fill-rule="evenodd" filter="url(#z)"/>
  <g transform="translate(-30.031 -213.97)">
   <path d="m302.38 590.84c-1.2794 1.7606-5.0961 7.5214-8.6204 9.2835-5.4278 2.7139-4.4667 1.9523-5.968 7.9573-1.113 4.4522-7.4141 5.0333-10.61 6.6311-5.535 2.7675-5.9969 3.4602-6.6311 6.6311-0.8179 4.0895 6.5638-5.6196 10.61-6.6311 3.9618-0.99045 7.5681-5.6761 10.61-7.9573 4.79-3.5925 5.4264-3.2603 6.6311-9.2835 0.50084-2.5042 2.4527-4.7236 3.9786-6.6311z" fill="url(#f)" fill-rule="evenodd" filter="url(#j)" opacity=".56111"/>
  </g>
  <g transform="matrix(-1 0 0 -1 503.05 1020.4)" opacity=".50556">
   <path d="m302.38 590.84c-1.2794 1.7606-5.0961 7.5214-8.6204 9.2835-5.4278 2.7139-4.4667 1.9523-5.968 7.9573-1.113 4.4522-7.4141 5.0333-10.61 6.6311-5.535 2.7675-5.9969 3.4602-6.6311 6.6311-0.8179 4.0895 6.5638-5.6196 10.61-6.6311 3.9618-0.99045 7.5681-5.6761 10.61-7.9573 4.79-3.5925 5.4264-3.2603 6.6311-9.2835 0.50084-2.5042 2.4527-4.7236 3.9786-6.6311z" fill="url(#f)" fill-rule="evenodd" filter="url(#j)" opacity=".56111"/>
  </g>
  <path transform="matrix(.34413 0 0 .61756 227 -7.1031)" d="m384.74 635.31c0 2.0303-2.242 3.6781-5.0044 3.6781s-5.0044-1.6478-5.0044-3.6781 2.242-3.6781 5.0044-3.6781 5.0044 1.6478 5.0044 3.6781z" fill="url(#e)" filter="url(#a)"/>
  <path transform="matrix(.34413 0 0 .61756 216.68 56.666)" d="m384.74 635.31c0 2.0303-2.242 3.6781-5.0044 3.6781s-5.0044-1.6478-5.0044-3.6781 2.242-3.6781 5.0044-3.6781 5.0044 1.6478 5.0044 3.6781z" fill="url(#e)" filter="url(#a)"/>
  <path transform="matrix(.53152 0 0 .49008 152.41 105.25)" d="m389.43 629.69c0 2.0303-2.242 3.6781-5.0044 3.6781s-5.0044-1.6478-5.0044-3.6781 2.242-3.6781 5.0044-3.6781 5.0044 1.6478 5.0044 3.6781z" fill="url(#g)" filter="url(#a)"/>
 </g>
</svg>
