<svg id="visual" viewBox="0 0 3900 5600" width="3900" height="5600" xmlns="http://www.w3.org/2000/svg" xmlns:xlink="http://www.w3.org/1999/xlink" version="1.1"><path d="M0 953L975 1065L1950 1177L2925 1233L3900 1065L3900 0L2925 0L1950 0L975 0L0 0Z" fill="#ffffff"></path><path d="M0 1233L975 1289L1950 1457L2925 1457L3900 1345L3900 1063L2925 1231L1950 1175L975 1063L0 951Z" fill="#f4f9ec"></path><path d="M0 2409L975 2409L1950 2353L2925 2465L3900 2465L3900 1343L2925 1455L1950 1455L975 1287L0 1231Z" fill="#eaf3d8"></path><path d="M0 2633L975 2689L1950 2633L2925 2689L3900 2689L3900 2463L2925 2463L1950 2351L975 2407L0 2407Z" fill="#dfecc5"></path><path d="M0 3025L975 3025L1950 2913L2925 3025L3900 2969L3900 2687L2925 2687L1950 2631L975 2687L0 2631Z" fill="#d4e6b2"></path><path d="M0 3529L975 3641L1950 3473L2925 3641L3900 3417L3900 2967L2925 3023L1950 2911L975 3023L0 3023Z" fill="#c9e09f"></path><path d="M0 3809L975 3921L1950 3753L2925 3865L3900 3641L3900 3415L2925 3639L1950 3471L975 3639L0 3527Z" fill="#bdda8d"></path><path d="M0 4593L975 4481L1950 4481L2925 4369L3900 4425L3900 3639L2925 3863L1950 3751L975 3919L0 3807Z" fill="#b2d37a"></path><path d="M0 4929L975 4817L1950 4761L2925 4705L3900 4873L3900 4423L2925 4367L1950 4479L975 4479L0 4591Z" fill="#a6cd67"></path><path d="M0 5097L975 5041L1950 4929L2925 4929L3900 5097L3900 4871L2925 4703L1950 4759L975 4815L0 4927Z" fill="#9ac753"></path><path d="M0 5433L975 5377L1950 5433L2925 5433L3900 5433L3900 5095L2925 4927L1950 4927L975 5039L0 5095Z" fill="#8dc03e"></path><path d="M0 5601L975 5601L1950 5601L2925 5601L3900 5601L3900 5431L2925 5431L1950 5431L975 5375L0 5431Z" fill="#80ba24"></path></svg>