<svg id="visual" viewBox="0 0 900 600" width="900" height="600" xmlns="http://www.w3.org/2000/svg" xmlns:xlink="http://www.w3.org/1999/xlink" version="1.1"><rect x="0" y="0" width="900" height="600" fill="#ffffff"></rect><defs><linearGradient id="grad1_0" x1="33.3%" y1="0%" x2="100%" y2="100%"><stop offset="20%" stop-color="#4a5c66" stop-opacity="1"></stop><stop offset="80%" stop-color="#4a5c66" stop-opacity="1"></stop></linearGradient></defs><defs><linearGradient id="grad1_1" x1="33.3%" y1="0%" x2="100%" y2="100%"><stop offset="20%" stop-color="#4a5c66" stop-opacity="1"></stop><stop offset="80%" stop-color="#74828a" stop-opacity="1"></stop></linearGradient></defs><defs><linearGradient id="grad1_2" x1="33.3%" y1="0%" x2="100%" y2="100%"><stop offset="20%" stop-color="#a1aaaf" stop-opacity="1"></stop><stop offset="80%" stop-color="#74828a" stop-opacity="1"></stop></linearGradient></defs><defs><linearGradient id="grad1_3" x1="33.3%" y1="0%" x2="100%" y2="100%"><stop offset="20%" stop-color="#a1aaaf" stop-opacity="1"></stop><stop offset="80%" stop-color="#cfd4d7" stop-opacity="1"></stop></linearGradient></defs><defs><linearGradient id="grad1_4" x1="33.3%" y1="0%" x2="100%" y2="100%"><stop offset="20%" stop-color="#ffffff" stop-opacity="1"></stop><stop offset="80%" stop-color="#cfd4d7" stop-opacity="1"></stop></linearGradient></defs><defs><linearGradient id="grad2_0" x1="0%" y1="0%" x2="66.7%" y2="100%"><stop offset="20%" stop-color="#4a5c66" stop-opacity="1"></stop><stop offset="80%" stop-color="#4a5c66" stop-opacity="1"></stop></linearGradient></defs><defs><linearGradient id="grad2_1" x1="0%" y1="0%" x2="66.7%" y2="100%"><stop offset="20%" stop-color="#74828a" stop-opacity="1"></stop><stop offset="80%" stop-color="#4a5c66" stop-opacity="1"></stop></linearGradient></defs><defs><linearGradient id="grad2_2" x1="0%" y1="0%" x2="66.7%" y2="100%"><stop offset="20%" stop-color="#74828a" stop-opacity="1"></stop><stop offset="80%" stop-color="#a1aaaf" stop-opacity="1"></stop></linearGradient></defs><defs><linearGradient id="grad2_3" x1="0%" y1="0%" x2="66.7%" y2="100%"><stop offset="20%" stop-color="#cfd4d7" stop-opacity="1"></stop><stop offset="80%" stop-color="#a1aaaf" stop-opacity="1"></stop></linearGradient></defs><defs><linearGradient id="grad2_4" x1="0%" y1="0%" x2="66.7%" y2="100%"><stop offset="20%" stop-color="#cfd4d7" stop-opacity="1"></stop><stop offset="80%" stop-color="#ffffff" stop-opacity="1"></stop></linearGradient></defs><g transform="translate(900, 0)"><path d="M0 378.6C-30.2 329.4 -60.4 280.1 -111.7 269.8C-163 259.4 -235.4 287.9 -267.7 267.7C-300 247.5 -292.2 178.6 -304 125.9C-315.8 73.2 -347.2 36.6 -378.6 0L0 0Z" fill="#e7e9eb"></path><path d="M0 302.9C-24.2 263.5 -48.4 224.1 -89.4 215.8C-130.4 207.5 -188.3 230.3 -214.2 214.2C-240 198 -233.7 142.9 -243.2 100.7C-252.6 58.5 -277.7 29.3 -302.9 0L0 0Z" fill="#b7bfc3"></path><path d="M0 227.1C-18.1 197.6 -36.3 168.1 -67 161.9C-97.8 155.6 -141.3 172.7 -160.6 160.6C-180 148.5 -175.3 107.2 -182.4 75.5C-189.5 43.9 -208.3 22 -227.1 0L0 0Z" fill="#8a969c"></path><path d="M0 151.4C-12.1 131.7 -24.2 112.1 -44.7 107.9C-65.2 103.8 -94.2 115.2 -107.1 107.1C-120 99 -116.9 71.5 -121.6 50.4C-126.3 29.3 -138.9 14.6 -151.4 0L0 0Z" fill="#5f6f78"></path><path d="M0 75.7C-6 65.9 -12.1 56 -22.3 54C-32.6 51.9 -47.1 57.6 -53.5 53.5C-60 49.5 -58.4 35.7 -60.8 25.2C-63.2 14.6 -69.4 7.3 -75.7 0L0 0Z" fill="#4a5c66"></path></g><g transform="translate(0, 600)"><path d="M0 -378.6C32 -332.2 64.1 -285.7 113.7 -274.4C163.2 -263 230.4 -286.8 267.7 -267.7C305 -248.6 312.6 -186.8 326.1 -135.1C339.6 -83.3 359.1 -41.7 378.6 0L0 0Z" fill="#e7e9eb"></path><path d="M0 -302.9C25.6 -265.7 51.3 -228.6 90.9 -219.5C130.6 -210.4 184.3 -229.4 214.2 -214.2C244 -198.9 250.1 -149.5 260.9 -108.1C271.7 -66.7 287.3 -33.3 302.9 0L0 0Z" fill="#b7bfc3"></path><path d="M0 -227.1C19.2 -199.3 38.4 -171.4 68.2 -164.6C97.9 -157.8 138.2 -172.1 160.6 -160.6C183 -149.2 187.6 -112.1 195.7 -81.1C203.8 -50 215.5 -25 227.1 0L0 0Z" fill="#8a969c"></path><path d="M0 -151.4C12.8 -132.9 25.6 -114.3 45.5 -109.8C65.3 -105.2 92.1 -114.7 107.1 -107.1C122 -99.5 125 -74.7 130.5 -54C135.9 -33.3 143.6 -16.7 151.4 0L0 0Z" fill="#5f6f78"></path><path d="M0 -75.7C6.4 -66.4 12.8 -57.1 22.7 -54.9C32.6 -52.6 46.1 -57.4 53.5 -53.5C61 -49.7 62.5 -37.4 65.2 -27C67.9 -16.7 71.8 -8.3 75.7 0L0 0Z" fill="#4a5c66"></path></g></svg>