<svg xmlns="http://www.w3.org/2000/svg" xmlns:xlink="http://www.w3.org/1999/xlink" viewBox="0 0 1200 1200"><defs><style>.cls-1{isolation:isolate;}.cls-2{fill:#ededf4;}.cls-3{fill:#eac72c;}.cls-4{fill:#8cb01b;}.cls-5{fill:#ee2325;}.cls-6{fill:#bf1d25;}.cls-10,.cls-16,.cls-19,.cls-22,.cls-26,.cls-27,.cls-28,.cls-31,.cls-34,.cls-7{opacity:0.5;mix-blend-mode:overlay;}.cls-7{fill:url(#linear-gradient);}.cls-8{fill:#96bd1d;}.cls-9{fill:#f7d22e;}.cls-10{fill:url(#linear-gradient-2);}.cls-11{fill:#52450e;}.cls-12{fill:#352c06;}.cls-13{fill:#6d168e;}.cls-14{fill:#440860;}.cls-15{fill:#77a000;}.cls-16{fill:url(#linear-gradient-3);}.cls-17{fill:#95c019;}.cls-18{fill:#7d9916;}.cls-19{fill:url(#linear-gradient-4);}.cls-20{fill:#f29200;}.cls-21{fill:#b26602;}.cls-22{fill:url(#linear-gradient-5);}.cls-23{fill:#f8c800;}.cls-24{fill:#d6b425;}.cls-25{fill:#352d0a;}.cls-26{fill:url(#linear-gradient-6);}.cls-27{fill:url(#linear-gradient-7);}.cls-28{fill:url(#linear-gradient-8);}.cls-29{fill:#e42e26;}.cls-30{fill:#bc2020;}.cls-31{fill:url(#linear-gradient-9);}.cls-32{fill:#e39a21;}.cls-33{fill:#9b4902;}.cls-34{fill:url(#linear-gradient-10);}</style><linearGradient id="linear-gradient" x1="435.11" y1="472.16" x2="501.26" y2="604.46" gradientUnits="userSpaceOnUse"><stop offset="0" stop-color="#fef1ef"/><stop offset="1" stop-color="#fead9c"/></linearGradient><linearGradient id="linear-gradient-2" x1="370.03" y1="459.17" x2="412.24" y2="554.86" xlink:href="#linear-gradient"/><linearGradient id="linear-gradient-3" x1="525.58" y1="490.14" x2="960.58" y2="490.14" xlink:href="#linear-gradient"/><linearGradient id="linear-gradient-4" x1="343.32" y1="441.94" x2="639.88" y2="708.01" gradientUnits="userSpaceOnUse"><stop offset="0" stop-color="#fef1ef"/><stop offset="1" stop-color="#97e08f"/></linearGradient><linearGradient id="linear-gradient-5" x1="128.1" y1="374.87" x2="424.31" y2="759.25" gradientUnits="userSpaceOnUse"><stop offset="0" stop-color="#fef1ef"/><stop offset="1" stop-color="#fbdfc1"/></linearGradient><linearGradient id="linear-gradient-6" x1="289.22" y1="410.67" x2="501.47" y2="765.85" xlink:href="#linear-gradient"/><linearGradient id="linear-gradient-7" x1="655.25" y1="432.84" x2="801.62" y2="697.42" xlink:href="#linear-gradient"/><linearGradient id="linear-gradient-8" x1="348.83" y1="533.64" x2="422.41" y2="666.28" xlink:href="#linear-gradient"/><linearGradient id="linear-gradient-9" x1="673.95" y1="364.03" x2="800.21" y2="761.19" gradientUnits="userSpaceOnUse"><stop offset="0" stop-color="#fef1ef"/><stop offset="1" stop-color="#fead9c" stop-opacity="0.5"/></linearGradient><linearGradient id="linear-gradient-10" x1="555.29" y1="301.69" x2="575.7" y2="961.33" xlink:href="#linear-gradient"/></defs><g class="cls-1"><g id="Layer_1" data-name="Layer 1"><path class="cls-2" d="M122.29,681.35c-10.7,93.68,1.46,198,87.45,253.42,36.68,23.65,82.25,37.73,126,38.66h633c238-233.6,24.38-275.4,18.65-311.31s28.82-63.74,39-97.19c23.78-78.12,20-160.12-47.82-215-61.72-49.89-126.37-47.2-192.91-9.88C736.8,367.47,684.34,408,628.07,373.93c-17.61-15-31.68-33.52-46.73-50.22-45.38-50.39-99.59-97.14-176.42-97.14C259.37,234.94,202,410.9,234.79,532.59c4.31,16,12.47,44.5-1.89,58.14-9.2,8.74-24.8,7-36.43,7.57C146.23,600.67,127.8,633.2,122.29,681.35Z"/><path class="cls-3" d="M492.75,595.76a1.25,1.25,0,0,1-1.59-1.08,1.31,1.31,0,0,1,1.22,2.3"/><path class="cls-3" d="M464.74,612.41a1.25,1.25,0,0,1-1.59-1.07,1.35,1.35,0,0,1,1.66.59,1.36,1.36,0,0,1-.44,1.71"/><path class="cls-4" d="M523.22,532.74l4.27-9.07s-13.79-.92-16.66,1.2S521.73,535.9,523.22,532.74Z"/><path class="cls-4" d="M454.88,516.36l-.28-10s13,4.69,14.78,7.78S455,519.85,454.88,516.36Z"/><path class="cls-4" d="M511,526.75l10.11-10.9s-19.63.91-22.5,3S511,526.75,511,526.75Z"/><path class="cls-4" d="M498.72,520.67c1.47-1-2.27-18.92-4.23-19.84s-15,13-12.65,15.12S497,521.83,498.72,520.67Z"/><path class="cls-4" d="M485.1,517.7c-.36-4-17.7-14.71-19.57-15.27s.54,13.34,1.2,13.29S485.1,517.7,485.1,517.7Z"/><path class="cls-5" d="M529.33,558.61c3-8.62-4.72-37.94-44.71-42.38s-47.38,12.71-46.91,24.35,5,96.65,21.33,95.67S519.91,585.82,529.33,558.61Z"/><path class="cls-6" d="M458.78,640a9.31,9.31,0,0,1-6.32-2.63c-2.3-2.09-9.32-8.44-14.58-49.78-3-23.35-3.9-45.94-3.94-46.89A25.07,25.07,0,0,1,441.75,521c8.5-7.92,23.07-10.79,43.29-8.55,24.76,2.75,36.9,14.33,42.73,23.56,5.93,9.38,6.81,18.91,5.12,23.79h0c-5.41,15.63-20.76,36-33.31,49.95-8,8.84-27.9,29.48-40.31,30.22Zm13.85-120.74c-11.8,0-20.59,2.45-25.75,7.26a17.52,17.52,0,0,0-5.41,13.89c1.22,30.82,6.65,82.88,16,91.38a2,2,0,0,0,1.31.68c13.67-.82,57.34-47.36,67-75.12h0c1-2.79.25-10-4.37-17.31-4.95-7.84-15.42-17.68-37.2-20.1A104.85,104.85,0,0,0,472.63,519.29Z"/><path class="cls-3" d="M515.54,550.34a1.25,1.25,0,0,1-1.59-1.08,1.31,1.31,0,0,1,1.22,2.3"/><path class="cls-3" d="M462.75,525.1a1.26,1.26,0,0,1-1.59-1.08,1.31,1.31,0,0,1,1.22,2.3"/><path class="cls-3" d="M481.91,527.48a1.25,1.25,0,0,1-1.59-1.08,1.31,1.31,0,0,1,1.22,2.3"/><path class="cls-3" d="M489.08,567.71a1.26,1.26,0,0,1-1.59-1.08,1.31,1.31,0,0,1,1.22,2.3"/><path class="cls-3" d="M451.6,571.79a1.25,1.25,0,0,1-1.59-1.07,1.35,1.35,0,0,1,1.66.59,1.36,1.36,0,0,1-.44,1.71"/><path class="cls-3" d="M465.64,539.56a1.25,1.25,0,0,1-1.59-1.08,1.31,1.31,0,0,1,1.22,2.3"/><path class="cls-3" d="M467.72,585.07a1.24,1.24,0,0,1-1.59-1.08,1.31,1.31,0,0,1,1.22,2.3"/><path class="cls-3" d="M512.43,577.07a1.25,1.25,0,0,1-1.59-1.07,1.35,1.35,0,0,1,1.66.59,1.36,1.36,0,0,1-.44,1.71"/><path class="cls-3" d="M446.35,538.36a1.24,1.24,0,0,1-1.58-1.08,1.36,1.36,0,0,1,1.65.6,1.34,1.34,0,0,1-.44,1.7"/><path class="cls-7" d="M527.77,536.05A43,43,0,0,0,524,531l3.45-7.31a95.27,95.27,0,0,0-11.36,0c-.43-.32-.88-.63-1.33-.95l6.35-6.84s-9.67.45-16.43,1.45q-2.82-1.15-6-2.11c-.83-5.67-2.91-13.75-4.21-14.36s-8.84,6.65-11.75,11.44l-2.49-.21c-5.38-4.4-13.47-9.26-14.72-9.63s-.69,4.74,0,8.71a91,91,0,0,0-10.92-4.8s.12,4.19.21,7.65a32,32,0,0,0-13.06,7,25.07,25.07,0,0,0-7.81,19.69c0,.95,1,23.54,3.94,46.89,5.26,41.34,12.28,47.69,14.58,49.78a9.29,9.29,0,0,0,6.32,2.62h.49c12.41-.74,32.32-21.38,40.31-30.22,12.55-13.9,27.9-34.32,33.31-49.95C534.58,555,533.7,545.43,527.77,536.05Z"/><path class="cls-8" d="M420.37,494.25,417,484.82s-10.4,9.09-10.93,12.61S421.55,497.54,420.37,494.25Z"/><path class="cls-8" d="M360.43,530.94l-7.27-6.9s12.52-5.86,15.95-4.93S363,533.34,360.43,530.94Z"/><path class="cls-8" d="M407.52,498.62,407,483.77s-13.25,14.51-13.79,18S407.52,498.62,407.52,498.62Z"/><path class="cls-8" d="M394.5,503c.33-1.76-15-11.78-17-11.06s-1.42,19.78,1.73,19.65S394.13,505,394.5,503Z"/><path class="cls-8" d="M382.77,510.54c-3.09-2.59-22.92,2.09-24.64,3s9.81,9.06,10.24,8.56S382.77,510.54,382.77,510.54Z"/><path class="cls-5" d="M443,508.24c-4-8.21-30.15-23.51-61.59,1.6s-24.55,42.46-16,50.38,71.82,64.87,82.7,52.63S455.53,534.16,443,508.24Z"/><path class="cls-6" d="M443.66,618.33c-20.42,0-74.65-49.64-80.82-55.35a25,25,0,0,1-8.39-19.45c.42-11.61,8.7-23.93,24.6-36.63,19.46-15.55,36.24-15.94,46.88-13.53,10.83,2.46,18.18,8.58,20.43,13.23,7.22,14.89,10.78,40.18,11.72,58.89.59,11.9,1.08,40.57-7.18,49.86a9.17,9.17,0,0,1-6.66,3ZM416.08,499.81c-8.59,0-19.72,2.88-32.34,13-13.91,11.11-21.43,21.84-21.77,31a17.56,17.56,0,0,0,6,13.66c22.43,20.75,62.52,53.34,75.56,53.34h.36a2,2,0,0,0,1.4-.45c9.1-10.23,7.13-74-5.68-100.47h0c-1.29-2.65-6.89-7.25-15.32-9.16A36.93,36.93,0,0,0,416.08,499.81Z"/><path class="cls-9" d="M427.37,512.13a1.25,1.25,0,0,1-1.89.36,1.31,1.31,0,0,1,2.49.77"/><path class="cls-9" d="M443.33,560.38a1.25,1.25,0,0,1-1.89.36,1.31,1.31,0,0,1,2.49.77"/><path class="cls-9" d="M388.77,520.71a1.26,1.26,0,0,1-1.89.36,1.31,1.31,0,0,1,2.49.76"/><path class="cls-9" d="M399.33,508.4a1.24,1.24,0,0,1-1.88.36,1.3,1.3,0,0,1,2.48.77"/><path class="cls-9" d="M420.91,543.12a1.24,1.24,0,0,1-1.88.36,1.3,1.3,0,0,1,2.48.77"/><path class="cls-9" d="M397.28,572.49a1.25,1.25,0,0,1-1.89.36,1.31,1.31,0,0,1,2.49.77"/><path class="cls-9" d="M435.28,592a1.25,1.25,0,0,1-1.89.36,1.31,1.31,0,0,1,2.49.77"/><path class="cls-9" d="M393.67,548.23a1.25,1.25,0,0,1-1.89.36,1.31,1.31,0,0,1,2.49.77"/><path class="cls-9" d="M418.06,570.5a1.24,1.24,0,0,1-1.88.36,1.3,1.3,0,0,1,2.48.77"/><path class="cls-9" d="M444.06,533.25a1.25,1.25,0,0,1-1.89.36,1.31,1.31,0,0,1,2.49.77"/><path class="cls-9" d="M373.58,548.91a1.26,1.26,0,0,1-1.89.36,1.31,1.31,0,0,1,2.49.76"/><path class="cls-10" d="M458.08,565.49c-.94-18.71-4.5-44-11.72-58.89-2.25-4.65-9.6-10.77-20.43-13.23a44.83,44.83,0,0,0-6.22-.94c-1.19-3.33-2.73-7.61-2.73-7.61a94.74,94.74,0,0,0-8.05,8l-1.61.27-.34-9.32s-6.53,7.14-10.6,12.62q-2.82,1.19-5.76,2.77c-4.59-3.43-11.77-7.68-13.12-7.2s-1.56,11-.24,16.4L375.35,510c-6.91.69-16.07,3-17.22,3.59s2.86,3.84,6.15,6.17A92,92,0,0,0,353.16,524l5.55,5.27a32.09,32.09,0,0,0-4.26,14.22A25,25,0,0,0,362.84,563c6.17,5.71,60.4,55.35,80.82,55.35h.58a9.17,9.17,0,0,0,6.66-3C459.16,606.06,458.67,577.39,458.08,565.49Z"/><path class="cls-11" d="M894.27,253.24l10.42,24.46-82.3,154.84-5.75-4.11S886.06,285.09,887,277.49,894.27,253.24,894.27,253.24Z"/><path class="cls-12" d="M823.69,438.09l-11.82-8.44,1.38-2.86c27.39-56.55,68.64-143.13,70-149.85,1-7.87,7.22-24.34,7.49-25l3.32-8.72,14.77,34.7Zm70.9-174.49c-1.71,5.15-3.45,10.95-3.86,14.35C889.88,284.84,844.68,379,826,417.76l74.54-140.24Z"/><circle class="cls-13" cx="567.5" cy="668.19" r="38.15"/><path class="cls-14" d="M567.52,710.12a41.92,41.92,0,1,1,41.24-34.52A41.81,41.81,0,0,1,567.52,710.12Zm0-76.32a34.38,34.38,0,1,0,6.1.54A35.27,35.27,0,0,0,567.48,633.8Z"/><circle class="cls-13" cx="625.79" cy="691.48" r="38.15"/><path class="cls-14" d="M625.88,733.41a42.33,42.33,0,0,1-7.5-.67,41.72,41.72,0,1,1,7.5.67Zm-.17-76.33a34.48,34.48,0,1,0,6.16.55A34.75,34.75,0,0,0,625.71,657.08Z"/><circle class="cls-13" cx="610.75" cy="623.49" r="38.15"/><path class="cls-14" d="M610.77,665.41A41.92,41.92,0,1,1,652,630.9,41.87,41.87,0,0,1,610.77,665.41Zm-.09-76.32a34.42,34.42,0,0,0-33.78,28.32h0a34.39,34.39,0,1,0,39.93-27.77A34.64,34.64,0,0,0,610.68,589.09Z"/><circle class="cls-13" cx="637.76" cy="565.67" r="38.15"/><path class="cls-14" d="M637.78,607.59a42,42,0,0,1-41.28-49.33h0a41.92,41.92,0,1,1,41.28,49.33Zm-33.87-48a34.39,34.39,0,1,0,39.93-27.77,34.44,34.44,0,0,0-39.93,27.77Z"/><circle class="cls-13" cx="663.95" cy="505.33" r="38.15"/><path class="cls-14" d="M664,547.25a41.92,41.92,0,0,1-41.28-49.33h0A41.92,41.92,0,1,1,664,547.25Zm-33.87-48A34.39,34.39,0,1,0,670,471.48a34.43,34.43,0,0,0-39.93,27.77Z"/><circle class="cls-13" cx="681.91" cy="445.8" r="38.15"/><path class="cls-14" d="M682,487.73a43.29,43.29,0,0,1-7.5-.67,41.94,41.94,0,0,1-33.85-48.67h0A41.9,41.9,0,1,1,682,487.73Zm-.16-76.33a34.39,34.39,0,0,0-33.78,28.32h0A34.39,34.39,0,1,0,688,412,34.64,34.64,0,0,0,681.84,411.4Z"/><circle class="cls-13" cx="734.59" cy="407.64" r="38.15"/><path class="cls-14" d="M734.61,449.56a42,42,0,0,1-41.28-49.33h0a41.92,41.92,0,1,1,41.28,49.33Zm-33.87-48a34.39,34.39,0,1,0,39.93-27.77,34.44,34.44,0,0,0-39.93,27.77Z"/><circle class="cls-13" cx="801.18" cy="387.78" r="38.15"/><path class="cls-14" d="M801.2,429.7a41.93,41.93,0,0,1-41.28-49.33h0A41.92,41.92,0,1,1,801.2,429.7Zm-.09-76.32a34.39,34.39,0,0,0-33.78,28.32h0a34.39,34.39,0,1,0,39.93-27.77A34.64,34.64,0,0,0,801.11,353.38Z"/><circle class="cls-13" cx="663.95" cy="641.99" r="38.15"/><path class="cls-14" d="M664,683.91a42,42,0,0,1-41.28-49.33h0A41.92,41.92,0,1,1,664,683.91Zm-33.87-48A34.39,34.39,0,1,0,670,608.14a34.15,34.15,0,0,0-39.93,27.77Z"/><circle class="cls-13" cx="696.43" cy="581.65" r="38.15"/><path class="cls-14" d="M696.45,623.58a42,42,0,0,1-41.28-49.33h0a41.92,41.92,0,1,1,41.28,49.33Zm-33.87-48a34.39,34.39,0,1,0,39.93-27.78,34.43,34.43,0,0,0-39.93,27.78Z"/><circle class="cls-13" cx="720.07" cy="524.81" r="38.15"/><path class="cls-14" d="M720.09,566.73a41.92,41.92,0,0,1-41.28-49.33h0a41.92,41.92,0,1,1,41.28,49.33Zm-33.87-48A34.39,34.39,0,1,0,726.15,491a34.43,34.43,0,0,0-39.93,27.77Z"/><circle class="cls-13" cx="724.86" cy="475.84" r="38.15"/><path class="cls-14" d="M725,517.77a42.33,42.33,0,0,1-7.5-.67,41.92,41.92,0,0,1-33.85-48.67h0A41.9,41.9,0,1,1,725,517.77Zm-.16-76.33A34.42,34.42,0,0,0,691,469.76h0A34.38,34.38,0,1,0,730.94,442,35.68,35.68,0,0,0,724.79,441.44Z"/><circle class="cls-13" cx="784.73" cy="459.11" r="38.15"/><path class="cls-14" d="M784.82,501a42.33,42.33,0,0,1-7.5-.67,41.92,41.92,0,0,1-33.85-48.67h0A41.9,41.9,0,1,1,784.82,501Zm-.17-76.33A34.42,34.42,0,0,0,750.88,453h0a34.39,34.39,0,1,0,39.92-27.77A34.55,34.55,0,0,0,784.65,424.71Z"/><circle class="cls-13" cx="702.11" cy="695.18" r="38.15"/><path class="cls-14" d="M702.2,737.11a42.33,42.33,0,0,1-7.5-.67,41.92,41.92,0,0,1-33.85-48.67h0a41.9,41.9,0,1,1,41.35,49.34ZM702,660.78a34.42,34.42,0,0,0-33.78,28.32h0a34.39,34.39,0,1,0,39.93-27.77A34.72,34.72,0,0,0,702,660.78Z"/><circle class="cls-13" cx="734.59" cy="641.99" r="38.15"/><path class="cls-14" d="M734.61,683.91a42,42,0,0,1-41.28-49.33h0a41.92,41.92,0,1,1,41.28,49.33Zm-33.87-48a34.4,34.4,0,1,0,39.93-27.77,34.19,34.19,0,0,0-39.93,27.77Z"/><circle class="cls-13" cx="763.02" cy="581.65" r="38.15"/><path class="cls-14" d="M763,623.58a42,42,0,0,1-41.28-49.33h0A41.92,41.92,0,1,1,763,623.58Zm-33.87-48A34.39,34.39,0,1,0,769.1,547.8a34.43,34.43,0,0,0-39.93,27.78Z"/><circle class="cls-13" cx="784.73" cy="524.81" r="38.15"/><path class="cls-14" d="M784.82,566.74a42.33,42.33,0,0,1-7.5-.67,41.92,41.92,0,0,1-33.85-48.67h0a41.9,41.9,0,1,1,41.35,49.34Zm-.17-76.33a34.42,34.42,0,0,0-33.77,28.32h0A34.39,34.39,0,1,0,790.8,491,34.55,34.55,0,0,0,784.65,490.41Z"/><circle class="cls-13" cx="768.68" cy="676.69" r="38.15"/><path class="cls-14" d="M768.69,718.61a41.92,41.92,0,0,1-41.27-49.33h0a41.92,41.92,0,1,1,41.27,49.33Zm-.09-76.32a34.42,34.42,0,0,0-33.77,28.32h0a34.33,34.33,0,1,0,33.77-28.32Z"/><circle class="cls-13" cx="806.84" cy="619.81" r="38.15"/><path class="cls-14" d="M806.92,661.74a42.31,42.31,0,0,1-7.49-.67,41.75,41.75,0,1,1,7.49.67Zm-.16-76.33A34.41,34.41,0,0,0,773,613.74h0A34.38,34.38,0,1,0,812.91,586,35.6,35.6,0,0,0,806.76,585.41Z"/><circle class="cls-13" cx="834.94" cy="552.16" r="38.15"/><path class="cls-14" d="M835,594.09a42,42,0,0,1-41.28-49.33h0A41.92,41.92,0,1,1,835,594.09Zm-33.87-48A34.39,34.39,0,1,0,841,518.31a34.43,34.43,0,0,0-39.93,27.78Z"/><circle class="cls-13" cx="845.29" cy="483.96" r="38.15"/><path class="cls-14" d="M845.31,525.88a42.83,42.83,0,0,1-7.43-.66A42,42,0,0,1,804,476.55h0a41.92,41.92,0,1,1,41.28,49.33Zm-33.87-48a34.39,34.39,0,1,0,39.93-27.77,34.44,34.44,0,0,0-39.93,27.77Z"/><circle class="cls-13" cx="848.99" cy="420.95" r="38.15"/><path class="cls-14" d="M849,462.87a41.92,41.92,0,0,1-41.28-49.33h0A41.92,41.92,0,1,1,849,462.87Zm-33.87-48a34.39,34.39,0,1,0,39.93-27.77,34.43,34.43,0,0,0-39.93,27.77Z"/><circle class="cls-13" cx="902.24" cy="471.24" r="38.15"/><path class="cls-14" d="M902.26,513.17A42,42,0,0,1,861,463.84h0a41.92,41.92,0,1,1,41.28,49.33Zm-33.87-48a34.39,34.39,0,1,0,39.93-27.77,34.43,34.43,0,0,0-39.93,27.77Z"/><circle class="cls-13" cx="893.36" cy="543.49" r="38.15"/><path class="cls-14" d="M893.45,585.42a42.22,42.22,0,0,1-7.49-.67,41.9,41.9,0,0,1-33.85-48.67h0a41.9,41.9,0,1,1,41.34,49.34Zm-.16-76.33a34.42,34.42,0,0,0-33.77,28.32h0a34.39,34.39,0,1,0,39.92-27.77A35.6,35.6,0,0,0,893.29,509.09Z"/><circle class="cls-13" cx="873.1" cy="619.81" r="38.15"/><path class="cls-14" d="M873.12,661.74a42,42,0,0,1-41.28-49.33h0a41.92,41.92,0,1,1,41.28,49.33Zm-33.87-48A34.39,34.39,0,1,0,879.18,586a34.15,34.15,0,0,0-39.93,27.78Z"/><circle class="cls-13" cx="834.94" cy="668.19" r="38.15"/><path class="cls-14" d="M835,710.12a42,42,0,0,1-41.28-49.33h0A41.92,41.92,0,1,1,835,710.12Zm-33.87-48A34.39,34.39,0,1,0,841,634.34a34.43,34.43,0,0,0-39.93,27.78Z"/><path class="cls-15" d="M879.14,350.87s-37.59,48-29.1,76.07L858.53,455s22.93-28.45,23.34-37.1c0,0,5,34.49,52.38,43,5.36-27.65-.73-61.29-.73-61.29l27.06-3.27C943.52,370.2,917.91,351.2,879.14,350.87Z"/><path class="cls-12" d="M879.65,332.57c.68,5.56,1.4,11.5,2.85,16.49.18.63.39,1.15.59,1.69.11.22.21.43.31.66l.53,1c.76,1.46,1.36,2.73,2,4.08l3.85,8,15.14,32,15,32.05,14.83,32.12-1,.5-33.4-62.36L883.7,367.61l-4.2-7.76c-.7-1.26-1.43-2.62-2.08-3.74l-.53-.92-.69-1.31c-.36-.82-.72-1.66-1-2.44a53.67,53.67,0,0,1-2.12-9.21,88.29,88.29,0,0,1-1-9.09Z"/><path class="cls-15" d="M846.05,336.9s-2.78,49.57-23.68,63.52l-20.9,13.94s.33-31.3,4.76-37.24c0,0-22.1,20.07-58-.08C759.7,355.84,782,336.91,782,336.91L765.93,320C791.45,312,820.24,316,846.05,336.9Z"/><path class="cls-12" d="M864.35,331.93a137.54,137.54,0,0,1-14.42,6.9c-4.8,2.07-9.61,4-14.42,5.92-9.64,3.83-19.3,7.52-29,11.18l-58.1,21.71-.48-1.2,56.92-24.6c9.47-4.13,18.92-8.29,28.29-12.57,4.68-2.15,9.36-4.31,14-6.57a132.25,132.25,0,0,0,13.2-7.12Z"/><path class="cls-16" d="M936.06,446.51c1.65-23.7-2.54-46.89-2.54-46.89l27.06-3.27C944.12,371.12,919.7,352.56,883.2,351l-.11-.23c-.2-.54-.41-1.06-.59-1.69a107.58,107.58,0,0,1-2.82-16.29l29.17-54.89-14.77-34.7-3.32,8.72c-.27.7-6.53,17.17-7.49,25-.64,3.11-9.83,23.35-22.23,49.79l-.73-1.15a132.25,132.25,0,0,1-13.2,7.12c-1.32.65-2.66,1.28-4,1.91-25-18.88-52.64-22.3-77.19-14.6L782,336.91s-17.46,14.79-29.46,32.87a41.9,41.9,0,0,0-59.24,30.45,39.93,39.93,0,0,0-.59,5.08c-1.13-.3-2.27-.56-3.43-.77A41.88,41.88,0,0,0,646,467.43a42.87,42.87,0,0,0-6,3.49,41.85,41.85,0,0,0-13,54.23,41.85,41.85,0,0,0-27.4,57.9,42,42,0,0,0-12.83,6,41.86,41.86,0,0,0-17.89,37.22,41.92,41.92,0,1,0,17.39,79.32,41.92,41.92,0,0,0,76.8,4.91,41.9,41.9,0,0,0,78.63-1.74A41.87,41.87,0,0,0,805,697.53a41.91,41.91,0,0,0,71.31-35.91,41.91,41.91,0,0,0,20.48-76.34,41.92,41.92,0,0,0,21.58-75.38,41.89,41.89,0,0,0,18.24-62.59C936.46,447,936.26,446.77,936.06,446.51Z"/><path class="cls-11" d="M584.12,448.94s10-36.56,16.48-39.12,19.7-4.57,19.7-4.57l-1.43,10.87s-13.64,3.21-14.43,10.22-2.12,29.49-2.12,29.49Z"/><path class="cls-12" d="M605.78,461.16l-26.19-9.91.9-3.3c.1-.38,2.57-9.37,5.89-18.85,6.34-18.11,10-21.67,12.84-22.78,6.78-2.68,20-4.71,20.52-4.79l5-.76-2.43,18.42-2.53.59c-4.64,1.11-11.23,4.15-11.55,7-.77,6.83-2.09,29.05-2.1,29.28Zm-17.11-14.52,10.21,3.86c.44-7.09,1.25-19.57,1.82-24.58.84-7.44,9.91-11.25,14.76-12.76l.44-3.34a92.12,92.12,0,0,0-13.82,3.46C599.65,415,593.87,428.51,588.67,446.64Zm13.45-33.39Z"/><path class="cls-17" d="M454.06,548.14c10.76-16.35,63-116.2,117.34-111.48,11.18,1,16.17,6.73,23.47,9,9.72,3,18.32,1.81,25.9,7.91,22.76,18.31,35,55.31,30.79,127.81,16.51,60.67,4.36,270.72-150,245.74S328.3,662.62,388.68,611.35,440.2,569.2,454.06,548.14Z"/><path class="cls-18" d="M526.18,832.93a157.69,157.69,0,0,1-25.2-2.11c-39.61-6.41-72.59-20.5-98-41.87-22.23-18.68-37.87-42.51-45.23-68.94-11.95-42.88-.75-86.66,28.54-111.52,9-7.62,16.41-13.91,22.63-19.16,31.06-26.22,31.06-26.22,38.48-37.77,1-1.59,2.18-3.39,3.55-5.48h0c1.21-1.83,3-4.82,5.26-8.61C474,507.68,521.33,428.53,571.73,432.92c7.85.68,12.92,3.46,17.4,5.92A37.27,37.27,0,0,0,596,442a69.31,69.31,0,0,0,9.27,2c6,1,12.17,2,17.88,6.6C649,471.45,659.27,512.88,655.35,581c5,18.73,8.46,56,2.23,100.55-4.73,33.77-16.61,81-46.36,114C588.84,820.41,560.31,832.93,526.18,832.93Zm41.43-392.67c-44.52,0-88.25,73.11-105,101.08-2.31,3.86-4.14,6.91-5.43,8.87s-2.5,3.85-3.51,5.42c-8,12.5-8.63,13-39.95,39.46-6.22,5.24-13.65,11.52-22.62,19.13C364.07,637.2,353.8,677.93,365,718c7,25,21.76,47.5,42.83,65.19,24.38,20.49,56.14,34,94.39,40.21,42.77,6.92,77.58-4.15,103.45-32.89,49.87-55.43,54-165,42.3-208.15l-.17-.6,0-.61c3.86-65.81-5.48-105.42-29.38-124.66-4.17-3.35-8.91-4.13-14.39-5a74.14,74.14,0,0,1-10.27-2.22,43.94,43.94,0,0,1-8.25-3.79c-4.2-2.3-8.16-4.48-14.43-5C569.92,440.31,568.76,440.26,567.61,440.26Z"/><path class="cls-19" d="M655.35,581c3.92-68.09-6.32-109.52-32.22-130.35-5.21-4.2-10.82-5.41-16.31-6.34.43-6.53,1-14,1.36-17.51.32-2.84,6.91-5.88,11.55-7l2.53-.59,2.43-18.42-5,.76c-.56.08-13.73,2.11-20.52,4.79-2.8,1.11-6.5,4.67-12.84,22.78-.86,2.45-1.65,4.86-2.37,7.1a35.79,35.79,0,0,0-12.28-3.28c-50.38-4.37-97.73,74.76-115.56,104.55-2.26,3.79-4.05,6.78-5.26,8.61-1.37,2.09-2.53,3.89-3.55,5.48-7.42,11.55-7.42,11.55-38.48,37.78-6.22,5.25-13.66,11.53-22.63,19.14C357,633.35,345.76,677.13,357.71,720c7.36,26.43,23,50.26,45.23,68.94,25.45,21.37,58.43,35.46,98,41.87a157.69,157.69,0,0,0,25.2,2.11c34.13,0,62.66-12.52,85-37.4,29.75-33.06,41.63-80.24,46.36-114C663.81,637,660.31,599.7,655.35,581Z"/><path class="cls-11" d="M298,530.85s2.36-54.22,24.59-56.24L336.77,478s-32,30-32.67,37.71S298,530.85,298,530.85Z"/><path class="cls-12" d="M293.74,543.16l.54-12.47a164.09,164.09,0,0,1,4.06-28.1c4.89-20,13-30.73,24-31.73l.61-.06,21.55,5.14-5.11,4.78c-18.81,17.63-31,32.06-31.49,35.32-.75,8.67-6.52,16.69-6.77,17Zm28.66-64.74c-8.62,1.3-13.95,14.17-17,27.36,6-8.14,16.25-18.49,23.78-25.75Z"/><path class="cls-20" d="M190,627.26A122,122,0,1,0,386.16,516.19c-37.29-25.53-86.76,1.22-86.76,1.22s-60.95-12.67-84.46,19.87A121.61,121.61,0,0,0,190,627.26Z"/><path class="cls-21" d="M310.84,738.11A125.76,125.76,0,0,1,211.93,535c23-31.71,77.42-23.3,86.9-21.56,8.18-4.11,53.57-24.94,89.45-.38l.19.14a125.75,125.75,0,0,1-62,223.93A128.73,128.73,0,0,1,310.84,738.11ZM272.63,518.78c-18.58,0-42.38,3.73-54.64,20.71l-.08.11a118.22,118.22,0,1,0,166-20.37c-35-23.84-82.28,1.23-82.75,1.49l-1.21.65-1.34-.28A145.81,145.81,0,0,0,272.63,518.78Z"/><path class="cls-22" d="M435.9,597a124.89,124.89,0,0,0-47.43-83.75l-.19-.14c-16.11-11-36.94-14.33-60.24-9.54a125.91,125.91,0,0,0-14.44,3.9,310.6,310.6,0,0,1,25.74-26.72l5.11-4.78L322.9,470.8l-.62.06c-11,1-19,11.68-23.94,31.73-.87,3.58-1.56,7.13-2.1,10.43-14.28-2.27-62.92-7.52-84.31,22a125.77,125.77,0,0,0,98.92,203.09,128.69,128.69,0,0,0,15.63-1A125.75,125.75,0,0,0,435.9,597Z"/><path class="cls-23" d="M330,795.36c113,25.8,228.13-45.19,256.48-74.78s101.54-139.43,60.37-165S564.39,645,420,671.61s-212.18-88.08-215.35-88.53c-1.9-.27-7.83-18.08-12.7-32.84-3.34-10.14-6.15-18.84-6.8-19.44-17.84-.46-29,9-36.55,23.62a96.35,96.35,0,0,1,11.24,9.34c7,6.77,15,16.56,16.52,27,2.73,19.3-7.11,48.37.68,80.35S217,769.54,330,795.36Z"/><path class="cls-24" d="M380.3,804.65A229.44,229.44,0,0,1,329.16,799h0c-50.05-11.44-89.68-31.92-117.77-60.86C186,712,176.7,685.49,173.41,672c-4.87-20-3.1-38.42-1.55-54.67,1-10.14,1.81-18.89.8-26.05-1.35-9.56-9.12-18.78-15.4-24.82a95.79,95.79,0,0,0-10.75-8.94l-2.75-1.88,1.53-3c9.17-17.72,22.25-26.12,40-25.65l1.4,0,1,.94c1.17,1.07,1.53,1.84,6.94,18.27l.91,2.77c2.72,8.26,9,27.19,11.22,30.85,1.06.68,2.17,2.11,4.57,5.19,68.24,87.56,150.77,93.36,208,82.81,79.88-14.72,127.28-56.37,161.9-86.78,27.35-24,47.11-41.4,67.59-28.71,7.78,4.83,12.38,12.48,13.68,22.75,5.54,43.7-50.92,124.62-73.31,148-15.29,16-52.43,41.25-97.84,59.06C462.8,793.45,423.44,804.65,380.3,804.65Zm-49.46-13C443.59,817.44,557.28,745.62,583.77,718c11.05-11.54,30.27-37,46.33-65.45,18.23-32.35,27.09-59.48,24.95-76.41-1-8-4.35-13.67-10.18-17.29-15-9.32-30.46,3.18-58.66,28-35.28,31-83.59,73.44-165.5,88.53-55,10.15-105.59,1.4-150.29-26-35.51-21.75-56.94-49.24-65-59.59-1-1.29-2-2.61-2.61-3.29-2.59-1.21-5-6.46-14.4-35l-.91-2.78c-1.75-5.3-3.67-11.15-4.75-14.07-12.64.34-22,6.37-29.23,18.77a108.52,108.52,0,0,1,9,7.7c7.14,6.87,16,17.51,17.63,29.2,1.14,8,.26,17.21-.75,27.81-1.5,15.66-3.21,33.41,1.37,52.18,3.1,12.73,11.91,37.82,36.06,62.7,27.06,27.88,65.44,47.65,114,58.76ZM205.2,579.35h0Z"/><path class="cls-11" d="M148.63,554.42a96.35,96.35,0,0,1,11.24,9.34L192,550.24c-3.34-10.14-6.15-18.84-6.8-19.44C167.34,530.34,156.22,539.76,148.63,554.42Z"/><path class="cls-25" d="M159.05,568.19l-1.79-1.72a95.79,95.79,0,0,0-10.75-8.94l-2.75-1.88,1.53-3c9.17-17.72,22.25-26.12,40-25.65l1.4,0,1,.94c1.17,1.07,1.53,1.84,6.94,18.27l2,6.07Zm-5.53-14.85c1.8,1.38,4.34,3.43,7.14,6l26.66-11.22c-1.69-5.16-3.53-10.73-4.57-13.55C170.11,534.91,160.72,540.94,153.52,553.34Z"/><path class="cls-26" d="M662.51,575.17c-1.3-10.27-5.9-17.92-13.68-22.75-20.47-12.69-40.24,4.68-67.59,28.71-34.62,30.41-82,72.06-161.9,86.78-57.22,10.55-139.75,4.74-208-82.81-2.4-3.08-3.51-4.51-4.57-5.19-2.1-3.39-7.61-19.91-10.57-28.88l-1.56-4.74c-4.56-13.86-5.53-16.58-6.43-17.73l-.1-.12a2.09,2.09,0,0,0-.2-.22,2,2,0,0,0-.21-.2l-1-.94-1.41,0a47.05,47.05,0,0,0-9.48.68c-13,2.34-23,10.57-30.5,25l-1.53,3,2.75,1.88s.34.23.91.65l1.36,1,.7.54a99.91,99.91,0,0,1,7.78,6.73c6.28,6,14.05,15.26,15.4,24.82,1,7.16.17,15.91-.8,26.05-1.55,16.25-3.32,34.67,1.55,54.67,3.29,13.48,12.59,40,38,66.16,28.09,28.94,67.72,49.42,117.77,60.86h0a229.37,229.37,0,0,0,51.14,5.62c43.14,0,82.49-11.2,111.06-22.41,45.41-17.81,82.55-43.1,97.84-59.06C611.59,699.79,668.05,618.87,662.51,575.17Z"/><path class="cls-23" d="M916.25,688.43c-74.69,88.62-209.37,101.25-249.82,94.68s-165-50.2-147.5-95.37,119.66,21.74,250.94-43.93,116.4-198.06,118.66-200.33c1.35-1.36-4.63-19.15-9.63-33.87-3.44-10.1-6.43-18.75-6.27-19.61,14-11.11,28.52-10.28,43.4-3.14a96.88,96.88,0,0,0-3.35,14.22c-1.55,9.64-2,22.28,3.07,31.51,9.44,17.06,34.79,34.35,47.82,64.57S990.93,599.8,916.25,688.43Z"/><path class="cls-24" d="M688.66,788.34a148,148,0,0,1-22.83-1.51c-32-5.19-125.76-35.83-147.65-74.06-5.14-9-6.07-17.86-2.76-26.39,8.71-22.46,34.94-20.5,71.25-17.77,46,3.44,108.88,8.16,181.51-28.17,52.05-26,114.46-80.34,116.24-191.33.06-3.92.09-5.72.52-6.9-.38-4.25-6.57-22.46-9.61-31.38l-.93-2.76c-5.58-16.38-5.76-17.21-5.47-18.77l.26-1.37,1.1-.88c13.88-11.05,29.38-12.22,47.37-3.58l3,1.44-1.07,3.16a93,93,0,0,0-3.21,13.6c-1.37,8.61-2,20.65,2.65,29.09,3.5,6.33,9.44,12.81,16.31,20.32,11,12,23.53,25.68,31.68,44.59,5.49,12.74,14,39.52,9.5,75.69-5,40-24.32,80.23-57.4,119.49h0c-41.24,48.93-98.69,72.82-139.62,84.24C745.47,784.59,712.52,788.34,688.66,788.34ZM555.94,674.56c-18.4,0-29.12,3.22-33.51,14.54C520,695.5,520.7,702,524.72,709,544.39,743.4,633.39,773.93,667,779.4c37.8,6.13,171.81-5,246.34-93.4,32.13-38.13,50.87-77,55.7-115.58,4.3-34.4-3.76-59.73-9-71.77-7.65-17.74-19.69-30.89-30.32-42.49-7.19-7.86-13.41-14.64-17.34-21.75-5.73-10.32-5.06-24.15-3.5-33.93a106.73,106.73,0,0,1,2.52-11.55c-13.22-5.56-24.34-4.72-34.64,2.61.89,3,2.88,8.82,4.68,14.11l.94,2.75c9.74,28.65,11,34.14,9.59,36.66,0,.89-.08,2.55-.11,4.17-.21,13.12-.76,48-16,86.72-19.21,48.78-54.33,86.2-104.37,111.22-74.49,37.27-138.62,32.46-185.44,28.94C574.36,675.23,564.34,674.56,555.94,674.56ZM885.86,440.82l0,0Z"/><path class="cls-11" d="M916,386.86a96.88,96.88,0,0,0-3.35,14.22l-33.78,8.53c-3.44-10.1-6.43-18.75-6.27-19.61C886.59,378.89,901.15,379.72,916,386.86Z"/><path class="cls-25" d="M876.45,414.11l-2.05-6c-5.58-16.38-5.76-17.21-5.47-18.77l.26-1.37,1.1-.88c13.88-11.05,29.38-12.22,47.37-3.58l3,1.44-1.07,3.15a94.34,94.34,0,0,0-3.21,13.61l-.39,2.45Zm.39-22.57c.86,2.88,2.75,8.43,4.5,13.57l28-7.08c.7-3.74,1.49-6.9,2.1-9.1C898.26,383.37,887.14,384.21,876.84,391.54Z"/><path class="cls-27" d="M967,495.67c-8.15-18.91-20.65-32.55-31.67-44.59-6.88-7.51-12.82-14-16.32-20.32-4.68-8.44-4-20.48-2.65-29.09.08-.48.16-1,.24-1.42l0-.17c.08-.41.15-.81.23-1.21,0-.14.05-.27.08-.41l.18-.91s0-.07,0-.1c.17-.82.34-1.61.51-2.35l.06-.26c.25-1,.49-2,.71-2.85v0c.16-.59.31-1.12.44-1.59l.06-.19c0-.17.09-.33.13-.48l.06-.18c.19-.66.34-1.1.4-1.31l.05-.13V388l1.06-3.11-3-1.44c-18-8.64-33.48-7.47-47.37,3.58l-1.1.87-.26,1.38c0,.05,0,.1,0,.15-.21,1.24,0,2.33,3.24,12l2.24,6.59,1.6,4.71c3,8.93,8.59,25.48,9,29.46-.43,1.18-.46,3-.52,6.9-1.78,111-64.19,165.31-116.24,191.33-72.63,36.34-135.56,31.61-181.51,28.17-36.31-2.73-62.54-4.7-71.25,17.77-3.31,8.53-2.38,17.41,2.76,26.39,21.89,38.23,115.69,68.87,147.65,74.06a147.71,147.71,0,0,0,22.83,1.52c23.86,0,56.8-3.76,90.85-13.26,40.93-11.42,98.38-35.31,139.62-84.24h0c33.08-39.26,52.4-79.47,57.4-119.49C981.06,535.19,972.52,508.41,967,495.67Z"/><path class="cls-9" d="M434.94,658.13a1.62,1.62,0,0,1-2.48-.2,1.7,1.7,0,0,1,2.85,1.81"/><path class="cls-9" d="M404.85,646a1.62,1.62,0,0,1-2.48-.19,1.7,1.7,0,0,1,2.85,1.81"/><path class="cls-9" d="M411.07,675.08a1.62,1.62,0,0,1-2.48-.2,1.7,1.7,0,0,1,2.85,1.81"/><path class="cls-9" d="M387.85,609.63a1.62,1.62,0,0,1-2.48-.19,1.69,1.69,0,0,1,2.85,1.8"/><path class="cls-9" d="M371.7,629.64a1.62,1.62,0,0,1-2.48-.19,1.69,1.69,0,0,1,2.85,1.81"/><path class="cls-9" d="M414.09,694.87a1.62,1.62,0,0,1-2.48-.2,1.7,1.7,0,0,1,2.85,1.81"/><path class="cls-9" d="M416.61,623.1a1.62,1.62,0,0,1-2.48-.19,1.69,1.69,0,0,1,2.85,1.81"/><path class="cls-9" d="M380.31,656.63a1.62,1.62,0,0,1-2.48-.19,1.69,1.69,0,0,1,2.85,1.8"/><path class="cls-9" d="M445.13,624.44a1.63,1.63,0,0,1-2.49-.19,1.69,1.69,0,0,1,2.85,1.81"/><path class="cls-9" d="M354.13,604.66a1.62,1.62,0,0,1-2.48-.19,1.69,1.69,0,0,1,2.85,1.81"/><path class="cls-8" d="M421.81,571.77l-1.49-11.7s-14.27,7.8-15.78,11.72S422.33,575.85,421.81,571.77Z"/><path class="cls-8" d="M343.58,598.69l-6.6-9.78s15.88-3.55,19.59-1.61S345.88,602.09,343.58,598.69Z"/><path class="cls-8" d="M405.93,573.52l3.16-17.21s-18.93,13.31-20.43,17.22S405.93,573.52,405.93,573.52Z"/><path class="cls-8" d="M389.85,575.27c.83-1.94-14.21-17.36-16.73-17s-6.66,22.37-3,23S388.91,577.49,389.85,575.27Z"/><path class="cls-8" d="M374.45,580.93c-2.9-3.77-26.88-3.44-29.08-2.8s9,12.9,9.58,12.44S374.45,580.93,374.45,580.93Z"/><path class="cls-5" d="M444.24,593.61c-2.49-10.45-28.67-34.71-71.19-13.85s-39,42.56-31.21,53.84,66,92.83,81.64,81.54S452.07,626.58,444.24,593.61Z"/><path class="cls-6" d="M419.94,720.51a13,13,0,0,1-2.25-.2c-23.13-3.95-73.7-76-79.39-84.26a29.39,29.39,0,0,1-4.67-24.39c3.43-13.19,16.05-25.22,37.53-35.76,26.27-12.89,45.62-9.07,57.21-3.6,11.78,5.55,18.65,14.42,20.05,20.31,4.5,18.93,2.16,48.89-1.53,70.61-2.34,13.81-9.06,46.85-20.89,55.4A10.16,10.16,0,0,1,419.94,720.51ZM405.11,575.83c-8.36,0-18.42,2-30.17,7.8-18.85,9.24-30.25,19.69-33,30.2a20.74,20.74,0,0,0,3.41,17.32c20.7,29.86,59,78.16,73.77,80.68a2.41,2.41,0,0,0,1.82-.18c5.1-3.69,12.48-20.53,17.45-49.86,4.52-26.66,5.15-52.41,1.64-67.19h0c-.81-3.41-6.1-10.16-15.35-14.52A45.42,45.42,0,0,0,405.11,575.83Z"/><path class="cls-9" d="M425.31,594.11a1.47,1.47,0,0,1-2.26-.07,1.54,1.54,0,0,1,2.66,1.51"/><path class="cls-9" d="M431.37,653.62a1.47,1.47,0,0,1-2.26-.06,1.58,1.58,0,0,1,2-.46,1.59,1.59,0,0,1,.64,2"/><path class="cls-9" d="M378.76,594.14a1.47,1.47,0,0,1-2.26-.07,1.54,1.54,0,0,1,2.66,1.52"/><path class="cls-9" d="M394,582.68a1.47,1.47,0,0,1-2.26-.06,1.6,1.6,0,0,1,2-.46,1.58,1.58,0,0,1,.64,2"/><path class="cls-9" d="M410,628.08a1.47,1.47,0,0,1-2.26-.07,1.54,1.54,0,0,1,2.66,1.52"/><path class="cls-9" d="M375.36,655.82a1.47,1.47,0,0,1-2.26-.07,1.54,1.54,0,0,1,2.67,1.52"/><path class="cls-9" d="M414.08,687.86a1.47,1.47,0,0,1-2.26-.07,1.54,1.54,0,0,1,2.66,1.52"/><path class="cls-9" d="M377.39,627a1.47,1.47,0,0,1-2.26-.07,1.54,1.54,0,0,1,2.66,1.52"/><path class="cls-9" d="M399.75,658.82a1.47,1.47,0,0,1-2.26-.06,1.61,1.61,0,0,1,2-.46,1.6,1.6,0,0,1,.64,2"/><path class="cls-9" d="M439.11,622.63a1.47,1.47,0,0,1-2.26-.07,1.61,1.61,0,0,1,2-.46,1.6,1.6,0,0,1,.64,2"/><path class="cls-9" d="M354.12,622.68a1.47,1.47,0,0,1-2.26-.06,1.54,1.54,0,0,1,2.67,1.51"/><path class="cls-28" d="M448.42,592.61c-1.4-5.89-8.27-14.76-20.05-20.31a52.38,52.38,0,0,0-6.83-2.65c-.53-4.15-1.22-9.58-1.22-9.58a111.24,111.24,0,0,0-11.45,7.26l-1.79-.08,2-10.94s-9.52,6.7-15.6,12c-2.26.41-4.61,1-7,1.65-4.4-5.12-11.66-11.93-13.35-11.72-1.87.23-4.62,12.37-4.44,18.93-.81.42-1.61.83-2.39,1.25-8.14-1-19.44-.71-20.92-.28s2.31,5.13,5.5,8.65A107.9,107.9,0,0,0,337,588.91l5.12,7.57a37.49,37.49,0,0,0-8.47,15.18,29.39,29.39,0,0,0,4.67,24.39c5.69,8.21,56.26,80.31,79.39,84.26a13,13,0,0,0,2.25.2,10.23,10.23,0,0,0,6.06-1.88c11.83-8.56,18.55-41.6,20.89-55.41C450.58,641.5,452.92,611.54,448.42,592.61Z"/><path class="cls-11" d="M782.63,555.53S792,502.08,814.31,503l13.58,5.18s-35.61,25.56-37.28,33.15S782.63,555.53,782.63,555.53Z"/><path class="cls-12" d="M776.76,567.19l2.16-12.31a163.29,163.29,0,0,1,7.67-27.32c7.46-19.26,16.86-28.78,27.87-28.36l.61,0,20.71,7.89-5.69,4.08c-20.94,15-34.9,27.77-35.81,30.94-1.88,8.49-8.64,15.69-8.92,16Zm36.83-60.47c-8.72.16-15.67,12.23-20.44,24.91,7-7.29,18.51-16.22,26.92-22.45Z"/><path class="cls-29" d="M630.5,610.31a136.79,136.79,0,1,0,250.19-35.84c-28.51-41.89-91.09-34.18-91.09-34.18s-58.47-38.13-96.32-13.76A136.4,136.4,0,0,0,630.5,610.31Z"/><path class="cls-30" d="M763.26,784.81a141.56,141.56,0,0,1-35.07-4.44,140.56,140.56,0,0,1-101.34-171h0a139.65,139.65,0,0,1,64.45-86c36.92-23.71,90.48,7.65,99.21,13.08A138.92,138.92,0,0,1,825.09,538c26.16,4.51,46.47,16.4,58.71,34.39l.13.2A140.63,140.63,0,0,1,763.26,784.81Zm-40-262.63c-9.81,0-19.46,2.07-27.91,7.52l-.12.07a132.13,132.13,0,0,0-61.05,81.47h0a133,133,0,1,0,243.36-34.75c-11.2-16.39-29.2-26.85-53.5-31.07a129.72,129.72,0,0,0-34-1.39l-1.36.16-1.16-.75C787.11,543.17,754.41,522.18,723.23,522.18Z"/><path class="cls-31" d="M883.93,572.55l-.13-.2c-12.24-18-32.55-29.88-58.71-34.39a141.71,141.71,0,0,0-25.71-2c6-5.83,16.79-14.8,30.71-24.79l5.68-4.08-20.7-7.89-.62,0c-11-.45-20.4,9.1-27.86,28.36-.7,1.82-1.36,3.65-2,5.44a170.56,170.56,0,0,0-27.8-12.3c-26.41-8.85-49.06-7.94-65.53,2.63a140.55,140.55,0,0,0,36.89,257,141.56,141.56,0,0,0,35.07,4.44A140.6,140.6,0,0,0,883.93,572.55Z"/><path class="cls-32" d="M423,926.77H712.12a0,0,0,0,1,0,0V939a13.24,13.24,0,0,1-13.24,13.24H436.2A13.24,13.24,0,0,1,423,939v-12.2A0,0,0,0,1,423,926.77Z"/><path class="cls-33" d="M698.88,956.82H436.2A17.87,17.87,0,0,1,418.35,939v-16.8H716.73V939A17.87,17.87,0,0,1,698.88,956.82ZM427.56,931.38V939a8.64,8.64,0,0,0,8.64,8.64H698.88a8.64,8.64,0,0,0,8.64-8.64v-7.59Z"/><path class="cls-32" d="M571.11,617.75h-7.22q-197.19.11-391.29-13.25a8.55,8.55,0,0,0-9.15,9c1.32,26.41,8,103.11,41.36,179.81C246.06,888,425,932.93,425,932.93H710s179-44.93,220.2-139.66c34.19-78.53,40.34-157.07,41.44-181.62a7,7,0,0,0-7.48-7.28Q769.23,618,571.11,617.75Z"/><path class="cls-33" d="M710.46,936.69h-286l-.46-.11A613.08,613.08,0,0,1,328.77,902c-67.06-31-109.93-67.11-127.41-107.27-33.26-76.37-40.22-152.11-41.67-181.12a12.33,12.33,0,0,1,13.17-12.91C299.54,609.53,430.12,614,561,614h2.93c1.17,0,2.34,0,3.52,0s2.46,0,3.65,0H574c131.48,0,262.63-4.5,389.88-13.37a10.75,10.75,0,0,1,11.5,11.2c-1,22.77-7.06,103.26-41.75,182.95C916.15,834.93,873.28,871,806.2,902a613.28,613.28,0,0,1-95.29,34.54Zm-285-7.53H709.52a607.62,607.62,0,0,0,93.64-34c81.31-37.63,112.08-77,123.58-103.38,34.18-78.51,40.12-157.84,41.13-180.29a3.21,3.21,0,0,0-3.45-3.35C837,617,705.67,621.51,574,621.52c-2.19,0-4.37,0-6.56,0-2,0-4.28,0-6.45,0-131.07,0-261.81-4.47-388.67-13.27a4.79,4.79,0,0,0-5.13,5c1.43,28.61,8.29,103.26,41,178.5,11.49,26.39,42.26,65.75,123.56,103.38A607,607,0,0,0,425.44,929.16Z"/><rect class="cls-32" x="148.63" y="603.83" width="832.86" height="27.43" rx="13.72"/><path class="cls-33" d="M967.78,635H162.35a17.48,17.48,0,1,1,0-35H967.78a17.48,17.48,0,0,1,0,35ZM162.35,607.59a9.95,9.95,0,1,0,0,19.9H967.78a9.95,9.95,0,1,0,0-19.9Z"/><path class="cls-32" d="M931.53,696.48c-66.07,6.88-329.06,10.09-410.38,6.54"/><path class="cls-33" d="M624.31,708.25c-44.3,0-81.11-.5-103.33-1.47a3.76,3.76,0,1,1,.33-7.52c82.1,3.58,345,.22,409.83-6.52a3.77,3.77,0,0,1,.78,7.49c-30.09,3.13-104.78,5.82-199.81,7.19C694,708,657.1,708.25,624.31,708.25Z"/><path class="cls-32" d="M529.39,798.63c-41.77,5-207,.9-257.85-4.91"/><path class="cls-33" d="M460.63,803.83c-65.7,0-154.22-3.12-189.43-7.14a3,3,0,0,1,.68-5.93c51.31,5.86,216.24,9.83,257.15,4.91a3,3,0,1,1,.71,5.92C516.69,803.16,491.12,803.83,460.63,803.83Z"/><path class="cls-32" d="M706.86,889.43C684.07,896.22,583,895.3,555,891.65"/><path class="cls-33" d="M626.63,896.64c-29.75,0-58.91-1.11-71.88-2.8a2.21,2.21,0,1,1,.57-4.38c27.5,3.58,128.29,4.59,150.91-2.15a2.21,2.21,0,1,1,1.26,4.23C695.23,895.2,660.55,896.64,626.63,896.64Z"/><path class="cls-34" d="M985.26,617.54a17.5,17.5,0,0,0-17.48-17.48H162.35A17.47,17.47,0,0,0,161.26,635c3.48,36.54,13.17,98,40.1,159.8C218.84,834.93,261.71,871,328.77,902a625.9,625.9,0,0,0,89.58,33V939a17.87,17.87,0,0,0,17.85,17.85H698.88A17.87,17.87,0,0,0,716.73,939v-4a624.33,624.33,0,0,0,89.47-33c67.08-31,109.95-67.11,127.44-107.27,27.23-62.56,36.81-125.6,40.16-160.84A17.49,17.49,0,0,0,985.26,617.54Z"/><path class="cls-12" d="M875.23,351.44c.25.78.61,1.62,1,2.44l.29.55a216.53,216.53,0,0,0-16.24,26.14c-1.26-.35-2.55-.64-3.85-.88l-1.54-.24,18.62-35A46.63,46.63,0,0,0,875.23,351.44Zm-25.3-12.61c2.29-1,4.56-2,6.84-3-5.28,11.21-11,23.24-16.78,35.36a167.24,167.24,0,0,0,5.76-30.59C847.14,340,848.54,339.43,849.93,338.83ZM840,594.15l-.28-.35.59-.06Zm27.85-15.93c.25-.32.49-.64.73-1l1.11.78C869,578.08,868.41,578.14,867.8,578.22Z"/></g></g></svg>